<svg width="134" height="85" viewBox="0 0 134 85" fill="none" xmlns="http://www.w3.org/2000/svg">
<path d="M25.2573 28.929C25.2742 29.6382 25.1929 30.3716 25.0101 31.1292C24.8272 31.8869 24.5699 32.6203 24.2414 33.3295C23.8215 34.2255 23.3136 35.0351 22.7176 35.7547C22.1217 36.4742 21.4783 37.0935 20.7841 37.6194C20.1441 38.0864 19.4737 38.4427 18.7694 38.6849C18.065 38.9271 17.3844 39.0482 16.7275 39.0482H16.6191C15.7963 39.0309 15.0547 38.8371 14.3978 38.4739C13.7409 38.1106 13.1923 37.5813 12.7521 36.8894C12.4609 37.3945 12.2036 37.8477 11.9835 38.249C11.7634 38.6503 11.5805 38.9651 11.4349 39.1865C10.0804 41.4456 8.80384 43.1373 7.59497 44.2582C6.9008 44.874 6.20664 45.3376 5.50908 45.6455C4.81492 45.9534 4.09366 46.1091 3.34193 46.1091C2.26174 46.1091 1.44906 45.8185 0.900497 45.2407C0.389184 44.6803 0.131836 43.9607 0.131836 43.082C0.131836 42.3174 0.311304 41.4975 0.666853 40.6292C1.0224 39.7608 1.51339 38.934 2.13307 38.1487C2.8103 37.2907 3.54171 36.6265 4.32731 36.1594C5.1129 35.6924 5.89172 35.4571 6.657 35.4571C7.29699 35.4571 7.81846 35.6439 8.22141 36.0176C8.57019 36.3532 8.74288 36.8133 8.74288 37.391C8.74288 37.8753 8.62098 38.3908 8.37379 38.9305C8.1266 39.4737 7.79475 39.9753 7.37148 40.4423C6.93128 40.9301 6.44706 41.3107 5.91881 41.5909C5.29576 41.9092 4.69302 42.0683 4.10721 42.0683C3.9616 42.0683 3.84308 42.0234 3.75166 41.9265C3.66023 41.8331 3.61621 41.712 3.61621 41.5632C3.61621 41.4145 3.66023 41.2969 3.75166 41.2138C3.84308 41.1308 3.9616 41.0893 4.10721 41.0893C4.54741 41.0893 4.98762 40.9786 5.43798 40.7537C5.88495 40.5288 6.30145 40.2036 6.68409 39.7747C7.01255 39.401 7.27667 38.9997 7.47984 38.5707C7.67963 38.1417 7.78121 37.7508 7.78121 37.3945C7.78121 37.3011 7.77105 37.1973 7.75412 37.0866C7.73719 36.9759 7.6864 36.8721 7.60174 36.7787C7.52048 36.6853 7.40534 36.6057 7.25974 36.54C7.11413 36.4742 6.91096 36.4431 6.657 36.4431C6.03394 36.4431 5.39395 36.6437 4.73704 37.0451C4.08012 37.4464 3.45706 38.0207 2.87125 38.7679C2.32269 39.4598 1.88926 40.1863 1.56757 40.9544C1.24589 41.7189 1.08674 42.4316 1.08674 43.0854C1.08674 43.722 1.25266 44.2064 1.58112 44.5419C1.92651 44.9329 2.51232 45.13 3.33516 45.13C4.56096 45.13 5.75628 44.5869 6.92789 43.5041C8.07919 42.4593 9.30499 40.8506 10.6019 38.6849C10.7475 38.4427 10.9439 38.1106 11.1911 37.6885C11.4383 37.2699 11.7126 36.7891 12.0139 36.2459C12.3153 35.7028 12.6268 35.1215 12.9451 34.4954C13.2634 33.8692 13.5716 33.2292 13.8628 32.5753C14.303 31.6239 14.645 30.7971 14.8922 30.0948C15.1394 29.396 15.3121 28.7906 15.4137 28.2889C15.5152 27.7838 15.5593 27.3756 15.5491 27.0573C15.5389 26.739 15.5085 26.4865 15.4543 26.2997C15.3459 25.9641 15.1428 25.7392 14.8515 25.6285C14.4317 25.459 14.0152 25.4002 13.6054 25.4452C13.1923 25.4936 12.7995 25.6043 12.427 25.7807C12.0512 25.9572 11.7058 26.1959 11.3841 26.4969C11.0624 26.7944 10.7847 27.1127 10.5477 27.4483C10.1651 28.0468 9.92466 28.6245 9.83323 29.185C9.79599 29.3718 9.7926 29.5759 9.81969 29.8007C9.84678 30.0256 9.94159 30.2401 10.1075 30.4442C10.4732 30.894 10.9202 30.9286 11.4518 30.5549C11.8345 30.3128 12.1291 29.9668 12.3288 29.5171C12.5286 29.1261 12.5659 28.7975 12.4372 28.538C12.3085 28.2405 12.3898 28.026 12.6844 27.8946C12.7928 27.8392 12.9113 27.8288 13.0399 27.8669C13.1686 27.9049 13.26 27.9879 13.3142 28.1194C13.4429 28.3823 13.4937 28.666 13.4666 28.9739C13.4395 29.2818 13.3582 29.5863 13.2194 29.8838C13.084 30.1813 12.9079 30.4685 12.6979 30.7383C12.488 31.0081 12.2544 31.2296 11.997 31.3956C11.594 31.6585 11.1572 31.7866 10.6798 31.7866C10.2057 31.7693 9.76551 31.534 9.36256 31.0877C8.92235 30.5446 8.75981 29.863 8.86817 29.0431C8.97653 28.3131 9.27112 27.597 9.74519 26.8843C10.0364 26.4727 10.3852 26.0852 10.7881 25.7219C11.1911 25.3587 11.6279 25.0681 12.1054 24.8536C12.5794 24.6391 13.0806 24.5076 13.5987 24.4627C14.1201 24.4177 14.645 24.4938 15.1766 24.7014C15.7252 24.9262 16.118 25.3449 16.355 25.9607C16.4464 26.2789 16.4972 26.6387 16.5074 27.04C16.5175 27.4413 16.4668 27.8945 16.355 28.3996C16.8494 27.8565 17.3438 27.3894 17.8348 26.9985C18.512 26.4208 19.1892 25.9606 19.8631 25.6251C20.5403 25.2895 21.1702 25.075 21.756 24.9816C22.7989 24.8328 23.6116 25.075 24.1974 25.7116C24.9085 26.4173 25.2573 27.4898 25.2573 28.929ZM23.3644 32.9074C24.0213 31.5824 24.3328 30.2643 24.2956 28.9566C24.2956 28.3789 24.2313 27.8703 24.1026 27.431C23.9739 26.9916 23.7809 26.6526 23.5269 26.4069C23.1782 25.9952 22.6398 25.8465 21.9083 25.9572C21.414 26.0333 20.8654 26.2236 20.2627 26.5315C19.6599 26.8394 19.0572 27.2476 18.4511 27.7492C17.828 28.2543 17.2659 28.8079 16.7647 29.4167C16.2602 30.0256 15.8369 30.6449 15.4881 31.2814C15.4881 31.2987 15.4848 31.3091 15.4746 31.3091C15.4644 31.3091 15.4611 31.3195 15.4611 31.3368C15.3527 31.5997 15.241 31.8661 15.1326 32.1359C15.0242 32.4058 14.8956 32.6929 14.75 32.9905C14.2759 34.018 13.7917 34.9797 13.2973 35.8757C13.6258 36.5849 14.0795 37.1212 14.6551 37.4879C15.2308 37.8511 15.8945 38.0449 16.6428 38.0622C17.2286 38.0795 17.828 37.9826 18.4409 37.7681C19.0538 37.5536 19.6531 37.2319 20.239 36.8029C20.8789 36.3359 21.4648 35.7754 21.993 35.1215C22.5212 34.4677 22.9784 33.7308 23.3644 32.9074Z" fill="#767676"/>
<path d="M31.0144 40.6952C31.1058 40.7886 31.1566 40.8993 31.1668 41.0307C31.1769 41.1622 31.1329 41.2729 31.0449 41.3663C31.028 41.4044 30.8248 41.6292 30.4421 42.0375C30.0595 42.4492 29.5448 42.9058 28.9048 43.4109C27.1305 44.774 25.522 45.4556 24.0795 45.4556C23.3108 45.4556 22.7318 45.3172 22.339 45.037C21.9462 44.7567 21.6584 44.4661 21.4755 44.1686C21.1268 43.5528 21.0286 42.7813 21.1742 41.8576C21.3198 40.9339 21.7126 39.9098 22.3526 38.7889C23.2465 37.1629 24.2217 35.8379 25.2748 34.8104C26.3245 33.7828 27.3167 33.1843 28.2513 33.0183C28.9658 32.9076 29.5583 33.0459 30.0324 33.4403C30.3981 33.7586 30.5979 34.1876 30.6352 34.7308C30.6521 35.2912 30.4794 35.914 30.1137 36.5955C29.748 37.277 29.2163 37.9724 28.5222 38.6817C27.7535 39.4843 26.9408 40.0724 26.0807 40.4461C25.3663 40.7643 24.6823 40.9235 24.0253 40.9235C23.6969 40.9235 23.4023 40.8958 23.1483 40.8405C22.891 40.7851 22.681 40.7194 22.5185 40.6433C22.4271 40.8854 22.3492 41.1138 22.2848 41.3282C22.2205 41.5427 22.1697 41.7538 22.1325 41.9579C22.0241 42.7052 22.0851 43.276 22.3255 43.6669C22.6167 44.2101 23.2025 44.4799 24.0795 44.4799C24.8279 44.4799 25.5728 44.2897 26.3144 43.9057C27.056 43.5216 27.723 43.0996 28.3156 42.6325C28.9082 42.1655 29.3924 41.7365 29.7683 41.3421C30.1442 40.9512 30.3304 40.7436 30.3304 40.7263C30.4218 40.6329 30.5302 40.581 30.6589 40.5706C30.7875 40.5602 30.9061 40.6017 31.0144 40.6952ZM23.172 39.2663C23.1348 39.3597 23.0907 39.4428 23.0366 39.5189C22.9824 39.595 22.935 39.678 22.8977 39.7714C23.0433 39.8095 23.2127 39.8475 23.4057 39.8821C23.5987 39.9202 23.8222 39.9375 24.0761 39.9375C25.3392 39.9202 26.5988 39.2732 27.8619 38.0036C28.4477 37.4051 28.898 36.8238 29.2197 36.253C29.538 35.6822 29.6904 35.1944 29.6735 34.7827C29.6362 34.5405 29.555 34.3433 29.4263 34.1945C29.1689 33.9697 28.8303 33.9039 28.4104 33.9973C28.0447 34.0527 27.6519 34.2188 27.232 34.4886C26.8122 34.7585 26.3821 35.1113 25.9419 35.5403C24.9531 36.5125 24.0321 37.7545 23.172 39.2663Z" fill="#767676"/>
<path d="M37.651 33.5787C37.9625 33.6167 38.1182 33.7932 38.1182 34.1115C38.1013 34.2602 38.0404 34.3779 37.9388 34.4609C37.8372 34.5439 37.7255 34.5785 37.5968 34.5577C37.1938 34.5197 36.7198 34.5024 36.1712 34.5024C35.6226 34.5024 35.0741 34.5128 34.5255 34.5301C34.1226 35.2012 33.7332 35.8793 33.3607 36.5609C32.9848 37.2424 32.6631 37.8651 32.3888 38.4256C31.8572 39.4704 31.4712 40.3457 31.224 41.0445C30.9768 41.7434 30.8075 42.3108 30.7161 42.7398C30.6247 43.1687 30.5976 43.4974 30.6348 43.7188C30.6721 43.9437 30.7161 44.0925 30.7736 44.1686C30.7906 44.2066 30.838 44.2585 30.9091 44.3243C30.9836 44.39 31.136 44.4211 31.3764 44.4211C31.6879 44.4211 32.0672 44.3139 32.5141 44.0994C32.9611 43.8849 33.4521 43.5804 33.9803 43.1895C34.4205 42.8539 34.8607 42.4734 35.3111 42.0548C35.7581 41.6327 36.1475 41.2175 36.476 40.8093C36.5674 40.7159 36.6757 40.6605 36.8044 40.6398C36.9331 40.6225 37.0516 40.6571 37.16 40.7505C37.2514 40.8439 37.3056 40.9546 37.3259 41.086C37.3428 41.2175 37.309 41.3386 37.2175 41.4493C36.8518 41.8783 36.4353 42.3142 35.9714 42.7536C35.5041 43.193 35.0267 43.5977 34.5323 43.9714C33.2896 44.9228 32.2365 45.4002 31.3798 45.4002C30.9599 45.4002 30.6382 45.3206 30.4215 45.1615C30.2014 45.0023 30.0456 44.8397 29.9542 44.6702C29.6054 44.1098 29.5986 43.2137 29.9271 41.9786C30.2014 40.9338 30.7398 39.5984 31.5457 37.9724C31.803 37.4673 32.0841 36.9207 32.3956 36.3325C32.7071 35.7444 33.0458 35.1424 33.4115 34.5266C33.1541 34.5439 32.9205 34.5578 32.7105 34.5681C32.5006 34.5785 32.3211 34.582 32.1755 34.582C31.9927 34.5993 31.8267 34.6096 31.6811 34.6096H31.654C31.3628 34.6096 31.1969 34.4505 31.1597 34.1322C31.1597 33.9835 31.2003 33.8624 31.2816 33.769C31.3628 33.6756 31.478 33.6271 31.6236 33.6271C31.6608 33.6271 31.9012 33.6167 32.3516 33.5994C32.7986 33.5821 33.3437 33.5614 33.9837 33.5441C34.3122 32.9836 34.6271 32.4508 34.9285 31.9457C35.2298 31.4406 35.494 30.9943 35.7242 30.5999C35.9511 30.209 36.2118 29.78 36.5064 29.3095C36.5809 29.1988 36.6791 29.1227 36.8078 29.0846C36.9365 29.0466 37.055 29.0673 37.1633 29.14C37.4376 29.3268 37.4918 29.5621 37.3293 29.8423C37.0719 30.2332 36.845 30.6 36.6453 30.9355C36.4455 31.2711 36.2118 31.6586 35.9443 32.098C35.6802 32.5373 35.3992 33.0079 35.1079 33.513C35.582 33.513 36.0459 33.513 36.4929 33.513C36.9331 33.5233 37.3225 33.5406 37.651 33.5787Z" fill="#767676"/>
<path d="M45.9864 40.7539C46.0779 40.8473 46.132 40.958 46.1524 41.0895C46.1693 41.2209 46.1354 41.342 46.044 41.4527C46.0068 41.4908 45.9627 41.5357 45.9086 41.5911C45.8544 41.6465 45.807 41.7018 45.7731 41.7606C44.9333 42.8054 44.1647 43.6772 43.4705 44.3656C42.7763 45.0576 42.1364 45.4035 41.5505 45.4035C41.0392 45.4035 40.6634 45.1994 40.4263 44.7877C40.1893 44.338 40.1893 43.6876 40.4263 42.8262C40.6634 41.9855 41.1747 40.8646 41.9637 39.4635C42.1093 39.2006 42.1194 38.7785 41.9907 38.1904C41.8621 37.6023 41.6081 36.9069 41.2221 36.1043C40.7277 36.8135 40.1554 37.6092 39.5087 38.4844C38.8585 39.3632 38.1068 40.3422 37.2467 41.425C37.1553 41.5358 37.0469 41.6015 36.9182 41.6222C36.7896 41.6395 36.6812 41.6049 36.5898 41.5115C36.4814 41.4181 36.4171 41.3074 36.3968 41.1759C36.3798 41.0445 36.4137 40.9234 36.5051 40.8127C38.3337 38.4775 39.7322 36.5921 40.7006 35.1529C40.5347 34.8 40.4907 34.3745 40.5652 33.8798C40.6363 33.3851 40.7209 32.9803 40.8124 32.6621C40.8496 32.5686 40.9004 32.4233 40.9647 32.2262C41.0291 32.029 41.1171 31.8214 41.2255 31.5965C41.3338 31.3716 41.4591 31.1468 41.5946 30.9254C41.7334 30.7005 41.8925 30.5137 42.0754 30.3649C42.2752 30.1954 42.4851 30.1089 42.7052 30.0986C42.9253 30.0882 43.1251 30.1677 43.308 30.3373C43.6906 30.6728 43.7753 31.2264 43.5552 31.9909C43.3554 32.5894 42.9795 33.347 42.431 34.2604C42.3395 34.4091 42.2447 34.5648 42.1431 34.7239C42.0415 34.8831 41.9366 35.0457 41.8282 35.2152C43.0168 37.4397 43.3351 39.0241 42.7865 39.979C42.3124 40.8196 41.9603 41.5115 41.73 42.0512C41.4998 42.5944 41.3508 43.0268 41.2763 43.3554C41.2018 43.6841 41.1747 43.9159 41.195 44.0543C41.2119 44.1961 41.2322 44.2826 41.2492 44.3207C41.2661 44.338 41.2932 44.3622 41.3304 44.3899C41.3677 44.4175 41.4388 44.4314 41.5505 44.4314C41.642 44.4314 41.8079 44.3691 42.0449 44.248C42.282 44.1269 42.6206 43.8433 43.0608 43.3935C43.4096 43.0752 43.7448 42.7155 44.0766 42.3141C44.4051 41.9128 44.7268 41.5254 45.0349 41.1517C45.0722 41.0964 45.1162 41.041 45.1704 40.9822C45.2245 40.9269 45.272 40.8715 45.3058 40.8127C45.3972 40.7193 45.5056 40.6639 45.6343 40.6432C45.7596 40.6224 45.8781 40.6605 45.9864 40.7539ZM41.5438 33.8591C41.5607 33.821 41.5742 33.8002 41.5844 33.7899C41.5946 33.7795 41.6081 33.7587 41.625 33.7207C41.9163 33.2363 42.1364 32.835 42.282 32.5168C42.4276 32.1985 42.5393 31.939 42.6104 31.7314C42.6849 31.5273 42.7188 31.3786 42.7188 31.2817C42.7188 31.1883 42.7086 31.1226 42.6917 31.0845C42.6172 31.1399 42.5122 31.2609 42.3768 31.4478C42.2379 31.6346 42.0991 31.9148 41.9501 32.2884C41.8418 32.5686 41.7537 32.8454 41.6894 33.1153C41.6318 33.3886 41.581 33.6342 41.5438 33.8591Z" fill="#767676"/>
<path d="M53.3384 40.8922C53.1014 41.3212 52.8 41.7986 52.4343 42.321C52.0686 42.8434 51.6487 43.345 51.1713 43.819C50.6972 44.2964 50.1689 44.6908 49.5933 45.0091C49.0176 45.3274 48.4014 45.4865 47.7411 45.4865C47.0841 45.4865 46.5762 45.355 46.2173 45.0956C45.8617 44.8327 45.601 44.5628 45.4351 44.2826C45.0321 43.5907 44.9305 42.6947 45.1337 41.5911C45.3335 40.5463 45.7635 39.4254 46.4238 38.2284C46.6812 37.7786 47.0266 37.2493 47.4668 36.6301C47.907 36.0143 48.4183 35.4158 49.0041 34.838C49.2242 34.6132 49.4748 34.3848 49.7592 34.153C50.0437 33.9212 50.3349 33.7102 50.6362 33.5234C50.9376 33.3366 51.2491 33.1844 51.5674 33.0598C51.8857 32.9387 52.2041 32.8765 52.5122 32.8765C52.6578 32.8765 52.7763 32.9249 52.8677 33.0183C52.9592 33.1117 53.0032 33.2328 53.0032 33.3816C53.0032 33.5303 52.9592 33.648 52.8677 33.731C52.7763 33.814 52.6578 33.8555 52.5122 33.8555C52.1465 33.8555 51.7164 34.0008 51.2221 34.2914C50.7277 34.582 50.2164 34.9972 49.6847 35.5369C49.1362 36.08 48.6519 36.6404 48.2321 37.2182C47.8122 37.7959 47.4837 38.2941 47.2433 38.7023C46.6405 39.7852 46.2545 40.8023 46.092 41.7571C45.9261 42.5978 45.9904 43.2689 46.285 43.774C46.522 44.2618 47.0063 44.504 47.7377 44.504C48.1203 44.504 48.486 44.4244 48.8348 44.2653C49.1836 44.1061 49.5154 43.9055 49.8371 43.6633C50.1554 43.4212 50.4534 43.1513 50.7277 42.8503C51.0019 42.5528 51.2491 42.2622 51.4692 41.982C51.6148 41.7952 51.7435 41.6118 51.8519 41.4354C51.9602 41.2589 52.072 41.086 52.1803 40.9164C51.7977 40.8784 51.4896 40.785 51.2627 40.6362C51.0324 40.4875 50.8563 40.3387 50.7277 40.1865C50.345 39.7367 50.152 39.159 50.152 38.4498C50.152 38.0208 50.2164 37.5814 50.345 37.1317C50.4737 36.682 50.6633 36.2737 50.9207 35.9001C51.5234 35.0041 52.2108 34.5544 52.9761 34.5544C53.5619 34.5544 54.0089 34.8069 54.3204 35.312C54.6116 35.779 54.7369 36.3879 54.6895 37.1317C54.6421 37.879 54.4017 38.7196 53.9615 39.6537C53.8159 39.9512 53.6974 40.19 53.6059 40.3698C53.5213 40.5532 53.4299 40.7262 53.3384 40.8922ZM52.9829 35.5403C52.7628 35.5403 52.5427 35.6233 52.3259 35.7929C52.1058 35.9624 51.9061 36.1838 51.7232 36.464C51.5404 36.7442 51.3948 37.0556 51.283 37.4016C51.1746 37.7475 51.1171 38.0969 51.1171 38.4532C51.1171 38.602 51.134 38.7819 51.1713 38.986C51.2085 39.1901 51.2999 39.377 51.4455 39.5465C51.6826 39.8267 52.0652 39.9685 52.5968 39.9685H52.7357C52.8271 39.7817 52.9016 39.6364 52.9558 39.5326C53.01 39.4288 53.0472 39.37 53.0641 39.3493C53.3215 38.7715 53.4942 38.2768 53.5856 37.8651C53.677 37.4534 53.7211 37.1075 53.7211 36.8273C53.7211 36.547 53.6974 36.3291 53.6533 36.17C53.6093 36.0108 53.5653 35.9036 53.5314 35.8482C53.3824 35.6441 53.203 35.5403 52.9829 35.5403Z" fill="#767676"/>
<path d="M56.4104 46.9156C55.8787 46.9156 55.4791 46.8049 55.2049 46.58C54.9306 46.3551 54.7206 46.1302 54.575 45.9088C54.1552 45.1616 54.1281 44.0683 54.4938 42.6291C54.6597 41.958 54.9137 41.2245 55.2624 40.4288C55.6112 39.6366 56.0311 38.8097 56.5255 37.9483C56.7625 37.5366 57.0503 37.0384 57.389 36.4503C57.7276 35.8622 58.0797 35.2498 58.4455 34.6132C58.8112 33.9801 59.1769 33.347 59.5426 32.7208C59.9083 32.0946 60.2334 31.5307 60.5144 31.0256C60.7989 30.5205 61.0325 30.1157 61.2154 29.8078C61.3982 29.4999 61.4896 29.3373 61.4896 29.3166C61.6556 29.0537 61.8723 28.9983 62.1466 29.1471C62.4039 29.3166 62.4581 29.538 62.3125 29.8182C62.3125 29.8355 62.2211 30.0016 62.0382 30.3095C61.8553 30.6174 61.6217 31.0187 61.3373 31.5134C61.0528 32.0081 60.7278 32.5755 60.3654 33.2086C59.9997 33.8452 59.634 34.4783 59.2683 35.1149C58.9026 35.7515 58.5504 36.3603 58.2118 36.9519C57.8732 37.5401 57.5854 38.0417 57.3483 38.4499C56.8743 39.2733 56.4713 40.0552 56.1428 40.8025C55.8144 41.5497 55.5672 42.2417 55.4013 42.8748C55.1101 44.0337 55.1168 44.8848 55.4284 45.4245C55.6112 45.7601 55.9397 45.9296 56.4171 45.9296C56.7625 45.9296 57.0876 45.8189 57.389 45.594C57.6903 45.3691 57.9612 45.0993 58.1983 44.781C58.4353 44.4627 58.6419 44.1375 58.8145 43.8019C58.9872 43.4664 59.1295 43.1861 59.2412 42.9613L59.2954 42.9059C59.4241 42.6257 59.634 42.5496 59.9252 42.681C60.0539 42.7364 60.1352 42.8298 60.1724 42.9613C60.2097 43.0927 60.1995 43.2138 60.1453 43.3245L60.1182 43.4075C59.9896 43.6705 59.8169 43.9957 59.5968 44.3866C59.3767 44.7776 59.1159 45.1616 58.8145 45.5352C58.5132 45.9088 58.161 46.2306 57.7581 46.5004C57.3517 46.7807 56.9047 46.9156 56.4104 46.9156Z" fill="#767676"/>
<path d="M72.4549 33.6654C71.798 34.731 71.2156 35.7792 70.7145 36.8171C70.2099 37.855 69.8137 38.8479 69.5225 39.8028C69.2313 40.7542 69.0654 41.5948 69.0281 42.3248C68.9909 43.0548 69.0925 43.6326 69.3295 44.0616C69.6207 44.6393 70.1896 44.9299 71.0294 44.9299C72.2552 44.9299 73.6909 43.9197 75.3366 41.9028C76.0511 41.0067 76.708 40.083 77.3107 39.1281C77.9135 38.1767 78.4248 37.343 78.8481 36.6337C78.9564 36.4469 79.058 36.2739 79.1494 36.1148C79.2409 35.9556 79.3323 35.8104 79.4237 35.6789C79.4237 35.6616 79.4271 35.6512 79.4373 35.6512C79.4474 35.6512 79.4508 35.6408 79.4508 35.6235C79.7996 34.987 80.1314 34.3781 80.4531 33.7865C80.7714 33.1983 81.0796 32.6621 81.3708 32.1743C81.425 32.0428 81.5164 31.9598 81.6451 31.9217C81.7737 31.8837 81.9024 31.9044 82.0277 31.9771C82.1361 32.0532 82.2106 32.1535 82.2478 32.285C82.2851 32.4164 82.2647 32.5375 82.1936 32.6483C81.7907 33.3402 81.3674 34.1047 80.917 34.9454C80.47 35.7861 80.0129 36.6441 79.5456 37.5229C79.0783 38.4016 78.6178 39.2803 78.1607 40.1556C77.7035 41.0344 77.2769 41.8543 76.8841 42.6224C76.4913 43.3869 76.1425 44.0754 75.8411 44.6808C75.5398 45.2897 75.3061 45.7499 75.1402 46.0681C75.34 45.9574 75.5465 45.8398 75.7565 45.7187C75.9664 45.5976 76.1831 45.4627 76.3999 45.314C77.094 44.8642 77.8627 44.2864 78.7025 43.5772C79.5422 42.868 80.3854 41.9443 81.2252 40.8026C81.3166 40.6919 81.425 40.6262 81.5536 40.6054C81.6823 40.5881 81.8008 40.6158 81.9092 40.6884C82.0006 40.7818 82.0616 40.8925 82.0887 41.024C82.1157 41.1555 82.0853 41.2766 81.9938 41.3873C81.0965 42.5843 80.2059 43.5495 79.3188 44.2864C78.4316 45.0233 77.6324 45.6357 76.9179 46.1235C76.4439 46.4418 75.9901 46.7151 75.5601 46.9504C75.13 47.1856 74.7237 47.3759 74.3411 47.5247C73.7552 48.4761 73.1525 49.251 72.5294 49.8495C71.6524 50.6902 70.8736 51.1192 70.1997 51.14H70.1185C69.5868 51.14 69.2042 50.9359 68.9672 50.5242C68.7843 50.2439 68.7471 49.9083 68.8588 49.5139C68.9672 49.1403 69.2008 48.784 69.5598 48.4484C69.9153 48.1128 70.3487 47.8499 70.8634 47.663C70.9718 47.625 71.1005 47.5835 71.2461 47.5385C71.3917 47.4901 71.5474 47.4416 71.7134 47.3828C71.9707 47.3067 72.2619 47.2202 72.5904 47.1164C72.9189 47.0126 73.2846 46.8881 73.6875 46.7393C73.7417 46.6459 73.8027 46.5421 73.867 46.4314C73.9313 46.3207 73.9889 46.2065 74.0465 46.0958C74.0837 46.0578 74.2395 45.7637 74.5138 45.2136C74.788 44.6636 75.1368 43.9682 75.5567 43.1275C74.9336 43.8367 74.314 44.4248 73.6909 44.8919C72.7597 45.563 71.8725 45.9021 71.0294 45.9021C70.2776 45.9021 69.7088 45.7533 69.316 45.4523C68.9232 45.1548 68.6455 44.8469 68.4796 44.5286C67.8768 43.4077 67.9141 41.7367 68.5879 39.5121C68.8995 38.5227 69.316 37.4814 69.834 36.3881C70.3555 35.2949 70.9616 34.2085 71.6592 33.1222C72.0994 32.4303 72.648 31.6934 73.3049 30.908C73.1593 30.7212 73.0306 30.5344 72.9222 30.3476C72.4482 29.4135 72.3364 28.2753 72.5938 26.9295C72.7021 26.331 72.885 25.7255 73.1423 25.1097C73.3997 24.4939 73.7078 23.9127 74.0735 23.373C74.2733 23.1101 74.5036 23.0651 74.7576 23.2311C74.8659 23.3245 74.937 23.4353 74.9641 23.5667C74.9912 23.6982 74.9607 23.8193 74.8693 23.93C74.5408 24.4143 74.2564 24.9333 74.0194 25.4868C73.7823 26.0369 73.6164 26.5835 73.525 27.1267C73.4336 27.6698 73.4065 28.1715 73.4437 28.6385C73.481 29.1056 73.5995 29.5242 73.7993 29.8978C73.8162 29.9359 73.8399 29.9809 73.867 30.0397C73.8941 30.095 73.9279 30.1435 73.9618 30.1815C74.8016 29.2682 75.6888 28.4171 76.6233 27.6318C76.9146 27.3896 77.2735 27.1128 77.6934 26.8049C78.1133 26.497 78.5569 26.203 79.0241 25.9227C79.4914 25.6425 79.9621 25.4107 80.4362 25.2239C80.9103 25.0371 81.3606 24.9333 81.7805 24.916C82.2004 24.8779 82.5288 24.9333 82.7693 25.0855C83.0063 25.2342 83.179 25.383 83.2907 25.5353C83.4905 25.7982 83.582 26.1234 83.565 26.5143C83.5481 26.9053 83.4296 27.3446 83.2095 27.8324C82.9521 28.3548 82.6067 28.8738 82.1665 29.3893C81.7263 29.9048 81.2252 30.3649 80.6597 30.7766C80.1856 31.1122 79.5896 31.4443 78.8785 31.7695C78.1641 32.0982 77.3412 32.2608 76.41 32.2608C75.6041 32.2608 74.8828 32.0843 74.2429 31.728C74.2056 31.7107 74.1684 31.6899 74.1345 31.6726C74.0972 31.6553 74.06 31.6277 74.0261 31.5896C73.4336 32.2642 72.9121 32.9527 72.4549 33.6654ZM71.8793 49.1576C72.2078 48.822 72.5091 48.476 72.7834 48.1197C72.6378 48.1578 72.4956 48.1958 72.3567 48.2304C72.2179 48.2685 72.0859 48.3065 71.9606 48.3411C71.815 48.3792 71.6727 48.4172 71.5339 48.4518C71.3951 48.4899 71.2833 48.528 71.1919 48.5626C70.7889 48.7321 70.4639 48.9327 70.2167 49.1645C69.9695 49.3963 69.8205 49.6074 69.7629 49.7942C69.746 49.9049 69.746 49.9706 69.7629 49.9914C69.8002 50.0294 69.8442 50.0709 69.8984 50.1159C69.9526 50.1609 70.0372 50.1747 70.1456 50.1574C70.6095 50.1298 71.1851 49.7942 71.8793 49.1576ZM77.2261 28.424C76.3118 29.154 75.4619 29.9636 74.6763 30.8631C75.1165 31.1433 75.6921 31.2817 76.4032 31.2817C77.0974 31.2817 77.7611 31.1571 78.3909 30.9046C79.0208 30.652 79.5964 30.3337 80.1179 29.9532C80.6394 29.5692 81.0863 29.1506 81.4622 28.6939C81.8381 28.2372 82.1259 27.8013 82.3257 27.3896C82.4916 27.0713 82.583 26.8049 82.6 26.5904C82.6169 26.3759 82.6 26.2306 82.5458 26.1545C82.5085 26.1165 82.4442 26.0611 82.3528 25.985C82.2613 25.9089 82.0886 25.8812 81.8313 25.902C81.2997 25.9193 80.6326 26.1511 79.8301 26.587C79.0275 27.0263 78.1607 27.6387 77.2261 28.424Z" fill="#767676"/>
<path d="M93.0225 40.754C93.114 40.8474 93.1681 40.9581 93.1885 41.0896C93.2054 41.221 93.1715 41.3421 93.0801 41.4528C93.0429 41.4909 93.0022 41.5359 92.9582 41.5912C92.9108 41.6466 92.8634 41.7019 92.8058 41.7607C91.966 42.8055 91.1974 43.6774 90.5032 44.3658C89.809 45.0578 89.169 45.4037 88.5832 45.4037C88.1633 45.4037 87.8484 45.3242 87.6385 45.165C87.4285 45.0059 87.2762 44.8433 87.1847 44.6738C86.9849 44.3001 86.9105 43.8434 86.9646 43.3003C85.7016 44.7948 84.4859 45.5421 83.3177 45.5421C82.6777 45.5421 82.1935 45.4106 81.865 45.1512C81.5366 44.8882 81.2995 44.6288 81.1505 44.3658C80.7679 43.6566 80.7036 42.7675 80.9575 41.7054C81.0659 41.183 81.242 40.6467 81.479 40.0932C81.716 39.5431 82.0106 38.9861 82.356 38.4257C83.3448 36.855 84.4588 35.613 85.7016 34.6996C86.2501 34.3087 86.7818 34.0043 87.2931 33.7898C87.8044 33.5753 88.2717 33.468 88.6916 33.468C89.1657 33.468 89.5381 33.551 89.8023 33.7206C90.0664 33.8901 90.2628 34.0665 90.3915 34.2533C90.5912 34.5163 90.7199 34.8242 90.7741 35.1771C90.9197 34.9522 91.0382 34.755 91.1296 34.5889C91.2211 34.4194 91.3125 34.2707 91.4039 34.1392C91.4784 33.9904 91.5597 33.859 91.6511 33.7482C91.7256 33.6375 91.8238 33.5649 91.9525 33.5372C92.0812 33.5095 92.1997 33.5337 92.3081 33.6064C92.4164 33.6825 92.4909 33.7828 92.5282 33.9143C92.5654 34.0458 92.5383 34.1669 92.4469 34.2776C92.4469 34.2949 92.2098 34.6824 91.7324 35.44C91.2583 36.1977 90.6624 37.2009 89.9513 38.4533C89.4772 39.294 89.0912 40.0378 88.8 40.6813C88.5087 41.3248 88.292 41.8853 88.1566 42.3627C88.0177 42.8401 87.9399 43.2276 87.9229 43.5252C87.906 43.8227 87.9399 44.0406 88.0313 44.1686C88.0482 44.2067 88.0889 44.2586 88.1532 44.3243C88.2175 44.3901 88.3597 44.4212 88.5798 44.4212C88.6713 44.4212 88.8372 44.3589 89.0742 44.2378C89.3113 44.1168 89.66 43.8331 90.1172 43.3833C90.4456 43.065 90.7741 42.7052 91.106 42.3039C91.4344 41.9026 91.7561 41.5151 92.0642 41.1415C92.1184 41.0861 92.1692 41.0308 92.2166 40.972C92.2606 40.9166 92.3047 40.8612 92.3385 40.8024C92.43 40.709 92.5383 40.6537 92.667 40.6329C92.7957 40.6225 92.9142 40.6606 93.0225 40.754ZM86.4161 42.4631C86.8732 41.9026 87.2389 41.394 87.5132 40.9373C87.7875 40.4807 87.9331 40.242 87.9534 40.2212C87.9534 40.2039 87.9568 40.1935 87.9669 40.1935C87.9771 40.1935 87.9805 40.1832 87.9805 40.1659C88.2548 39.5327 88.6374 38.7924 89.1318 37.9517C89.2232 37.7822 89.318 37.6161 89.4196 37.4466C89.5212 37.2771 89.616 37.1214 89.7075 36.9692V36.9138C89.7244 36.8204 89.7515 36.6855 89.7887 36.509C89.826 36.3326 89.8463 36.1458 89.8564 35.9486C89.8666 35.7514 89.8564 35.5576 89.8294 35.3604C89.8023 35.1632 89.7345 34.9902 89.6228 34.8415C89.423 34.5785 89.1115 34.4505 88.6916 34.4505C88.4342 34.4505 88.0956 34.5301 87.6757 34.6893C87.2558 34.8484 86.7987 35.1079 86.3043 35.4746C85.8099 35.8379 85.2885 36.3049 84.7399 36.8757C84.1913 37.4466 83.6597 38.142 83.1484 38.9619C82.5084 39.9894 82.0885 40.9685 81.8853 41.9026C81.7194 42.7813 81.7567 43.4421 81.9937 43.8919C82.2138 44.3416 82.6506 44.5631 83.3109 44.5631C84.2286 44.5631 85.2614 43.8642 86.4161 42.4631Z" fill="#767676"/>
<path d="M101.826 40.7539C101.917 40.8473 101.972 40.958 101.992 41.0895C102.009 41.2209 101.975 41.342 101.884 41.4527C101.846 41.4908 101.802 41.5357 101.745 41.5911C101.691 41.6465 101.643 41.7018 101.609 41.7606C100.77 42.8054 100.001 43.6772 99.3067 44.3656C98.6125 45.0576 97.9725 45.4035 97.3867 45.4035C96.8754 45.4035 96.4995 45.1994 96.2625 44.7877C96.0255 44.338 96.0255 43.6876 96.2625 42.8262C96.4995 41.9855 97.0109 40.8646 97.7998 39.4635C97.9454 39.2006 97.9556 38.7785 97.8269 38.1904C97.6983 37.6023 97.4443 36.9069 97.0583 36.1043C96.5639 36.8135 95.9916 37.6092 95.3449 38.4844C94.6947 39.3632 93.943 40.3422 93.0829 41.425C92.9915 41.5358 92.8831 41.6015 92.7544 41.6222C92.6258 41.6395 92.5174 41.6049 92.426 41.5115C92.3176 41.4181 92.2533 41.3074 92.233 41.1759C92.216 41.0445 92.2499 40.9234 92.3413 40.8127C94.1699 38.4775 95.5683 36.5921 96.5368 35.1529C96.3709 34.8 96.3268 34.3745 96.398 33.8798C96.4725 33.3851 96.5537 32.9803 96.6452 32.6621C96.6824 32.5686 96.7332 32.4233 96.7975 32.2262C96.8619 32.029 96.9499 31.8214 97.0583 31.5965C97.1666 31.3716 97.2919 31.1468 97.4274 30.9254C97.5662 30.7005 97.7253 30.5137 97.9082 30.3649C98.108 30.1954 98.3213 30.1089 98.538 30.0986C98.7581 30.0882 98.9579 30.1677 99.1408 30.3373C99.5234 30.6728 99.6081 31.2264 99.388 31.9909C99.1882 32.5894 98.8123 33.347 98.2637 34.2604C98.1723 34.4091 98.0775 34.5648 97.9759 34.7239C97.8743 34.8831 97.7694 35.0457 97.661 35.2152C98.8496 37.4397 99.1679 39.0241 98.6193 39.979C98.1452 40.8196 97.7931 41.5115 97.5628 42.0512C97.3325 42.5944 97.1836 43.0268 97.1091 43.3554C97.0346 43.6841 97.0075 43.9159 97.0278 44.0543C97.0447 44.1961 97.065 44.2826 97.082 44.3207C97.0989 44.338 97.126 44.3622 97.1632 44.3899C97.2005 44.4175 97.2716 44.4314 97.3833 44.4314C97.4748 44.4314 97.6407 44.3691 97.8777 44.248C98.1148 44.1269 98.4534 43.8433 98.8936 43.3935C99.239 43.0752 99.5776 42.7155 99.9094 42.3141C100.238 41.9128 100.56 41.5254 100.868 41.1517C100.905 41.0964 100.949 41.041 101.007 40.9822C101.061 40.9269 101.108 40.8715 101.145 40.8127C101.237 40.7193 101.345 40.6639 101.474 40.6432C101.599 40.6224 101.718 40.6605 101.826 40.7539ZM97.3833 33.8591C97.4003 33.821 97.4138 33.8002 97.424 33.7899C97.4341 33.7795 97.4477 33.7587 97.4646 33.7207C97.7558 33.2363 97.9759 32.835 98.1215 32.5168C98.2671 32.1985 98.3789 31.939 98.45 31.7314C98.5245 31.5273 98.5583 31.3786 98.5583 31.2817C98.5583 31.1883 98.5482 31.1226 98.5313 31.0845C98.4568 31.1399 98.3518 31.2609 98.2163 31.4478C98.0775 31.6346 97.9387 31.9148 97.7897 32.2884C97.6813 32.5686 97.5933 32.8454 97.529 33.1153C97.4714 33.3886 97.4206 33.6342 97.3833 33.8591Z" fill="#767676"/>
<path d="M112.932 40.754C113.024 40.8474 113.078 40.9581 113.098 41.0896C113.115 41.221 113.081 41.3421 112.99 41.4528C112.953 41.4909 112.912 41.5359 112.868 41.5912C112.824 41.6466 112.773 41.7019 112.716 41.7607C111.876 42.8055 111.107 43.6774 110.413 44.3658C109.719 45.0578 109.079 45.4037 108.493 45.4037C108.073 45.4037 107.758 45.3242 107.548 45.165C107.338 45.0059 107.186 44.8433 107.095 44.6738C106.895 44.3001 106.82 43.8434 106.875 43.3003C105.611 44.7948 104.396 45.5421 103.228 45.5421C102.588 45.5421 102.103 45.4106 101.775 45.1512C101.446 44.8882 101.209 44.6288 101.06 44.3658C100.678 43.6566 100.613 42.7675 100.867 41.7054C100.976 41.183 101.152 40.6467 101.389 40.0932C101.626 39.5431 101.921 38.9861 102.266 38.4257C103.255 36.855 104.369 35.613 105.611 34.6996C106.16 34.3087 106.692 34.0043 107.203 33.7898C107.714 33.5753 108.182 33.468 108.601 33.468C109.076 33.468 109.448 33.551 109.712 33.7206C109.976 33.8901 110.173 34.0665 110.301 34.2533C110.501 34.5163 110.63 34.8242 110.684 35.1771C110.83 34.9522 110.948 34.755 111.04 34.5889C111.131 34.4194 111.222 34.2707 111.314 34.1392C111.388 33.9904 111.47 33.859 111.561 33.7482C111.635 33.6375 111.734 33.5649 111.862 33.5372C111.991 33.5095 112.11 33.5337 112.218 33.6064C112.326 33.6825 112.401 33.7828 112.438 33.9143C112.475 34.0458 112.448 34.1669 112.357 34.2776C112.357 34.2949 112.12 34.6824 111.642 35.44C111.168 36.1977 110.572 37.2009 109.861 38.4533C109.387 39.294 109.001 40.0378 108.71 40.6813C108.419 41.3248 108.202 41.8853 108.066 42.3627C107.931 42.8401 107.85 43.2276 107.833 43.5252C107.816 43.8227 107.85 44.0406 107.941 44.1686C107.958 44.2067 107.999 44.2586 108.063 44.3243C108.127 44.3901 108.27 44.4212 108.49 44.4212C108.581 44.4212 108.747 44.3589 108.984 44.2378C109.221 44.1168 109.57 43.8331 110.027 43.3833C110.355 43.065 110.684 42.7052 111.016 42.3039C111.344 41.9026 111.666 41.5151 111.974 41.1415C112.028 41.0861 112.079 41.0308 112.126 40.972C112.17 40.9166 112.215 40.8612 112.248 40.8024C112.34 40.709 112.448 40.6537 112.577 40.6329C112.706 40.6225 112.824 40.6606 112.932 40.754ZM106.323 42.4631C106.78 41.9026 107.145 41.394 107.42 40.9373C107.694 40.4807 107.84 40.242 107.86 40.2212C107.86 40.2039 107.863 40.1935 107.873 40.1935C107.884 40.1935 107.887 40.1832 107.887 40.1659C108.161 39.5327 108.544 38.7924 109.038 37.9517C109.13 37.7822 109.225 37.6161 109.326 37.4466C109.428 37.2771 109.522 37.1214 109.614 36.9692V36.9138C109.631 36.8204 109.658 36.6855 109.695 36.509C109.732 36.3326 109.753 36.1458 109.763 35.9486C109.773 35.7514 109.763 35.5576 109.736 35.3604C109.709 35.1632 109.641 34.9902 109.529 34.8415C109.329 34.5785 109.018 34.4505 108.598 34.4505C108.341 34.4505 108.002 34.5301 107.582 34.6893C107.162 34.8484 106.705 35.1079 106.211 35.4746C105.716 35.8379 105.195 36.3049 104.646 36.8757C104.098 37.4466 103.566 38.142 103.055 38.9619C102.415 39.9894 101.995 40.9685 101.792 41.9026C101.626 42.7813 101.663 43.4421 101.9 43.8919C102.12 44.3416 102.557 44.5631 103.217 44.5631C104.138 44.5631 105.171 43.8642 106.323 42.4631Z" fill="#767676"/>
<path d="M124.285 40.7538C124.393 40.8472 124.458 40.9579 124.478 41.0894C124.495 41.2209 124.461 41.3419 124.37 41.4526C124.332 41.4907 124.302 41.5288 124.275 41.5634C124.248 41.6014 124.214 41.6395 124.18 41.6741C123.997 41.8989 123.764 42.1792 123.479 42.5147C123.195 42.8503 122.866 43.1998 122.49 43.5665C122.115 43.9297 121.708 44.2895 121.271 44.6459C120.831 45.0022 120.357 45.2997 119.846 45.5419C119.497 45.7114 119.141 45.8602 118.776 45.9917C118.41 46.1231 118.044 46.2546 117.679 46.3826C117.184 47.2786 116.646 48.0536 116.06 48.7074C115.22 49.6415 114.431 50.1536 113.7 50.247C113.663 50.247 113.625 50.2504 113.591 50.2608C113.554 50.2712 113.517 50.2746 113.483 50.2746C113.009 50.2746 112.633 50.0878 112.359 49.7142C112.139 49.472 112.074 49.126 112.166 48.6763C112.257 48.2646 112.477 47.8771 112.823 47.5139C113.172 47.1506 113.608 46.8358 114.14 46.5763C114.485 46.4276 114.861 46.2857 115.264 46.1542C115.667 46.0228 116.077 45.8844 116.497 45.7356C116.588 45.6976 116.676 45.6699 116.758 45.6526C116.839 45.6353 116.927 45.6042 117.018 45.5696C117.093 45.4208 117.161 45.2721 117.225 45.1198C117.289 44.9711 117.357 44.8223 117.431 44.6701C117.448 44.632 117.496 44.5144 117.567 44.3207C117.641 44.1235 117.75 43.8571 117.895 43.5215C116.578 44.8673 115.39 45.5385 114.33 45.5385C113.69 45.5385 113.205 45.407 112.877 45.1475C112.549 44.8846 112.311 44.6251 112.162 44.3622C111.78 43.653 111.716 42.7638 111.969 41.7017C112.078 41.1793 112.254 40.6431 112.491 40.0896C112.728 39.5395 113.023 38.9825 113.368 38.422C114.357 36.8514 115.471 35.6094 116.714 34.6961C117.262 34.3051 117.79 34.0007 118.305 33.7862C118.816 33.5717 119.284 33.4644 119.704 33.4644C120.178 33.4644 120.55 33.5475 120.814 33.717C121.078 33.8865 121.275 34.063 121.403 34.2498C121.512 34.3812 121.613 34.5577 121.705 34.7825C121.796 34.5784 121.888 34.3812 121.979 34.1944C122.071 34.0076 122.162 33.8104 122.253 33.6063C122.399 33.326 122.619 33.2499 122.91 33.3814C123.019 33.4368 123.097 33.5302 123.144 33.6616C123.188 33.7931 123.185 33.9142 123.13 34.0249C122.873 34.568 122.622 35.1043 122.375 35.6371C122.128 36.1698 121.877 36.7061 121.62 37.2492L121.593 37.3046C121.136 38.3321 120.706 39.3077 120.303 40.2314C119.9 41.1551 119.555 41.9785 119.26 42.6981C118.969 43.4177 118.735 43.9885 118.559 44.4072C118.386 44.8258 118.298 45.0472 118.298 45.0645C118.298 45.1025 118.288 45.1198 118.271 45.1198C118.471 45.0437 118.664 44.9711 118.847 44.8949C119.03 44.8188 119.213 44.7358 119.395 44.6424C119.853 44.4175 120.286 44.1477 120.699 43.8294C121.109 43.5111 121.488 43.179 121.837 42.833C122.182 42.4871 122.49 42.155 122.755 41.8401C123.019 41.5219 123.242 41.252 123.425 41.0271C123.462 40.9891 123.493 40.951 123.52 40.9164C123.547 40.8784 123.577 40.8438 123.615 40.8057C123.706 40.7123 123.814 40.6569 123.943 40.6362C124.085 40.6223 124.194 40.6604 124.285 40.7538ZM117.621 42.404C118.078 41.8816 118.461 41.4008 118.772 40.9614C119.084 40.522 119.257 40.2556 119.294 40.1622C119.514 39.6571 119.748 39.1312 119.995 38.5777C120.242 38.0276 120.493 37.4603 120.75 36.8825C120.767 36.7718 120.794 36.63 120.831 36.4639C120.868 36.2944 120.885 36.1145 120.885 35.9173C120.885 35.7201 120.872 35.5264 120.845 35.3292C120.818 35.132 120.75 34.9694 120.638 34.8379C120.438 34.575 120.127 34.4469 119.707 34.4469C119.45 34.4469 119.111 34.5265 118.691 34.6857C118.271 34.8448 117.814 35.1043 117.32 35.471C116.825 35.8343 116.304 36.3013 115.755 36.8721C115.207 37.443 114.675 38.1384 114.164 38.9583C113.524 39.9858 113.104 40.9649 112.901 41.8989C112.735 42.7777 112.772 43.4385 113.009 43.8882C113.229 44.338 113.666 44.5594 114.326 44.5594C114.783 44.5594 115.285 44.376 115.833 44.0128C116.388 43.653 116.981 43.1167 117.621 42.404ZM115.346 48.0363C115.511 47.8668 115.671 47.6799 115.826 47.4758C115.982 47.2717 116.131 47.0538 116.28 46.8323C115.623 47.0365 115.048 47.2544 114.553 47.4758C114.113 47.6799 113.771 47.9186 113.524 48.192C113.277 48.4618 113.134 48.7005 113.097 48.9081C113.08 49.0188 113.08 49.0845 113.097 49.1053C113.134 49.1607 113.189 49.2125 113.263 49.261C113.338 49.3059 113.446 49.3129 113.591 49.2748C114.103 49.216 114.689 48.8043 115.346 48.0363Z" fill="#767676"/>
<path d="M133.228 40.6952C133.32 40.7886 133.37 40.8993 133.38 41.0307C133.391 41.1622 133.35 41.2729 133.259 41.3663C133.242 41.4044 133.038 41.6292 132.656 42.0375C132.273 42.4492 131.758 42.9058 131.118 43.4109C129.344 44.774 127.736 45.4556 126.293 45.4556C125.524 45.4556 124.945 45.3172 124.553 45.037C124.16 44.7567 123.872 44.4661 123.689 44.1686C123.34 43.5528 123.242 42.7813 123.388 41.8576C123.533 40.9339 123.926 39.9098 124.566 38.7889C125.46 37.1629 126.435 35.8379 127.488 34.8104C128.538 33.7828 129.53 33.1843 130.465 33.0183C131.179 32.9076 131.772 33.0459 132.246 33.4403C132.612 33.7586 132.812 34.1876 132.849 34.7308C132.866 35.2912 132.693 35.914 132.327 36.5955C131.962 37.277 131.43 37.9724 130.736 38.6817C129.967 39.4843 129.154 40.0724 128.294 40.4461C127.58 40.7643 126.896 40.9235 126.239 40.9235C125.911 40.9235 125.616 40.8958 125.362 40.8405C125.105 40.7851 124.895 40.7194 124.732 40.6433C124.641 40.8854 124.563 41.1138 124.498 41.3282C124.434 41.5427 124.383 41.7538 124.346 41.9579C124.238 42.7052 124.299 43.276 124.539 43.6669C124.83 44.2101 125.416 44.4799 126.293 44.4799C127.041 44.4799 127.786 44.2897 128.528 43.9057C129.27 43.5216 129.937 43.0996 130.529 42.6325C131.122 42.1655 131.606 41.7365 131.982 41.3421C132.358 40.9512 132.544 40.7436 132.544 40.7263C132.635 40.6329 132.744 40.581 132.873 40.5706C132.998 40.5602 133.116 40.6017 133.228 40.6952ZM125.382 39.2663C125.345 39.3597 125.301 39.4428 125.247 39.5189C125.193 39.595 125.145 39.678 125.108 39.7714C125.254 39.8095 125.423 39.8475 125.616 39.8821C125.809 39.9202 126.032 39.9375 126.286 39.9375C127.549 39.9202 128.809 39.2732 130.072 38.0036C130.658 37.4051 131.108 36.8238 131.43 36.253C131.748 35.6822 131.901 35.1944 131.884 34.7827C131.847 34.5405 131.765 34.3433 131.637 34.1945C131.379 33.9697 131.041 33.9039 130.621 33.9973C130.255 34.0527 129.862 34.2188 129.442 34.4886C129.022 34.7585 128.592 35.1113 128.152 35.5403C127.167 36.5125 126.242 37.7545 125.382 39.2663Z" fill="#767676"/>
<path d="M43.3224 65.2165C43.2614 65.2165 43.2005 65.1889 43.1598 65.1335C43.0921 65.0401 43.109 64.9086 43.2005 64.8394C44.5346 63.8155 45.9263 62.6808 47.4569 61.3697C47.5449 61.2971 47.6736 61.3075 47.7447 61.3974C47.8158 61.4874 47.8057 61.6188 47.7176 61.6915C46.1803 63.006 44.7818 64.1442 43.4443 65.175C43.407 65.2027 43.363 65.2165 43.3224 65.2165Z" fill="#767676"/>
<path d="M39.7497 68.123C39.6887 68.123 39.6312 68.0953 39.5905 68.0434C39.5194 67.9535 39.5363 67.822 39.6244 67.7494L40.5251 67.016C40.6132 66.9434 40.7418 66.9572 40.8129 67.0506C40.884 67.1405 40.8705 67.272 40.7791 67.3447L39.8783 68.078C39.8377 68.1092 39.7937 68.123 39.7497 68.123Z" fill="#767676"/>
<path d="M39.6376 62.1793C39.5428 62.1793 39.4581 62.1101 39.4378 62.0132C39.4141 61.899 39.4852 61.7883 39.5969 61.7676C40.7821 61.5185 42.0418 61.2106 43.4505 60.83C43.5588 60.7989 43.6706 60.868 43.701 60.9788C43.7315 61.0895 43.6638 61.2037 43.5554 61.2348C42.1434 61.6154 40.8735 61.9267 39.6816 62.1758C39.6647 62.1793 39.6511 62.1793 39.6376 62.1793Z" fill="#767676"/>
<path d="M36.4034 62.9646C36.3119 62.9646 36.2273 62.8988 36.2036 62.8055C36.1765 62.6948 36.2442 62.5806 36.356 62.553L37.172 62.3558C37.2804 62.3316 37.3921 62.3973 37.4192 62.5115C37.4463 62.6222 37.3786 62.7363 37.2668 62.764L36.4508 62.9611C36.4339 62.9646 36.4169 62.9646 36.4034 62.9646Z" fill="#767676"/>
<path d="M105.322 62.9057C105.308 62.9057 105.295 62.9057 105.281 62.9023C103.852 62.6185 102.583 62.3314 101.397 62.0269C101.289 61.9992 101.221 61.885 101.248 61.7743C101.275 61.6636 101.387 61.5944 101.496 61.6221C102.674 61.9266 103.94 62.2103 105.359 62.494C105.471 62.5147 105.542 62.6255 105.522 62.7397C105.505 62.8365 105.417 62.9057 105.322 62.9057Z" fill="#767676"/>
<path d="M99.0207 61.4839C99.0072 61.4839 98.9903 61.4839 98.9767 61.4805L98.1606 61.2971C98.0489 61.2728 97.9811 61.1621 98.0048 61.0479C98.0285 60.9371 98.1369 60.8645 98.2487 60.8887L99.0648 61.0721C99.1765 61.0963 99.2442 61.2071 99.2205 61.3213C99.2002 61.4182 99.1155 61.4839 99.0207 61.4839Z" fill="#767676"/>
<path d="M58.5928 63.826C58.559 63.826 58.5217 63.8157 58.4913 63.7984C58.3931 63.7395 58.3592 63.6115 58.4168 63.5112L59.1922 62.148C59.2497 62.0477 59.375 62.0131 59.4732 62.0719C59.5714 62.1307 59.6053 62.2588 59.5477 62.3591L58.7723 63.7222C58.7317 63.788 58.6606 63.826 58.5928 63.826Z" fill="#767676"/>
<path d="M49.5801 77.7095C49.5428 77.7095 49.5022 77.6991 49.4683 77.6749C49.3735 77.6126 49.3498 77.4811 49.4108 77.3842L57.1989 65.3761C57.2633 65.2792 57.3886 65.255 57.4834 65.3173C57.5782 65.3795 57.6019 65.511 57.5409 65.6079L49.7528 77.616C49.7121 77.6783 49.6478 77.7095 49.5801 77.7095Z" fill="#767676"/>
<path d="M61.4811 82.9819C61.4676 82.9819 61.4506 82.9819 61.4371 82.9785C61.3253 82.9542 61.2576 82.8435 61.2813 82.7294C62.2295 78.3531 63.3842 73.9663 64.5016 69.7249C65.2059 67.0541 65.9306 64.2934 66.5976 61.5638C66.6247 61.4531 66.7365 61.3839 66.8448 61.4116C66.9532 61.4393 67.0209 61.5535 66.9938 61.6642C66.3267 64.3972 65.5987 67.1579 64.8944 69.8322C63.7769 74.0701 62.6256 78.4499 61.6775 82.8159C61.6606 82.9162 61.5759 82.9819 61.4811 82.9819Z" fill="#767676"/>
<path d="M44.6392 73.8454C44.5918 73.8454 44.5444 73.8281 44.5071 73.7935C44.4225 73.7174 44.4123 73.586 44.4834 73.4995L51.2456 65.4319C51.3201 65.3454 51.4488 65.335 51.5335 65.4076C51.6181 65.4837 51.6283 65.6152 51.5572 65.7017L44.7949 73.7693C44.7543 73.8212 44.6967 73.8454 44.6392 73.8454Z" fill="#767676"/>
<path d="M55.6435 80.2248C55.6198 80.2248 55.5961 80.2213 55.5724 80.2109C55.4674 80.1694 55.4132 80.0518 55.4505 79.9411C56.9506 75.8069 58.7385 71.7176 60.4654 67.7633C61.0174 66.5041 61.5659 65.2413 62.1111 63.9785C62.1551 63.8747 62.277 63.8263 62.382 63.8713C62.487 63.9163 62.531 64.0408 62.487 64.1481C61.9452 65.4143 61.3932 66.6736 60.8413 67.9363C59.1177 71.8837 57.3332 75.9695 55.8365 80.0898C55.806 80.1729 55.7281 80.2248 55.6435 80.2248Z" fill="#767676"/>
<path d="M52.8499 63.7325C52.8025 63.7325 52.7585 63.7152 52.7178 63.684C52.6298 63.6114 52.6196 63.4799 52.6908 63.39L54.3432 61.3764C54.4143 61.2865 54.5464 61.2761 54.6311 61.3488C54.7191 61.4214 54.7293 61.5529 54.6581 61.6428L53.0057 63.6564C52.965 63.7083 52.9075 63.7325 52.8499 63.7325Z" fill="#767676"/>
<path d="M55.6435 80.2248C55.6198 80.2248 55.5961 80.2213 55.5724 80.2109C55.4674 80.1694 55.4132 80.0518 55.4505 79.9411C56.9506 75.8069 58.7385 71.7176 60.4654 67.7633C61.0174 66.5041 61.5659 65.2413 62.1111 63.9785C62.1551 63.8747 62.277 63.8263 62.382 63.8713C62.487 63.9163 62.531 64.0408 62.487 64.1481C61.9452 65.4143 61.3932 66.6736 60.8413 67.9363C59.1177 71.8837 57.3332 75.9695 55.8365 80.0898C55.806 80.1729 55.7281 80.2248 55.6435 80.2248Z" fill="#767676"/>
<path d="M76.2527 84.6323C76.1511 84.6323 76.0631 84.5527 76.0495 84.4489C75.5754 80.3597 75.2368 76.1874 74.9084 72.1536C74.6273 68.7009 74.3361 65.1272 73.9636 61.6261C73.9501 61.5119 74.0314 61.4081 74.1431 61.3977C74.2548 61.3839 74.3564 61.4669 74.37 61.5811C74.7425 65.0891 75.0337 68.6629 75.3147 72.119C75.6432 76.1494 75.9818 80.3182 76.4559 84.4005C76.4694 84.5146 76.3881 84.6184 76.2764 84.6323C76.2696 84.6323 76.2628 84.6323 76.2527 84.6323Z" fill="#767676"/>
<path d="M83.5027 83.3659C83.4113 83.3659 83.3266 83.3037 83.3029 83.2068C82.2126 78.7059 80.8852 74.1842 79.6018 69.8148C79.0228 67.8428 78.4234 65.8051 77.8545 63.7917C77.824 63.681 77.885 63.5633 77.9934 63.5322C78.1017 63.501 78.2168 63.5633 78.2473 63.674C78.8162 65.684 79.4156 67.7217 79.9912 69.6902C81.2746 74.0666 82.6054 78.5883 83.6957 83.103C83.7228 83.2137 83.6551 83.3279 83.5467 83.3555C83.5366 83.3625 83.5196 83.3659 83.5027 83.3659Z" fill="#767676"/>
<path d="M91.8839 79.9752C91.8094 79.9752 91.7383 79.9337 91.701 79.8611C90.5158 77.4947 89.3307 75.08 88.1862 72.7447C86.5236 69.3544 84.8068 65.8498 83.0561 62.4386C83.0053 62.3349 83.0426 62.2103 83.1408 62.1584C83.2424 62.1065 83.3643 62.1446 83.4151 62.2449C85.1691 65.663 86.8859 69.1675 88.5485 72.5579C89.693 74.8931 90.8782 77.3079 92.0599 79.6708C92.1107 79.7746 92.0701 79.8991 91.9719 79.951C91.9482 79.9683 91.9177 79.9752 91.8839 79.9752Z" fill="#767676"/>
<path d="M96.7143 64.653C96.6635 64.653 96.6127 64.6357 96.5755 64.5941L93.5719 61.6882C93.4906 61.6086 93.4873 61.4771 93.5651 61.3941C93.643 61.311 93.7717 61.3076 93.853 61.3872L96.8565 64.2932C96.9378 64.3727 96.9412 64.5042 96.8633 64.5872C96.8227 64.6322 96.7685 64.653 96.7143 64.653Z" fill="#767676"/>
<path d="M101.763 69.9979C101.709 69.9979 101.655 69.9771 101.617 69.9356L100.263 68.5032C100.185 68.4202 100.185 68.2887 100.266 68.2091C100.348 68.1295 100.476 68.133 100.554 68.2125L101.909 69.645C101.987 69.728 101.987 69.8595 101.905 69.9391C101.865 69.9806 101.814 69.9979 101.763 69.9979Z" fill="#767676"/>
<path d="M68.7036 78.5774C68.6968 78.5774 68.6935 78.5774 68.6867 78.5774C68.575 78.567 68.4903 78.4667 68.5005 78.3525C68.8695 73.6302 69.198 69.4995 69.5095 65.7251C69.5197 65.6109 69.6213 65.5313 69.7296 65.5348C69.8413 65.5452 69.926 65.6455 69.9158 65.7597C69.6077 69.5341 69.2759 73.6648 68.9068 78.3871C68.9 78.4944 68.812 78.5774 68.7036 78.5774Z" fill="#767676"/>
<path d="M68.2243 84.677C68.2175 84.677 68.2141 84.677 68.2073 84.677C68.0956 84.6667 68.0109 84.5663 68.0211 84.4522L68.4511 79.263C68.4613 79.1488 68.5629 79.0657 68.6712 79.0727C68.783 79.083 68.8676 79.1834 68.8575 79.2975L68.4274 84.4867C68.4207 84.594 68.3292 84.677 68.2243 84.677Z" fill="#767676"/>
<path d="M97.2639 75.7441C97.1996 75.7441 97.1386 75.713 97.098 75.6576C93.705 70.8591 90.3426 66.1472 87.102 61.6463C87.0343 61.5529 87.0546 61.4214 87.146 61.3557C87.2374 61.2865 87.3661 61.3072 87.4304 61.4006C90.6676 65.9016 94.0301 70.617 97.4265 75.4154C97.4942 75.5089 97.4739 75.6403 97.379 75.706C97.3486 75.7303 97.3046 75.7441 97.2639 75.7441Z" fill="#767676"/>
<path d="M91.544 27.4625C91.4864 27.4625 91.4289 27.4383 91.3882 27.3898C91.3138 27.3033 91.3273 27.1684 91.4119 27.0957L104.486 15.8002C104.574 15.7241 104.703 15.7379 104.774 15.8244C104.848 15.9109 104.835 16.0458 104.75 16.1185L91.6761 27.414C91.6388 27.4452 91.5914 27.4625 91.544 27.4625Z" fill="#767676"/>
<path d="M84.2741 22.6362C84.2403 22.6362 84.203 22.6258 84.1725 22.6085C84.0743 22.5497 84.0405 22.4217 84.098 22.3214L84.8803 20.9514C84.9378 20.8511 85.0631 20.82 85.1613 20.8753C85.2595 20.9341 85.2934 21.0621 85.2358 21.1625L84.4536 22.5324C84.413 22.5982 84.3419 22.6362 84.2741 22.6362Z" fill="#767676"/>
<path d="M86.2793 19.3877C86.2421 19.3877 86.2014 19.3773 86.1676 19.3531C86.0727 19.2909 86.049 19.1594 86.11 19.0625L93.8982 7.05405C93.9626 6.95718 94.0879 6.93297 94.1827 6.99524C94.2775 7.05752 94.3012 7.18899 94.2402 7.28586L86.452 19.2943C86.408 19.3531 86.3436 19.3877 86.2793 19.3877Z" fill="#767676"/>
<path d="M77.7889 19.9481C77.772 19.9481 77.755 19.9446 77.7381 19.9411C77.6297 19.9135 77.562 19.7993 77.5891 19.6886C77.9582 18.1975 78.3307 16.71 78.7032 15.2224C79.8003 10.846 80.9313 6.32442 81.9607 1.8547C81.9878 1.74399 82.0961 1.67134 82.2079 1.69902C82.3163 1.72669 82.3874 1.83739 82.3603 1.95156C81.3309 6.42474 80.1965 10.9533 79.0994 15.3296C78.7269 16.8172 78.3544 18.3082 77.9853 19.7959C77.9616 19.8858 77.8803 19.9481 77.7889 19.9481Z" fill="#767676"/>
<path d="M96.2521 14.5341C96.2047 14.5341 96.1573 14.5169 96.12 14.4823C96.0354 14.4062 96.0252 14.2747 96.0963 14.1882L98.8527 10.8982C98.9272 10.8117 99.0559 10.8013 99.1405 10.874C99.2252 10.9501 99.2353 11.0815 99.1642 11.168L96.4078 14.458C96.3672 14.5099 96.3096 14.5341 96.2521 14.5341Z" fill="#767676"/>
<path d="M86.0918 9.54486C86.0681 9.54486 86.041 9.54141 86.0173 9.53103C85.9123 9.48952 85.8615 9.36842 85.9022 9.26118C86.1663 8.57966 86.4575 7.90505 86.7352 7.25121C87.1246 6.34136 87.4937 5.4834 87.8086 4.58739C87.8458 4.48014 87.9643 4.42133 88.0693 4.46285C88.1743 4.5009 88.2318 4.62199 88.1912 4.72924C87.8695 5.63909 87.4835 6.54547 87.1076 7.42072C86.83 8.06765 86.5422 8.7388 86.278 9.41686C86.2476 9.49643 86.1731 9.54486 86.0918 9.54486Z" fill="#767676"/>
<path d="M95.9123 27.7181C95.8379 27.7181 95.7667 27.6766 95.7329 27.6074C95.6821 27.5036 95.7193 27.3791 95.8175 27.3272L104.811 22.508C104.913 22.4561 105.035 22.4942 105.086 22.5945C105.136 22.6983 105.099 22.8228 105.001 22.8747L96.0072 27.6939C95.9767 27.7112 95.9462 27.7181 95.9123 27.7181Z" fill="#767676"/>
<path d="M105.455 22.5913C105.38 22.5913 105.309 22.5498 105.275 22.4806C105.221 22.3768 105.262 22.2523 105.36 22.2004L107.585 21.0102C107.686 20.9583 107.808 20.9964 107.859 21.0967C107.913 21.2005 107.872 21.3251 107.774 21.377L105.549 22.5706C105.522 22.5844 105.488 22.5913 105.455 22.5913Z" fill="#767676"/>
<path d="M100.514 29.2163C100.43 29.2163 100.348 29.1609 100.321 29.0744C100.284 28.9637 100.342 28.8461 100.45 28.8081L107.974 26.1963C108.079 26.1617 108.198 26.217 108.235 26.3277C108.272 26.4384 108.215 26.5561 108.106 26.5941L100.582 29.2059C100.558 29.2128 100.538 29.2163 100.514 29.2163Z" fill="#767676"/>
<path d="M85.72 27.5488C85.6726 27.5488 85.6286 27.5315 85.588 27.5004C85.4999 27.4277 85.4898 27.2962 85.5609 27.2063L93.3458 17.7099C93.4203 17.62 93.5489 17.6096 93.6336 17.6822C93.7216 17.7549 93.7318 17.8863 93.6607 17.9763L85.8758 27.4727C85.8385 27.5211 85.781 27.5488 85.72 27.5488Z" fill="#767676"/>
<path d="M81.5513 20.8162C81.5242 20.8162 81.4972 20.8093 81.4701 20.7989C81.3651 20.7539 81.3211 20.6294 81.3651 20.5221C82.767 17.2564 84.0131 14.302 85.0967 11.2334C85.1339 11.1261 85.2524 11.0673 85.3574 11.1088C85.4624 11.1469 85.5199 11.268 85.4793 11.3752C84.3957 14.4542 83.1428 17.4155 81.7376 20.6882C81.7037 20.7712 81.6292 20.8162 81.5513 20.8162Z" fill="#767676"/>
<path d="M69.4571 22.1996C69.3555 22.1996 69.2674 22.1201 69.2539 22.0128C68.79 17.7541 68.3972 13.4123 68.0213 9.21578C67.7572 6.28205 67.483 3.24799 67.1884 0.265821C67.1782 0.151654 67.2595 0.0478758 67.3712 0.037497C67.4829 0.0271183 67.5845 0.110141 67.5947 0.224307C67.8927 3.20647 68.1636 6.244 68.4277 9.17773C68.8035 13.3708 69.1963 17.7091 69.6602 21.9644C69.6738 22.0786 69.5925 22.1823 69.4808 22.1962C69.474 22.1996 69.4672 22.1996 69.4571 22.1996Z" fill="#767676"/>
<path d="M65.9914 23.1413C65.9034 23.1413 65.8187 23.079 65.795 22.989L62.3716 10.4583C62.3411 10.3476 62.4054 10.2335 62.5138 10.2023C62.6222 10.1712 62.7339 10.2369 62.7644 10.3476L66.1878 22.8783C66.2183 22.989 66.154 23.1032 66.0456 23.1343C66.0253 23.1413 66.0084 23.1413 65.9914 23.1413Z" fill="#767676"/>
<path d="M61.6418 7.20621C61.5538 7.20621 61.4691 7.14393 61.4454 7.05399L59.9487 1.57062C59.9183 1.45992 59.9826 1.34576 60.0909 1.31462C60.1993 1.28349 60.3111 1.34921 60.3415 1.45992L61.8382 6.94328C61.8687 7.05398 61.8043 7.16817 61.696 7.1993C61.6757 7.20276 61.6587 7.20621 61.6418 7.20621Z" fill="#767676"/>
<path d="M62.092 25.3106C62.0175 25.3106 61.9464 25.2691 61.9092 25.1964C58.2927 17.9209 54.9133 11.3165 51.5813 5.00619C51.5272 4.90586 51.5644 4.77785 51.6626 4.7225C51.7608 4.66715 51.8861 4.7052 51.9403 4.80553C55.2723 11.1193 58.6517 17.7271 62.2715 25.0062C62.3223 25.1099 62.2817 25.2345 62.1835 25.2864C62.153 25.3037 62.1225 25.3106 62.092 25.3106Z" fill="#767676"/>
<path d="M54.2603 27.5244C54.2095 27.5244 54.1587 27.5071 54.1214 27.4656L46.7937 20.3805C46.7124 20.301 46.7091 20.1695 46.7869 20.0865C46.8648 20.0034 46.9935 20 47.0748 20.0795L54.4025 27.1646C54.4837 27.2442 54.4871 27.3757 54.4092 27.4587C54.3686 27.5002 54.3144 27.5244 54.2603 27.5244Z" fill="#767676"/>
<path d="M44.6047 18.0695C44.5505 18.0695 44.4963 18.0487 44.459 18.0072L40.1518 13.4439C40.0739 13.3609 40.0773 13.2294 40.1586 13.1499C40.2399 13.0703 40.3685 13.0738 40.4464 13.1568L44.7536 17.72C44.8315 17.8031 44.8281 17.9345 44.7469 18.0141C44.7062 18.0487 44.6554 18.0695 44.6047 18.0695Z" fill="#767676"/>
<path d="M40.6468 27.2719C40.6163 27.2719 40.5858 27.2649 40.5587 27.2511L33.2818 23.6878C33.1802 23.6394 33.1362 23.5148 33.187 23.4076C33.2344 23.3038 33.3597 23.2588 33.4612 23.3107L40.7382 26.874C40.8398 26.9225 40.8838 27.047 40.833 27.1543C40.7992 27.2269 40.7247 27.2719 40.6468 27.2719Z" fill="#767676"/>
<path d="M73.7626 20.5294C73.7592 20.5294 73.7525 20.5294 73.7491 20.5294C73.6373 20.5225 73.5527 20.4221 73.5595 20.308C73.5933 19.7787 73.6272 19.2528 73.6577 18.7235C73.8405 15.7587 74.0301 12.6969 74.3857 9.69402C74.3992 9.57986 74.5008 9.5003 74.6125 9.51067C74.7243 9.52451 74.8056 9.62829 74.792 9.74246C74.4365 12.7315 74.2468 15.7898 74.064 18.7477C74.0301 19.277 73.9997 19.8063 73.9658 20.3322C73.959 20.4429 73.8676 20.5294 73.7626 20.5294Z" fill="#767676"/>
<path d="M74.9922 5.60477C74.9854 5.60477 74.9821 5.60477 74.9753 5.60477C74.8635 5.59439 74.7789 5.49407 74.789 5.3799L75.2191 0.190387C75.2292 0.0762173 75.3342 -0.00335112 75.4392 0.000108562C75.5509 0.0104876 75.6356 0.110806 75.6254 0.224975L75.1954 5.41449C75.1852 5.52174 75.0972 5.60477 74.9922 5.60477Z" fill="#767676"/>
<path d="M47.5476 10.9287C47.4867 10.9287 47.4257 10.9011 47.3851 10.8457C46.8298 10.0985 46.271 9.31664 45.7292 8.55901L45.4109 8.11618C45.3432 8.02278 45.3635 7.89133 45.455 7.8256C45.5464 7.75987 45.6751 7.77717 45.7394 7.87057L46.0577 8.31338C46.5995 9.06755 47.1548 9.8494 47.7102 10.5932C47.7779 10.6866 47.761 10.8146 47.6695 10.8872C47.6357 10.9149 47.5917 10.9287 47.5476 10.9287Z" fill="#767676"/>
<path d="M59.0124 26.8257C58.9514 26.8257 58.8905 26.7981 58.8499 26.7427C56.5676 23.643 54.292 20.4602 52.091 17.3812L50.5334 15.2017C50.4657 15.1083 50.486 14.9768 50.5774 14.9111C50.6688 14.8419 50.7975 14.8626 50.8618 14.9561L52.4195 17.1356C54.6205 20.2145 56.8926 23.3939 59.1749 26.4936C59.2427 26.587 59.2257 26.7185 59.1343 26.7877C59.097 26.8119 59.053 26.8257 59.0124 26.8257Z" fill="#767676"/>
<path d="M47.6693 27.4763C47.6287 27.4763 47.588 27.466 47.5542 27.4383L41.8857 23.4421C41.7943 23.3764 41.7706 23.2449 41.8349 23.1515C41.8992 23.0581 42.0279 23.0339 42.1193 23.0996L47.7878 27.0957C47.8793 27.1615 47.903 27.293 47.8386 27.3864C47.798 27.4452 47.7336 27.4763 47.6693 27.4763Z" fill="#767676"/>
<path d="M40.2976 22.2589C40.2569 22.2589 40.2163 22.2486 40.1824 22.2209L36.7996 19.8339C36.7082 19.7682 36.6845 19.6368 36.7488 19.5433C36.8132 19.4499 36.9419 19.4257 37.0333 19.4914L40.4161 21.8784C40.5075 21.9442 40.5312 22.0756 40.4669 22.169C40.4263 22.2278 40.3619 22.2589 40.2976 22.2589Z" fill="#767676"/>
<path d="M35.7526 54.8883V55.7602C35.7526 56.4106 35.2379 56.9434 34.6013 56.9434H33.2265C33.1249 56.9434 33.047 56.8604 33.047 56.7601V51.9578C33.047 51.854 33.1249 51.7744 33.2265 51.7744H34.4861C35.1227 51.7744 35.6374 52.3072 35.6374 52.9577V53.4386C35.6374 53.6808 35.5731 53.9022 35.441 54.0891C35.6374 54.2967 35.7526 54.5804 35.7526 54.8883ZM33.9172 53.7154H34.4895C34.6419 53.7154 34.7706 53.5839 34.7706 53.4282V52.9196C34.7706 52.757 34.6419 52.6255 34.4895 52.6255H33.9172V53.7154ZM34.8857 54.8468C34.8857 54.6842 34.757 54.5527 34.6046 54.5527H33.9172V56.0889H34.6046C34.757 56.0889 34.8857 55.9574 34.8857 55.7844V54.8468Z" fill="#767676"/>
<path d="M37.4236 52.6134V53.7136H38.0602C38.1618 53.7136 38.2396 53.7932 38.2396 53.897V54.3537C38.2396 54.4575 38.1618 54.537 38.0602 54.537H37.4236V56.0973H38.4293C38.5309 56.0973 38.6087 56.1769 38.6087 56.2807V56.7547C38.6087 56.8585 38.5309 56.938 38.4293 56.938H36.7294C36.6278 56.938 36.5499 56.855 36.5499 56.7547V51.9527C36.5499 51.8489 36.6278 51.7693 36.7294 51.7693H38.4293C38.5309 51.7693 38.6087 51.8523 38.6087 51.9527V52.4266C38.6087 52.5304 38.5309 52.61 38.4293 52.61H37.4236V52.6134Z" fill="#767676"/>
<path d="M41.1117 53.077V52.9213C41.1117 52.7587 40.983 52.6342 40.8238 52.6342H40.492C40.3328 52.6342 40.2042 52.7587 40.2042 52.9213V53.3711C40.2042 53.5337 40.3328 53.6582 40.492 53.6651H40.8238C41.4672 53.6651 41.9819 54.191 41.9819 54.8483V55.7581C41.9819 56.4085 41.4604 56.9413 40.8238 56.9413H40.492C39.8554 56.9413 39.3339 56.4085 39.3339 55.7581V55.1527C39.3339 55.0489 39.4118 54.9694 39.5134 54.9694H40.0179C40.1195 54.9694 40.1974 55.0524 40.1974 55.1527V55.7962C40.1974 55.9588 40.3261 56.0902 40.4852 56.0902H40.8171C40.9762 56.0902 41.1049 55.9588 41.1049 55.7962V54.8344C41.1049 54.6718 40.9762 54.5473 40.8171 54.5473H40.4852C39.8486 54.5404 39.3271 54.0214 39.3271 53.3711V52.949C39.3271 52.2986 39.8486 51.7659 40.4852 51.7659H40.8171C41.4604 51.7659 41.9751 52.2986 41.9751 52.949V53.0736C41.9751 53.1773 41.8939 53.2569 41.7957 53.2569H41.2911C41.1895 53.2638 41.1117 53.1808 41.1117 53.077Z" fill="#767676"/>
<path d="M45.0611 51.9557V52.4435C45.0611 52.5473 44.973 52.6269 44.8816 52.6269H44.2586V56.7576C44.2586 56.8614 44.1807 56.941 44.0791 56.941H43.5712C43.4764 56.941 43.3917 56.858 43.3917 56.7576V52.6269H42.7754C42.6738 52.6269 42.5959 52.5438 42.5959 52.4435V51.9557C42.5959 51.8519 42.6738 51.7723 42.7754 51.7723H44.8782C44.973 51.7689 45.0611 51.8519 45.0611 51.9557Z" fill="#767676"/>
<path d="M49.804 56.0904H50.0918C50.1799 56.0904 50.2645 56.1734 50.2645 56.2737V56.7546C50.2645 56.8584 50.1765 56.9379 50.0749 56.9379H48.6425C48.077 56.9379 47.6233 56.4709 47.6233 55.9035V52.8072C47.6233 52.2294 48.0804 51.7659 48.6425 51.7659H49.2487C49.8142 51.7659 50.2679 52.2329 50.2679 52.8072V55.3569C50.2747 55.6856 50.0783 55.9658 49.804 56.0904ZM49.4044 52.8107C49.4044 52.7069 49.3164 52.6204 49.2148 52.6204H48.6798C48.5782 52.6204 48.4935 52.7103 48.4935 52.8107V55.907C48.4935 56.0039 48.5816 56.0904 48.6798 56.0904H49.4044V52.8107Z" fill="#767676"/>
<path d="M53.103 51.7693H53.6075C53.7091 51.7693 53.787 51.8592 53.787 51.963V55.9969C53.787 56.5124 53.3671 56.9414 52.8626 56.9414H52.0668C51.5588 56.9414 51.1423 56.5124 51.1423 55.9969V51.963C51.1423 51.8592 51.2202 51.7693 51.3218 51.7693H51.8297C51.9313 51.7693 52.0092 51.8592 52.0092 51.963V55.907C52.0092 56.0107 52.0973 56.0903 52.1988 56.0903H52.7339C52.8355 56.0903 52.9235 56.0107 52.9235 55.907V51.963C52.9201 51.8592 53.0014 51.7693 53.103 51.7693Z" fill="#767676"/>
<path d="M57.2174 56.1076V56.758C57.2174 56.8618 57.1362 56.9414 57.038 56.9414H56.5233C56.4285 56.9414 56.3506 56.8583 56.3506 56.758V56.0869H55.3821V56.758C55.3821 56.8618 55.3042 56.9414 55.2027 56.9414H54.6947C54.5931 56.9414 54.5153 56.8583 54.5153 56.758V56.1076C54.5153 56.0765 54.5153 56.0557 54.522 56.0107L55.1451 51.9319C55.1586 51.835 55.2399 51.7693 55.3347 51.7693H56.4183C56.5131 51.7693 56.5842 51.8523 56.5978 51.9319L57.2107 56.0107C57.2174 56.0557 57.2174 56.0765 57.2174 56.1076ZM56.249 55.2496L55.8663 52.6411L55.4837 55.2496H56.249Z" fill="#767676"/>
<path d="M58.8083 51.9557V56.1003H59.8207C59.9223 56.1003 60.0002 56.1799 60.0002 56.2837V56.7576C60.0002 56.8614 59.9223 56.941 59.8207 56.941H58.1209C58.0193 56.941 57.9414 56.858 57.9414 56.7576V51.9557C57.9414 51.8519 58.0193 51.7723 58.1209 51.7723H58.6288C58.7304 51.7689 58.8083 51.8519 58.8083 51.9557Z" fill="#767676"/>
<path d="M61.376 56.9414H60.8715C60.7699 56.9414 60.692 56.8583 60.692 56.758V51.963C60.692 51.8592 60.7733 51.7693 60.8715 51.7693H61.376C61.4776 51.7693 61.5555 51.8592 61.5555 51.963V56.758C61.5589 56.8618 61.4776 56.9414 61.376 56.9414Z" fill="#767676"/>
<path d="M64.7096 51.9557V52.4435C64.7096 52.5473 64.6216 52.6269 64.5302 52.6269H63.9071V56.7576C63.9071 56.8614 63.8292 56.941 63.7277 56.941H63.2197C63.1249 56.941 63.0403 56.858 63.0403 56.7576V52.6269H62.424C62.3224 52.6269 62.2445 52.5438 62.2445 52.4435V51.9557C62.2445 51.8519 62.3224 51.7723 62.424 51.7723H64.5268C64.6216 51.7689 64.7096 51.8519 64.7096 51.9557Z" fill="#767676"/>
<path d="M67.3419 51.7693H67.8464C67.948 51.7693 68.0259 51.8523 68.0259 51.9527V52.6827C68.0259 52.7622 68.0124 52.8453 67.9751 52.9179L67.0575 54.845V56.7514C67.0575 56.8552 66.9762 56.9347 66.878 56.9347H66.3734C66.2719 56.9347 66.194 56.8517 66.194 56.7514V54.845L65.2695 52.9179C65.2391 52.8453 65.2188 52.7622 65.2188 52.6827V51.9527C65.2188 51.8489 65.2966 51.7693 65.3982 51.7693H65.9061C66.0077 51.7693 66.0856 51.8523 66.0856 51.9527V52.5131C66.0856 52.572 66.0992 52.6308 66.1296 52.6827L66.6274 53.731L67.1252 52.6827C67.1455 52.6308 67.1624 52.572 67.1624 52.5131V51.9527C67.1624 51.8523 67.2403 51.7693 67.3419 51.7693Z" fill="#767676"/>
<path d="M72.5365 54.3572C72.5365 54.9246 72.0896 55.3848 71.5309 55.3848C70.9823 55.3848 70.5251 54.9281 70.5251 54.3572C70.5251 53.7967 70.9823 53.3296 71.5309 53.3296C72.0862 53.3296 72.5365 53.7932 72.5365 54.3572Z" fill="#767676"/>
<path d="M77.917 54.886V55.7578C77.917 56.4082 77.4023 56.9409 76.7657 56.9409H75.3909C75.2893 56.9409 75.2114 56.8579 75.2114 56.7576V51.9558C75.2114 51.852 75.2927 51.7725 75.3909 51.7725H76.6506C77.2872 51.7725 77.8019 52.3052 77.8019 52.9556V53.4365C77.8019 53.6786 77.7375 53.9 77.6055 54.0869C77.7985 54.2944 77.917 54.5781 77.917 54.886ZM76.0783 53.7132H76.6506C76.8029 53.7132 76.9316 53.5818 76.9316 53.4261V52.9176C76.9316 52.755 76.8029 52.6235 76.6506 52.6235H76.0783V53.7132ZM77.0467 54.8445C77.0467 54.6819 76.9181 54.5504 76.7657 54.5504H76.0783V56.0865H76.7657C76.9181 56.0865 77.0467 55.955 77.0467 55.782V54.8445Z" fill="#767676"/>
<path d="M79.5864 52.6134V53.7136H80.223C80.3246 53.7136 80.4025 53.7932 80.4025 53.897V54.3537C80.4025 54.4575 80.3246 54.537 80.223 54.537H79.5864V56.0973H80.5921C80.6937 56.0973 80.7716 56.1769 80.7716 56.2807V56.7547C80.7716 56.8585 80.6937 56.938 80.5921 56.938H78.8922C78.7907 56.938 78.7128 56.855 78.7128 56.7547V51.9527C78.7128 51.8489 78.7907 51.7693 78.8922 51.7693H80.5921C80.6937 51.7693 80.7716 51.8523 80.7716 51.9527V52.4266C80.7716 52.5304 80.6937 52.61 80.5921 52.61H79.5864V52.6134Z" fill="#767676"/>
<path d="M83.2745 53.077V52.9213C83.2745 52.7587 83.1458 52.6342 82.9867 52.6342H82.6548C82.4957 52.6342 82.367 52.7587 82.367 52.9213V53.3711C82.367 53.5337 82.4957 53.6582 82.6548 53.6651H82.9867C83.6301 53.6651 84.1448 54.191 84.1448 54.8483V55.7581C84.1448 56.4085 83.6233 56.9413 82.9867 56.9413H82.6548C82.0182 56.9413 81.4968 56.4085 81.4968 55.7581V55.1527C81.4968 55.0489 81.5747 54.9694 81.6762 54.9694H82.1808C82.2824 54.9694 82.3602 55.0524 82.3602 55.1527V55.7962C82.3602 55.9588 82.4889 56.0902 82.6481 56.0902H82.9799C83.1391 56.0902 83.2677 55.9588 83.2677 55.7962V54.8344C83.2677 54.6718 83.1391 54.5473 82.9799 54.5473H82.6481C82.0115 54.5404 81.49 54.0214 81.49 53.3711V52.949C81.49 52.2986 82.0115 51.7659 82.6481 51.7659H82.9799C83.6233 51.7659 84.138 52.2986 84.138 52.949V53.0736C84.138 53.1773 84.0567 53.2569 83.9585 53.2569H83.454C83.3558 53.2638 83.2745 53.1808 83.2745 53.077Z" fill="#767676"/>
<path d="M87.2218 51.9557V52.4435C87.2218 52.5473 87.1338 52.6269 87.0423 52.6269H86.4192V56.7576C86.4192 56.8614 86.3414 56.941 86.2398 56.941H85.7318C85.637 56.941 85.5524 56.858 85.5524 56.7576V52.6269H84.9361C84.8345 52.6269 84.7566 52.5438 84.7566 52.4435V51.9557C84.7566 51.8519 84.8345 51.7723 84.9361 51.7723H87.0389C87.1371 51.7689 87.2218 51.8519 87.2218 51.9557Z" fill="#767676"/>
<path d="M92.365 52.9522V53.4261C92.365 54.0765 91.8436 54.6093 91.2137 54.6093H90.6584V56.7576C90.6584 56.8614 90.5771 56.9409 90.4789 56.9409H89.9744C89.8728 56.9409 89.7949 56.8579 89.7949 56.7576V51.9558C89.7949 51.8521 89.8762 51.7725 89.9744 51.7725H91.2171C91.8436 51.769 92.365 52.3018 92.365 52.9522ZM91.4982 52.9141C91.4982 52.7515 91.3763 52.6201 91.2171 52.6201H90.6618V53.7132H91.2171C91.3763 53.7132 91.4982 53.5818 91.4982 53.4261V52.9141Z" fill="#767676"/>
<path d="M94.9449 54.5262L95.595 55.7682C95.6322 55.8408 95.6458 55.9308 95.6458 56.0103V56.7507C95.6458 56.8545 95.5747 56.934 95.4731 56.934H94.9686C94.867 56.934 94.7789 56.8545 94.7789 56.7507V56.2352C94.7789 56.1522 94.7654 56.0726 94.7281 55.9827L93.9561 54.5193V56.7576C93.9561 56.8614 93.8748 56.9409 93.7766 56.9409H93.2721C93.1773 56.9409 93.0927 56.8579 93.0927 56.7576V51.9558C93.0927 51.852 93.1807 51.7725 93.2721 51.7725H94.5216C95.1582 51.7725 95.6695 52.3052 95.6695 52.9556V53.4226C95.6695 53.9208 95.3647 54.3463 94.9449 54.5262ZM94.5182 52.62H93.9527V53.7202H94.5182C94.6706 53.7202 94.7993 53.5887 94.7993 53.4157V52.9072C94.8026 52.7446 94.6706 52.62 94.5182 52.62Z" fill="#767676"/>
<path d="M97.0787 56.9414H96.5741C96.4725 56.9414 96.3947 56.8583 96.3947 56.758V51.963C96.3947 51.8592 96.4759 51.7693 96.5741 51.7693H97.0787C97.1803 51.7693 97.2581 51.8592 97.2581 51.963V56.758C97.2615 56.8618 97.1803 56.9414 97.0787 56.9414Z" fill="#767676"/>
<path d="M100.014 54.5474H100.519C100.62 54.5474 100.698 54.6374 100.698 54.7377V55.9936C100.698 56.5091 100.285 56.938 99.7736 56.938H98.9779C98.47 56.938 98.0535 56.5091 98.0535 55.9936V52.7138C98.0535 52.1879 98.4666 51.7693 98.9779 51.7693H99.7736C100.288 51.7693 100.698 52.1914 100.698 52.7138V53.5268C100.698 53.6306 100.617 53.7206 100.519 53.7206H100.014C99.9125 53.7206 99.8346 53.6306 99.8346 53.5268V52.7968C99.8346 52.693 99.7466 52.6134 99.6551 52.6134H99.1133C99.0118 52.6134 98.9237 52.6965 98.9237 52.7968V55.9001C98.9237 56.0039 99.0118 56.0835 99.1133 56.0835H99.6551C99.7499 56.0835 99.8346 56.0039 99.8346 55.9001V54.7412C99.8346 54.6374 99.9159 54.5474 100.014 54.5474Z" fill="#767676"/>
<path d="M102.375 52.6134V53.7136H103.012C103.114 53.7136 103.191 53.7932 103.191 53.897V54.3537C103.191 54.4575 103.114 54.537 103.012 54.537H102.375V56.0973H103.381C103.483 56.0973 103.561 56.1769 103.561 56.2807V56.7547C103.561 56.8585 103.483 56.938 103.381 56.938H101.681C101.58 56.938 101.502 56.855 101.502 56.7547V51.9527C101.502 51.8489 101.58 51.7693 101.681 51.7693H103.381C103.483 51.7693 103.561 51.8523 103.561 51.9527V52.4266C103.561 52.5304 103.483 52.61 103.381 52.61H102.375V52.6134Z" fill="#767676"/>
<path d="M106.256 52.5718C111.481 52.5718 116.706 52.5718 121.931 52.5718C122.591 52.5718 122.591 51.5273 121.931 51.5273C116.706 51.5273 111.481 51.5273 106.256 51.5273C105.599 51.5273 105.599 52.5718 106.256 52.5718Z" fill="#767676"/>
<path d="M106.256 54.8001C109.663 54.8001 113.069 54.8001 116.479 54.8001C117.139 54.8001 117.139 53.7554 116.479 53.7554C113.072 53.7554 109.666 53.7554 106.256 53.7554C105.599 53.7554 105.599 54.8001 106.256 54.8001Z" fill="#767676"/>
<path d="M106.256 56.8895C107.8 56.8895 109.344 56.8895 110.888 56.8895C111.549 56.8895 111.549 55.8445 110.888 55.8445C109.344 55.8445 107.8 55.8445 106.256 55.8445C105.599 55.8445 105.599 56.8895 106.256 56.8895Z" fill="#767676"/>
<path d="M29.7957 51.5273C24.5708 51.5273 19.346 51.5273 14.1211 51.5273C13.4608 51.5273 13.4608 52.5718 14.1211 52.5718C19.346 52.5718 24.5708 52.5718 29.7957 52.5718C30.456 52.5718 30.456 51.5273 29.7957 51.5273Z" fill="#767676"/>
<path d="M29.7972 53.7554C26.3907 53.7554 22.9842 53.7554 19.5743 53.7554C18.914 53.7554 18.914 54.8001 19.5743 54.8001C22.9808 54.8001 26.3873 54.8001 29.7972 54.8001C30.4575 54.8001 30.4575 53.7554 29.7972 53.7554Z" fill="#767676"/>
<path d="M29.7965 55.8445C28.2524 55.8445 26.7083 55.8445 25.1642 55.8445C24.5039 55.8445 24.5039 56.8895 25.1642 56.8895C26.7083 56.8895 28.2524 56.8895 29.7965 56.8895C30.4568 56.8895 30.4568 55.8445 29.7965 55.8445Z" fill="#767676"/>
</svg>
