<svg width="129" height="95" viewBox="0 0 129 95" fill="none" xmlns="http://www.w3.org/2000/svg">
<path d="M45.9082 63.1977C45.8036 63.0603 45.6062 63.0358 45.4717 63.1427C43.1068 65.0367 41.2501 66.4418 39.4532 67.6912C39.3127 67.789 39.2738 67.9875 39.3725 68.1311C39.4323 68.2227 39.5309 68.2686 39.6296 68.2686C39.6894 68.2686 39.7522 68.2502 39.803 68.2136C41.6119 66.955 43.4775 65.5437 45.8544 63.6407C45.9919 63.5368 46.0128 63.3352 45.9082 63.1977Z" fill="#767676"/>
<path d="M36.3471 70.6933C36.4099 70.6933 36.4727 70.6749 36.5295 70.6322L37.3577 70.0213C37.4953 69.9175 37.5282 69.722 37.4265 69.5785C37.3248 69.4349 37.1305 69.4044 36.993 69.5083L36.1647 70.1191C36.0272 70.2229 35.9943 70.4184 36.0959 70.5619C36.1557 70.6474 36.2514 70.6933 36.3471 70.6933Z" fill="#767676"/>
<path d="M55.47 63.335L53.4009 66.6248C53.3083 66.7715 53.3501 66.97 53.4936 67.0647C53.5445 67.0983 53.6043 67.1166 53.6611 67.1166C53.7627 67.1166 53.8644 67.0647 53.9212 66.97L55.9902 63.6802C56.0829 63.5336 56.0411 63.335 55.8976 63.2403C55.757 63.1456 55.5627 63.1884 55.47 63.335Z" fill="#767676"/>
<path d="M45.3824 78.6723C45.4781 78.6723 45.5708 78.6265 45.6336 78.541L52.7913 68.5462C52.8929 68.4056 52.8631 68.2071 52.7225 68.1032C52.585 67.9994 52.3907 68.0299 52.289 68.1735L45.1313 78.1683C45.0296 78.3088 45.0595 78.5074 45.2 78.6113C45.2539 78.654 45.3196 78.6723 45.3824 78.6723Z" fill="#767676"/>
<path d="M61.3389 63.4113C60.6064 66.2368 59.7782 69.0868 58.977 71.8421C57.9515 75.3732 56.8901 79.0235 56.017 82.6677C55.9752 82.8388 56.0768 83.0098 56.2443 83.0526C56.2682 83.0587 56.2951 83.0618 56.319 83.0618C56.4595 83.0618 56.5851 82.964 56.621 82.8204C57.488 79.1915 58.5464 75.5474 59.5719 72.0254C60.3732 69.264 61.2044 66.4079 61.9399 63.5762C61.9847 63.4082 61.886 63.2341 61.7186 63.1883C61.5572 63.1425 61.3838 63.2433 61.3389 63.4113Z" fill="#767676"/>
<path d="M40.8394 75.4554C40.9232 75.4554 41.0039 75.4218 41.0667 75.3546L47.2826 68.6377C47.3992 68.5094 47.3962 68.3109 47.2706 68.1887C47.145 68.0696 46.9507 68.0757 46.8311 68.2009L40.6152 74.9178C40.4986 75.0461 40.5016 75.2447 40.6272 75.3669C40.687 75.428 40.7617 75.4554 40.8394 75.4554Z" fill="#767676"/>
<path d="M36.1849 63.0876L32.944 64.7522C32.7915 64.8316 32.7287 65.021 32.8064 65.1767C32.8602 65.2867 32.9709 65.3508 33.0845 65.3508C33.1323 65.3508 33.1802 65.3386 33.225 65.3172L36.466 63.6526C36.6185 63.5732 36.6812 63.3839 36.6035 63.2281C36.5228 63.0723 36.3374 63.0082 36.1849 63.0876Z" fill="#767676"/>
<path d="M48.6139 66.9394L51.5588 63.6833C51.6754 63.555 51.6664 63.3534 51.5408 63.2343C51.4153 63.1152 51.2179 63.1243 51.1013 63.2526L48.1564 66.5087C48.0398 66.637 48.0488 66.8386 48.1743 66.9578C48.2341 67.0127 48.3089 67.0433 48.3836 67.0433C48.4673 67.0402 48.5511 67.0066 48.6139 66.9394Z" fill="#767676"/>
<path d="M59.033 63.6528C59.1048 63.494 59.036 63.3046 58.8775 63.2313C58.7221 63.161 58.5367 63.2283 58.4649 63.3901C57.4484 65.678 56.3422 67.9721 55.2718 70.1897C53.6872 73.4765 52.0488 76.8732 50.6645 80.3279C50.5987 80.4898 50.6764 80.6761 50.8349 80.7403C50.8738 80.7556 50.9126 80.7647 50.9515 80.7647C51.0741 80.7647 51.1907 80.6914 51.2385 80.5662C52.6138 77.1298 54.2493 73.7422 55.8279 70.4677C56.9042 68.247 58.0135 65.9468 59.033 63.6528Z" fill="#767676"/>
<path d="M69.5839 84.1584C69.6048 84.3172 69.7394 84.4333 69.8919 84.4333C69.9038 84.4333 69.9188 84.4333 69.9337 84.4303C70.1042 84.4089 70.2237 84.247 70.2028 84.0759C69.7693 80.6822 69.4583 77.2121 69.1564 73.8581C68.8484 70.4155 68.5285 66.8568 68.074 63.3683C68.0501 63.1942 67.8976 63.0751 67.7242 63.0965C67.5538 63.1209 67.4342 63.2798 67.4581 63.4539C67.9096 66.9301 68.2295 70.4827 68.5375 73.9192C68.8364 77.2793 69.1504 80.7524 69.5839 84.1584Z" fill="#767676"/>
<path d="M72.8545 72.0074C74.0325 75.6393 75.2494 79.3965 76.254 83.1475C76.2928 83.288 76.4154 83.3827 76.5529 83.3827C76.5798 83.3827 76.6068 83.3797 76.6337 83.3705C76.7981 83.3247 76.8968 83.1506 76.8519 82.9826C75.8443 79.2132 74.6245 75.4499 73.4435 71.8089C72.5495 69.0506 71.6257 66.1976 70.8005 63.369C70.7526 63.201 70.5792 63.1063 70.4148 63.1552C70.2504 63.2041 70.1577 63.3812 70.2055 63.5492C71.0337 66.387 71.9605 69.243 72.8545 72.0074Z" fill="#767676"/>
<path d="M83.9834 80.3986C84.0402 80.5024 84.1449 80.5605 84.2525 80.5605C84.3033 80.5605 84.3571 80.5483 84.405 80.5208C84.5545 80.4352 84.6083 80.2397 84.5216 80.09C83.4333 78.1228 82.345 76.1129 81.2926 74.167C79.3642 70.6022 77.37 66.9182 75.298 63.3565C75.2113 63.2068 75.02 63.1579 74.8735 63.2465C74.727 63.3351 74.6761 63.5306 74.7658 63.6803C76.8348 67.2329 78.826 70.9138 80.7514 74.4725C81.8068 76.4153 82.8951 78.4283 83.9834 80.3986Z" fill="#767676"/>
<path d="M88.4911 67.7275C88.5509 67.7794 88.6227 67.8039 88.6944 67.8039C88.7811 67.8039 88.8678 67.7672 88.9306 67.6939C89.0412 67.5595 89.0263 67.3609 88.8977 67.2479L84.1648 63.1026C84.0362 62.9896 83.8389 63.0049 83.7283 63.1362C83.6176 63.2706 83.6326 63.4692 83.7612 63.5822L88.4911 67.7275Z" fill="#767676"/>
<path d="M93.1206 72.169C93.1804 72.2271 93.2581 72.2546 93.3329 72.2546C93.4166 72.2546 93.4973 72.221 93.5601 72.1538C93.6767 72.0255 93.6707 71.8239 93.5452 71.7048L92.3014 70.5106C92.1758 70.3915 91.9785 70.3976 91.8619 70.5259C91.7453 70.6541 91.7513 70.8557 91.8768 70.9748L93.1206 72.169Z" fill="#767676"/>
<path d="M64.3794 63.1456C64.2119 63.1334 64.0565 63.2556 64.0415 63.4328C63.6139 68.0117 63.1714 72.9755 62.6452 79.0482C62.6302 79.2223 62.7558 79.3781 62.9262 79.3934C62.9352 79.3934 62.9442 79.3934 62.9531 79.3934C63.1116 79.3934 63.2492 79.2681 63.2611 79.1032C63.7844 73.0305 64.2269 68.0697 64.6544 63.4908C64.6754 63.3197 64.5528 63.1639 64.3794 63.1456Z" fill="#767676"/>
<path d="M62.9388 79.5189C62.7743 79.5067 62.6158 79.6319 62.6009 79.806L62.2062 84.1251C62.1913 84.2992 62.3169 84.455 62.4873 84.4703C62.4962 84.4703 62.5082 84.4733 62.5172 84.4733C62.6757 84.4733 62.8102 84.3511 62.8251 84.1862L63.2198 79.8671C63.2348 79.6899 63.1092 79.5342 62.9388 79.5189Z" fill="#767676"/>
<path d="M89.1973 77.0353C89.266 77.0353 89.3348 77.0109 89.3916 76.9651C89.5261 76.8551 89.5471 76.6565 89.4394 76.5191C85.8965 71.983 82.3894 67.5354 79.0139 63.2987C78.9063 63.1612 78.7089 63.1429 78.5774 63.2528C78.4458 63.3628 78.4249 63.5644 78.5325 63.6988C81.9051 67.9356 85.4121 72.3801 88.9521 76.9162C89.0179 76.9956 89.1076 77.0353 89.1973 77.0353Z" fill="#767676"/>
<path d="M93.2244 65.275C93.3291 65.275 93.4277 65.2231 93.4875 65.1254C93.5772 64.9757 93.5354 64.7802 93.3889 64.6885L91.0179 63.1733C90.8744 63.0816 90.6801 63.1244 90.5904 63.2741C90.5007 63.4238 90.5426 63.6193 90.6891 63.7109L93.06 65.2262C93.1108 65.2567 93.1676 65.275 93.2244 65.275Z" fill="#767676"/>
<path d="M82.6619 34.2728C82.7217 34.3552 82.8144 34.398 82.9071 34.398C82.9728 34.398 83.0386 34.3766 83.0954 34.3338L92.1995 27.2074C92.337 27.1004 92.3609 26.9019 92.2563 26.7614C92.1516 26.6239 91.9573 26.5964 91.8198 26.7033L82.7157 33.8298C82.5842 33.9337 82.5572 34.1353 82.6619 34.2728Z" fill="#767676"/>
<path d="M78.1459 27.8465C78.0024 27.7518 77.8111 27.7946 77.7154 27.9412L73.9572 33.919C73.8645 34.0656 73.9064 34.2611 74.0499 34.3588C74.1007 34.3924 74.1605 34.4077 74.2173 34.4077C74.319 34.4077 74.4206 34.3558 74.4774 34.2611L78.2356 28.2833C78.3313 28.1367 78.2895 27.9412 78.1459 27.8465Z" fill="#767676"/>
<path d="M86.0063 16.3666L78.8486 26.3615C78.747 26.502 78.7769 26.7005 78.9174 26.8044C78.9712 26.8472 79.037 26.8655 79.0998 26.8655C79.1955 26.8655 79.2911 26.8197 79.3509 26.7341L86.5086 16.7393C86.6103 16.5988 86.5804 16.4002 86.4399 16.2964C86.3023 16.1955 86.108 16.2261 86.0063 16.3666Z" fill="#767676"/>
<path d="M75.6238 12.2459C75.6657 12.0749 75.567 11.9038 75.4026 11.858C75.2382 11.8152 75.0677 11.916 75.0229 12.084C74.5415 13.9779 74.0333 15.8902 73.5161 17.7963C73.7104 17.8788 73.8987 17.9765 74.0811 18.0896C74.6073 16.1437 75.1275 14.1857 75.6238 12.2459Z" fill="#767676"/>
<path d="M69.1149 34.0227C69.07 34.1907 69.1717 34.3648 69.3361 34.4107C69.363 34.4168 69.3899 34.4198 69.4139 34.4198C69.5514 34.4198 69.677 34.3251 69.7128 34.1816C69.9879 33.1033 70.275 32.0189 70.562 30.9346H69.9192C69.6471 31.967 69.378 32.9964 69.1149 34.0227Z" fill="#767676"/>
<path d="M88.4907 22.7265L91.0231 19.9897C91.1397 19.8614 91.1368 19.6629 91.0112 19.5407C90.8856 19.4216 90.6913 19.4277 90.5717 19.5529L88.0393 22.2897C87.9227 22.418 87.9257 22.6165 88.0512 22.7387C88.111 22.7967 88.1888 22.8242 88.2635 22.8242C88.3472 22.8273 88.4309 22.7937 88.4907 22.7265Z" fill="#767676"/>
<path d="M80.8015 14.1672C80.6431 14.1031 80.4607 14.1825 80.3979 14.3444C80.1109 15.0867 79.773 15.7984 79.4143 16.5529C79.1571 17.0966 78.8911 17.6587 78.6459 18.2299C78.5771 18.3918 78.6489 18.5781 78.8074 18.6484C78.8492 18.6667 78.8911 18.6759 78.9329 18.6759C79.0525 18.6759 79.1661 18.6056 79.217 18.4865C79.4561 17.9275 79.7192 17.3716 79.9733 16.834C80.3202 16.1008 80.6789 15.3464 80.9749 14.5827C81.0377 14.4177 80.96 14.2314 80.8015 14.1672Z" fill="#767676"/>
<path d="M90.0937 34.2212C90.1475 34.3311 90.2581 34.3953 90.3718 34.3953C90.4196 34.3953 90.4674 34.3831 90.5123 34.3617L97.9958 30.5192C98.1483 30.4397 98.2111 30.2504 98.1333 30.0946C98.0556 29.9388 97.8702 29.8746 97.7178 29.9541L90.2342 33.7966C90.0758 33.876 90.016 34.0654 90.0937 34.2212Z" fill="#767676"/>
<path d="M77.6738 34.3559C77.7335 34.4139 77.8083 34.4414 77.883 34.4414C77.9668 34.4414 78.0505 34.4078 78.1103 34.3406L85.9705 25.6562C86.0871 25.5279 86.0782 25.3263 85.9526 25.2072C85.827 25.0881 85.6297 25.0972 85.5131 25.2255L77.6528 33.9099C77.5392 34.0351 77.5482 34.2367 77.6738 34.3559Z" fill="#767676"/>
<path d="M71.5458 33.9891C71.477 34.151 71.5488 34.3373 71.7073 34.4076C71.7491 34.4259 71.791 34.4351 71.8328 34.4351C71.9524 34.4351 72.0661 34.3648 72.1169 34.2457C72.6611 32.9749 73.2381 31.7163 73.8182 30.47C73.5521 30.6105 73.268 30.7235 72.975 30.803C72.4876 31.8538 72.0063 32.9169 71.5458 33.9891Z" fill="#767676"/>
<path d="M78.4818 20.1148C78.5446 19.9529 78.4669 19.7665 78.3084 19.7024C78.1499 19.6383 77.9676 19.7177 77.9048 19.8796C77.4025 21.1716 76.8464 22.4667 76.2664 23.7526V25.2554C77.0497 23.5571 77.8121 21.8375 78.4818 20.1148Z" fill="#767676"/>
<path d="M62.0569 10.7554C62.039 10.5813 61.8865 10.4592 61.7131 10.4744C61.5427 10.4928 61.4201 10.6516 61.438 10.8257C61.6802 13.025 61.9044 15.2732 62.1227 17.4725H62.7476C62.5293 15.2549 62.3021 12.9792 62.0569 10.7554Z" fill="#767676"/>
<path d="M64.0278 34.1295C64.0518 34.2884 64.1833 34.3983 64.3358 34.3983C64.3507 34.3983 64.3657 34.3983 64.3836 34.3953C64.5541 34.3708 64.6707 34.2089 64.6437 34.0348C64.4943 33.0115 64.3537 31.9759 64.2192 30.9373H63.5913C63.7288 32.0064 63.8724 33.0726 64.0278 34.1295Z" fill="#767676"/>
<path d="M61.4515 34.0409C61.4934 34.1784 61.616 34.2639 61.7475 34.2639C61.7774 34.2639 61.8073 34.2608 61.8402 34.2486C62.0046 34.1967 62.0973 34.0195 62.0465 33.8515L61.1675 30.9346H60.5187L61.4515 34.0409Z" fill="#767676"/>
<path d="M56.4628 16.7272C56.4927 16.7272 56.5225 16.7241 56.5554 16.7119C56.7199 16.66 56.8125 16.4828 56.7617 16.3148L55.3865 11.7512C55.3356 11.5832 55.1652 11.4916 54.9978 11.5405C54.8334 11.5924 54.7407 11.7695 54.7915 11.9375L56.1668 16.5011C56.2086 16.6386 56.3312 16.7272 56.4628 16.7272Z" fill="#767676"/>
<path d="M58.0287 34.2333C58.0856 34.3372 58.1902 34.3952 58.3008 34.3952C58.3516 34.3952 58.4025 34.383 58.4533 34.3555C58.6028 34.27 58.6566 34.0775 58.5729 33.9248C58.0258 32.9198 57.4816 31.9239 56.9375 30.9373H56.2259C56.8209 32.0247 57.4218 33.1214 58.0287 34.2333Z" fill="#767676"/>
<path d="M51.649 21.4621C50.2886 19.0641 48.9552 16.7425 47.6516 14.5064C47.5649 14.3567 47.3735 14.3078 47.227 14.3964C47.0805 14.485 47.0297 14.6805 47.1194 14.8302C48.5725 17.3229 50.0644 19.9286 51.5892 22.626V22.2258C51.5892 21.9662 51.6131 21.7126 51.649 21.4621Z" fill="#767676"/>
<path d="M42.7124 27.2168C42.6018 27.3513 42.6167 27.5498 42.7453 27.6628L50.3723 34.3435C50.4321 34.3954 50.5038 34.4198 50.5756 34.4198C50.6623 34.4198 50.749 34.3832 50.8118 34.3098C50.9224 34.1754 50.9075 33.9769 50.7789 33.8639L43.1519 27.1833C43.0203 27.0672 42.823 27.0824 42.7124 27.2168Z" fill="#767676"/>
<path d="M37.0631 21.4222C36.9375 21.3031 36.7402 21.3092 36.6236 21.4375C36.5069 21.5658 36.5129 21.7674 36.6385 21.8866L40.597 25.6837C40.6568 25.7417 40.7345 25.7692 40.8093 25.7692C40.893 25.7692 40.9737 25.7356 41.0365 25.6684C41.1531 25.5401 41.1472 25.3385 41.0216 25.2193L37.0631 21.4222Z" fill="#767676"/>
<path d="M31.2 31.7561C31.0415 31.6859 30.8591 31.7592 30.7904 31.9211C30.7216 32.083 30.7934 32.2694 30.9518 32.3396L35.6698 34.4321C35.7087 34.4504 35.7506 34.4596 35.7924 34.4596C35.912 34.4596 36.0256 34.3894 36.0764 34.2672C36.1452 34.1053 36.0734 33.9189 35.915 33.8487L31.2 31.7561Z" fill="#767676"/>
<path d="M66.6572 34.0777C66.6332 34.2518 66.7498 34.4106 66.9203 34.4351C66.9352 34.4381 66.9501 34.4381 66.9651 34.4381C67.1176 34.4381 67.2491 34.3251 67.273 34.1663C67.4225 33.0911 67.5391 32.0128 67.6408 30.9346H67.0159C66.9173 31.9853 66.8007 33.0361 66.6572 34.0777Z" fill="#767676"/>
<path d="M69.156 10.441C68.9915 10.4288 68.8331 10.554 68.8181 10.7281L68.4234 15.0469C68.4085 15.221 68.5341 15.3767 68.7045 15.392C68.7135 15.392 68.7254 15.392 68.7344 15.392C68.8929 15.392 69.0274 15.2698 69.0424 15.1049L69.437 10.7861C69.452 10.612 69.3264 10.4563 69.156 10.441Z" fill="#767676"/>
<path d="M42.2459 17.4237L41.9439 17.0388C41.8363 16.9013 41.642 16.8799 41.5074 16.9899C41.3729 17.0999 41.352 17.2984 41.4596 17.4359L41.7616 17.8208C42.2549 18.447 42.7661 19.0946 43.2744 19.7116C43.3372 19.7849 43.4239 19.8246 43.5136 19.8246C43.5853 19.8246 43.6541 19.8002 43.7139 19.7513C43.8455 19.6383 43.8634 19.4397 43.7528 19.3053C43.2475 18.6913 42.7392 18.0468 42.2459 17.4237Z" fill="#767676"/>
<path d="M54.9327 34.3185C54.9955 34.3918 55.0822 34.4315 55.1719 34.4315C55.2437 34.4315 55.3125 34.4071 55.3723 34.3582C55.5038 34.2452 55.5218 34.0467 55.4111 33.9123C52.9535 30.9218 50.4749 27.7817 48.077 24.7454L46.6509 22.9401C46.5432 22.8027 46.3489 22.7813 46.2143 22.8913C46.0798 23.0012 46.0589 23.1998 46.1665 23.3372L47.5927 25.1425C49.9905 28.1788 52.4691 31.322 54.9327 34.3185Z" fill="#767676"/>
<path d="M38.1519 29.786C38.0622 29.9356 38.1041 30.1311 38.2506 30.2227L44.7923 34.3979C44.8431 34.4315 44.8999 34.4468 44.9568 34.4468C45.0614 34.4468 45.1601 34.3948 45.2199 34.2971C45.3096 34.1474 45.2677 33.952 45.1212 33.8603L38.5824 29.6852C38.4359 29.5936 38.2446 29.6363 38.1519 29.786Z" fill="#767676"/>
<path d="M5.4013 43.5041C5.46109 43.2567 5.73615 42.881 6.3102 42.5908C6.95899 42.1937 7.87089 41.9737 8.87248 41.9737C9.11765 41.9737 9.36581 41.986 9.60799 42.0134C11.4557 42.1815 12.7802 43.0551 13.2197 43.7821L13.2705 43.8554L17.4652 41.036L17.4443 41.0054C16.0152 38.7541 13.2615 37.2268 10.0834 36.9183C9.69767 36.8877 9.29705 36.8572 8.90239 36.8572C7.09056 36.8572 5.3684 37.2818 3.92133 38.0821C1.89123 39.194 0.611586 41.0146 0.405288 43.0734C0.0195998 47.2277 3.34728 50.3863 8.68412 50.9361C10.2089 51.0888 11.3122 51.4523 11.9819 52.0327C12.4663 52.5276 12.4663 52.9949 12.4393 53.1935C12.4154 53.5081 12.0537 53.9114 11.5424 54.1893C10.8637 54.562 9.9578 54.7697 8.99507 54.7697C8.74991 54.7697 8.49875 54.7575 8.25658 54.73C6.43876 54.5651 5.09036 53.6945 4.60302 52.943L4.5761 52.8972L0.375397 55.6739L0.420251 55.738C1.84939 57.9893 4.603 59.5167 7.78418 59.8252C8.15193 59.8557 8.54659 59.8863 8.96217 59.8863C10.7381 59.8863 12.4962 59.4617 13.9074 58.695C15.9674 57.5342 17.25 55.7167 17.4264 53.7006C17.8121 49.4424 14.5741 46.3572 9.17745 45.8379C7.81708 45.6851 5.27572 45.0162 5.39531 43.553L5.3983 43.5285L5.4013 43.5041ZM4.67776 46.3602C5.68234 47.1941 7.17427 47.7287 8.99208 47.9089C12.3048 48.2388 15.7312 49.8731 15.3993 53.4745C15.2707 54.7972 14.4067 55.9916 12.9626 56.8347C11.8563 57.4486 10.4362 57.7847 8.96517 57.7847C8.62432 57.7847 8.30143 57.7847 7.97853 57.7511C6.43876 57.5861 4.99767 57.0882 3.92432 56.3459L3.55658 56.0924L4.36681 55.5395L4.53126 55.6464C5.48203 56.2665 6.74074 56.6728 8.0742 56.798C8.34927 56.8285 8.64227 56.8591 8.96816 56.8591C10.2538 56.8591 11.5215 56.5567 12.5201 56.016C13.707 55.3195 14.3917 54.4062 14.4993 53.3859C14.586 52.3687 14.1794 51.321 13.3901 50.5146C12.4334 49.5982 10.9564 49.0453 8.87847 48.8315C6.47465 48.6085 4.47445 47.7134 3.38616 46.3786C2.6686 45.4958 2.36064 44.4511 2.46828 43.275C2.56694 41.9493 3.45492 40.7335 4.902 39.9424C6.00824 39.2978 7.39252 38.9557 8.90836 38.9557C9.2492 38.9557 9.57211 38.9557 9.89502 38.9893C11.4019 39.1543 12.84 39.6522 13.9462 40.3945L14.3439 40.6602L13.4708 41.1979L13.3154 41.097C12.3556 40.4861 11.1089 40.0646 9.80231 39.9118C9.50931 39.8813 9.21631 39.8813 8.90536 39.8813C7.50314 39.8813 6.27731 40.1837 5.3385 40.761C4.15453 41.3811 3.45493 42.3006 3.37121 43.3544C3.25461 44.5183 3.70906 45.5568 4.67776 46.3602Z" fill="#767676"/>
<path d="M25.6133 59.8833H30.7529V42.1388H36.3051V36.8542H20.0881V42.1388H25.6104V59.8833H25.6133ZM22.178 39.9761V39.0506H34.1912V39.9761H28.6391V57.7206H27.7331V39.9761H22.178Z" fill="#767676"/>
<path d="M42.5043 52.9796H51.3573L47.1147 41.0359L42.5043 52.9796ZM44.4926 51.5745L47.0788 44.952L49.4019 51.5745H44.4926Z" fill="#767676"/>
<path d="M48.8278 36.8542H45.4792L36.6144 59.8833H42.1127L43.5927 56.0681H50.239L51.5665 59.8833H57.0379L48.8278 36.8542ZM51.6981 53.9054H42.1456L40.6656 57.7206H39.682L46.9203 38.9864H47.3628L54.0271 57.7206H53.0525L51.6981 53.9054Z" fill="#767676"/>
<path d="M67.5007 59.8833V42.1388H73.0528V36.8542H56.8359V42.1388H62.3581V59.8833H67.5007ZM58.9228 39.9761V39.0506H70.936V39.9761H65.3839V57.7206H64.4779V39.9761H58.9228Z" fill="#767676"/>
<path d="M75.9935 59.8833H81.1032V36.8542H75.9935V59.8833ZM78.0804 38.9864H79.0162V57.7542H78.0804V38.9864Z" fill="#767676"/>
<path d="M106.498 48.337C106.498 41.9865 101.427 36.8242 95.1961 36.8242C88.9803 36.8242 83.9244 41.9895 83.9244 48.337C83.9244 54.7028 88.9803 59.8834 95.1961 59.8834C101.427 59.8834 106.498 54.7058 106.498 48.337ZM86.0113 48.337C86.0113 43.1625 90.1313 38.9533 95.1961 38.9533C100.276 38.9533 104.411 43.1625 104.411 48.337C104.411 53.5298 100.276 57.7513 95.1961 57.7513C90.1313 57.7513 86.0113 53.5298 86.0113 48.337Z" fill="#767676"/>
<path d="M103.533 48.3367C103.533 43.657 99.7926 39.8479 95.1943 39.8479C90.6138 39.8479 86.8855 43.657 86.8855 48.3367C86.8855 53.0347 90.6138 56.856 95.1943 56.856C99.7926 56.859 103.533 53.0347 103.533 48.3367ZM95.1943 55.4814C91.3553 55.4814 88.2309 52.2771 88.2309 48.3367C88.2309 44.4146 91.3553 41.2225 95.1943 41.2225C99.0512 41.2225 102.187 44.4146 102.187 48.3367C102.187 52.2771 99.0512 55.4814 95.1943 55.4814Z" fill="#767676"/>
<path d="M123.475 36.8242V49.3786L114.234 36.8242H109.961V59.8834H115.101V46.7639L124.803 59.8834H128.645V36.8242H123.475ZM126.501 57.6902H125.837L113.02 40.3309V57.6902H112.084V38.9869H113.181L125.598 55.8116V38.9869H126.504V57.6902H126.501Z" fill="#767676"/>
<path d="M27.8609 66.4174L27.6546 65.9775C27.6127 65.8889 27.5141 65.8522 27.4274 65.895L25.9623 66.6159L25.6215 65.8919L27.0865 65.171C27.1732 65.1283 27.2061 65.0275 27.1672 64.9389L26.9609 64.499C26.9191 64.4104 26.8204 64.3738 26.7337 64.4165L22.7332 66.3868C22.6465 66.4296 22.6106 66.5304 22.6525 66.619L22.8588 67.0588C22.9006 67.1474 22.9993 67.1841 23.086 67.1413L24.9248 66.2371L25.2657 66.9611L23.4269 67.8653C23.3402 67.908 23.3073 68.0088 23.3461 68.0974L23.5524 68.5373C23.5913 68.6198 23.693 68.6625 23.7797 68.6198L27.7802 66.6495C27.8669 66.6067 27.8968 66.4968 27.8609 66.4174Z" fill="#767676"/>
<path d="M28.6551 67.9017L28.4219 67.474C28.3741 67.3884 28.2664 67.361 28.1827 67.4098L24.3108 69.6154C24.2271 69.6643 24.1972 69.7682 24.245 69.8537L24.4782 70.2814C24.526 70.3669 24.6277 70.3975 24.7114 70.3486L28.5833 68.143C28.6671 68.0941 28.7 67.9872 28.6551 67.9017Z" fill="#767676"/>
<path d="M28.7965 71.9827C28.8772 71.9308 28.9011 71.8239 28.8473 71.7414L28.339 70.9289C28.2882 70.8464 28.1836 70.8219 28.1029 70.8769L27.7471 71.1091C27.6663 71.161 27.6364 71.271 27.6903 71.3535L27.8487 71.607L26.7993 72.2912C26.7186 72.3432 26.611 72.3157 26.5601 72.2332L26.2851 71.7933C26.2372 71.717 26.2552 71.6039 26.3359 71.552L28.7546 69.9758C28.8294 69.9269 28.943 69.9514 28.9908 70.0277L29.2659 70.4676C29.3167 70.5501 29.2928 70.6661 29.218 70.715L28.9878 70.8647C28.9071 70.9166 28.8832 71.0235 28.937 71.106L29.1941 71.5184C29.245 71.6009 29.3496 71.6253 29.4303 71.5703L29.7233 71.3779C30.1329 71.1121 30.2465 70.5562 29.9894 70.1438L29.5858 69.4962C29.3257 69.0777 28.7875 68.9586 28.3779 69.2244L25.8216 70.8922C25.418 71.1549 25.2984 71.7139 25.5555 72.1263L25.9592 72.7739C26.2163 73.1862 26.7634 73.3084 27.167 73.0457L28.7965 71.9827Z" fill="#767676"/>
<path d="M32.2314 73.345L31.9444 72.9541C31.8876 72.8747 31.7829 72.8624 31.7052 72.9205L30.4076 73.9223L29.9352 73.2809L31.2328 72.2791C31.3076 72.221 31.3225 72.1141 31.2657 72.0347L30.9787 71.6437C30.9219 71.5643 30.8172 71.5521 30.7395 71.6102L27.1936 74.3438C27.1188 74.4019 27.1039 74.5088 27.1607 74.5882L27.4477 74.9791C27.5045 75.0586 27.6091 75.0738 27.6869 75.0127L29.3163 73.7574L29.7887 74.3988L28.1593 75.6572C28.0815 75.7153 28.0696 75.8252 28.1264 75.9016L28.4134 76.2925C28.4672 76.3658 28.5749 76.3872 28.6526 76.3262L32.1985 73.5925C32.2763 73.5314 32.2852 73.4184 32.2314 73.345Z" fill="#767676"/>
<path d="M33.4005 79.7205L35.0897 78.0434C35.4724 77.6646 35.4814 77.0415 35.1107 76.6505L34.71 76.2289C34.3393 75.8379 33.7294 75.8287 33.3467 76.2075L31.2927 78.245C30.9159 78.6208 30.907 79.2409 31.2777 79.6319L32.2195 80.6216C32.2853 80.6919 32.3959 80.698 32.4647 80.6308L32.7846 80.3162C32.8534 80.249 32.8504 80.1359 32.7936 80.0748L32.6022 79.8732C32.8683 79.9832 33.1852 79.9343 33.4005 79.7205ZM32.3421 79.6013L31.8667 79.1004C31.8009 79.0301 31.8009 78.911 31.8637 78.8499L33.9177 76.8124C33.9865 76.7452 34.1031 76.7452 34.1689 76.8154L34.5217 77.1851C34.5875 77.2553 34.5875 77.3744 34.5187 77.4416L32.3421 79.6013Z" fill="#767676"/>
<path d="M38.1064 79.4879L37.7477 79.1641C37.6759 79.0999 37.5653 79.1121 37.5025 79.1855L35.0957 81.9867C35.0329 82.06 34.9223 82.063 34.8505 81.9989L34.4708 81.6568C34.3991 81.5926 34.3871 81.4796 34.4499 81.4063L36.8567 78.6081C36.9195 78.5348 36.9165 78.4218 36.8447 78.3576L36.4859 78.0338C36.4142 77.9697 36.3036 77.9819 36.2408 78.0552L33.7802 80.9175C33.4632 81.2841 33.4991 81.8553 33.8609 82.1791L34.426 82.6862C34.7848 83.01 35.3438 82.9703 35.6608 82.6037L38.1214 79.7414C38.1782 79.6651 38.1782 79.552 38.1064 79.4879Z" fill="#767676"/>
<path d="M40.1816 81.1313L39.3624 80.502C39.2907 80.447 39.195 80.4531 39.1292 80.5173L36.3935 83.2361C36.3636 83.2666 36.3517 83.2819 36.3337 83.3033L35.972 83.7951C35.9151 83.8745 35.9301 83.9814 36.0048 84.0395L36.3875 84.3327C36.4653 84.3908 36.5699 84.3755 36.6267 84.2991L37.0005 83.792L37.733 84.3541L37.3592 84.8612C37.3024 84.9406 37.3174 85.0475 37.3891 85.1025L37.7778 85.3988C37.8555 85.4569 37.9602 85.4416 38.017 85.3652L38.3788 84.8734C38.3967 84.852 38.4087 84.8337 38.4266 84.7971L40.2265 81.3604C40.2623 81.2901 40.2534 81.1863 40.1816 81.1313ZM38.1246 83.6637L37.5446 83.2177L39.2817 81.4704L38.1246 83.6637Z" fill="#767676"/>
<path d="M40.6564 86.3975L39.8552 85.863L41.945 82.5794C41.9958 82.4969 41.9749 82.39 41.8942 82.3381L41.4935 82.0723C41.4128 82.0204 41.3082 82.0418 41.2574 82.1243L38.8356 85.9302C38.7818 86.0126 38.8057 86.1196 38.8865 86.1715L40.2319 87.0664C40.3126 87.1184 40.4172 87.097 40.4681 87.0145L40.7073 86.6388C40.7581 86.5563 40.7371 86.4494 40.6564 86.3975Z" fill="#767676"/>
<path d="M44.1383 83.7491L43.7257 83.5048C43.642 83.4559 43.5373 83.4895 43.4895 83.575L41.2681 87.4939C41.2203 87.5795 41.2472 87.6833 41.3309 87.7322L41.7435 87.9765C41.8272 88.0254 41.9288 87.9979 41.9767 87.9124L44.1981 83.9935C44.2429 83.908 44.219 83.798 44.1383 83.7491Z" fill="#767676"/>
<path d="M46.6742 85.8328L46.8775 85.4235C46.9194 85.3349 46.8805 85.2311 46.8028 85.1883L45.0298 84.2689C44.9461 84.2231 44.8445 84.2597 44.7996 84.3453L44.5963 84.7546C44.5545 84.8432 44.5873 84.944 44.6711 84.9898L45.1883 85.2586L43.4602 88.7377C43.4153 88.8232 43.4572 88.9302 43.5349 88.9729L43.9625 89.1929C44.0492 89.2356 44.1478 89.202 44.1927 89.1165L45.9208 85.6373L46.444 85.9092C46.5248 85.9489 46.6324 85.9184 46.6742 85.8328Z" fill="#767676"/>
<path d="M49.4981 87.3232L49.7612 86.6848C49.7971 86.5962 49.7582 86.4954 49.6685 86.4557L49.229 86.2663C49.1393 86.2296 49.0436 86.2693 49.0047 86.361L48.8044 86.8497C48.7835 86.9016 48.7506 86.9475 48.7117 86.9841L47.9015 87.7111L47.8417 86.6115C47.8357 86.5565 47.8447 86.4984 47.8656 86.4465L48.0659 85.9577C48.1018 85.8661 48.0629 85.7683 47.9732 85.7286L47.5307 85.5392C47.441 85.5026 47.3453 85.5423 47.3065 85.6309L47.0434 86.2693C47.0135 86.3396 47.0045 86.419 47.0015 86.4954L47.1181 88.5207L46.4334 90.1824C46.3976 90.2741 46.4364 90.3718 46.5261 90.4115L46.9656 90.6009C47.0553 90.6376 47.151 90.5979 47.1899 90.5062L47.8716 88.8445L49.3635 87.5095C49.4263 87.4576 49.4682 87.3935 49.4981 87.3232Z" fill="#767676"/>
<path d="M49.6919 90.7932L49.2614 90.6374C49.1717 90.6038 49.079 90.6465 49.0461 90.7382L48.8906 91.1842C48.8577 91.2759 48.9056 91.3675 48.9982 91.4011L49.1208 91.447L48.9893 91.5753C48.9594 91.6028 48.9325 91.6364 48.9175 91.6761L48.8756 91.8013C48.8577 91.8533 48.8876 91.9174 48.9325 91.9327L49.1507 92.0121C49.1956 92.0274 49.2554 91.9999 49.2763 91.9449L49.2883 91.9113C49.3002 91.8777 49.3301 91.8533 49.3421 91.841L49.5394 91.6455C49.5633 91.618 49.5813 91.5875 49.5932 91.5539L49.7846 91.0009C49.8115 90.9093 49.7696 90.8207 49.6919 90.7932Z" fill="#767676"/>
<path d="M54.4643 92.2136L53.5375 91.9784L54.4643 88.1785C54.4882 88.0838 54.4314 87.9891 54.3387 87.9677L53.8753 87.8486C53.7827 87.8242 53.693 87.8822 53.669 87.9769L52.5957 92.3817C52.5718 92.4763 52.6286 92.568 52.7213 92.5924L54.2789 92.9895C54.3716 93.014 54.4613 92.9559 54.4852 92.8612L54.5899 92.4275C54.6108 92.3297 54.557 92.2381 54.4643 92.2136Z" fill="#767676"/>
<path d="M57.829 88.7161L57.0906 88.5847C56.6122 88.4992 56.1607 88.8321 56.077 89.3178L55.5598 92.3634C55.4761 92.8522 55.793 93.3104 56.2714 93.3959L57.0098 93.5273C57.4822 93.6097 57.9367 93.289 58.0204 92.8002L58.5376 89.7547C58.6213 89.2659 58.2984 88.7985 57.829 88.7161ZM57.2281 92.5681C57.2132 92.6658 57.1175 92.733 57.0218 92.7147L56.5225 92.6261C56.4268 92.6108 56.3611 92.5131 56.379 92.4153L56.8693 89.5286C56.8873 89.4309 56.9799 89.3789 57.0726 89.3942L57.5719 89.4828C57.6676 89.4981 57.7364 89.5836 57.7184 89.6783L57.2281 92.5681Z" fill="#767676"/>
<path d="M62.7911 89.2658L62.1932 89.2139C62.1304 89.2078 62.0796 89.2536 62.0766 89.3147L62.0287 89.9196C62.0258 89.9685 62.0228 89.996 62.0108 90.0509L61.67 91.8014L61.4726 89.2506C61.4636 89.1925 61.4188 89.1467 61.365 89.1436L60.8478 89.1009C60.7939 89.0948 60.7431 89.1345 60.7311 89.1895L60.1272 91.6731L60.0644 89.889C60.0614 89.834 60.0644 89.8065 60.0674 89.7577L60.1152 89.1528C60.1212 89.0917 60.0764 89.0367 60.0166 89.0337L59.4186 88.9817C59.3588 88.9756 59.305 89.0214 59.302 89.0825L59.2482 89.7516C59.2452 89.7852 59.2422 89.8279 59.2452 89.8921L59.4694 93.7351C59.4754 93.8267 59.5382 93.8939 59.6279 93.9031L60.1601 93.9489C60.2408 93.955 60.3215 93.9 60.3365 93.8084L60.9644 90.9552L61.1258 93.8756C61.1318 93.9672 61.1946 94.0345 61.2843 94.0436L61.8075 94.0894C61.8972 94.0955 61.9689 94.0405 61.9899 93.952L62.827 90.1976C62.839 90.1365 62.842 90.0937 62.845 90.0601L62.8988 89.3911C62.8958 89.3239 62.8509 89.272 62.7911 89.2658Z" fill="#767676"/>
<path d="M66.7162 89.2079L65.5412 89.266C65.4455 89.2721 65.3738 89.3515 65.3797 89.4492L65.598 93.9822C65.604 94.08 65.6817 94.1533 65.7774 94.1472L66.2558 94.1227C66.3514 94.1166 66.4232 94.0372 66.4172 93.9395L66.3186 91.9112L66.8448 91.8837C67.4397 91.8532 67.9062 91.3278 67.8763 90.7138L67.8553 90.2679C67.8254 89.6539 67.3082 89.1774 66.7162 89.2079ZM66.8029 91.0407L66.2767 91.0682L66.2259 90.0357L66.7521 90.0082C66.9016 90.0021 67.0242 90.1212 67.0301 90.274L67.0541 90.7535C67.063 90.9032 66.9524 91.0315 66.8029 91.0407Z" fill="#767676"/>
<path d="M71.2756 92.5372L70.5222 91.4499C70.8959 91.233 71.1321 90.7963 71.0723 90.3259L71.0185 89.8891C70.9437 89.2783 70.4026 88.8415 69.8046 88.9178L68.6326 89.0675C68.5429 89.0797 68.4712 89.1653 68.4831 89.263L69.0303 93.7651C69.0422 93.8628 69.1319 93.927 69.2216 93.9178L69.697 93.8567C69.7927 93.8445 69.8584 93.759 69.8465 93.6612L69.5893 91.5629L70.4833 92.8427C70.5281 92.9221 70.5491 92.9954 70.558 93.0717L70.6178 93.5574C70.6298 93.6551 70.7195 93.7193 70.8152 93.7071L71.2905 93.646C71.3862 93.6337 71.443 93.5482 71.4311 93.4535L71.3474 92.7602C71.3414 92.6839 71.3175 92.6014 71.2756 92.5372ZM70.0318 90.7474L69.5027 90.8146L69.3771 89.7822L69.9063 89.715C70.0498 89.6967 70.1843 89.7975 70.2023 89.9502L70.2591 90.4297C70.28 90.5886 70.1753 90.7291 70.0318 90.7474Z" fill="#767676"/>
<path d="M72.2211 88.5268L71.7517 88.6154C71.659 88.6338 71.5992 88.7285 71.6171 88.8262L72.4185 93.283C72.4364 93.3808 72.5231 93.4419 72.6188 93.4235L73.0883 93.335C73.181 93.3166 73.2437 93.228 73.2258 93.1333L72.4245 88.6765C72.4065 88.5788 72.3168 88.5085 72.2211 88.5268Z" fill="#767676"/>
<path d="M76.2313 90.4725C76.2074 90.3778 76.1147 90.3136 76.022 90.3381L75.5586 90.4541C75.4659 90.4786 75.4121 90.5763 75.436 90.671L75.6902 91.7371C75.7141 91.8318 75.6513 91.9265 75.5646 91.9478L75.0653 92.0731C74.9726 92.0975 74.8739 92.0425 74.853 91.9478L74.1713 89.1009C74.1474 89.0062 74.2102 88.9116 74.3029 88.8871L74.8022 88.7619C74.8889 88.7405 74.9845 88.7955 75.0085 88.8902L75.1699 89.5622C75.1938 89.6569 75.2865 89.721 75.3792 89.6966L75.8426 89.5805C75.9353 89.5561 75.9891 89.4583 75.9652 89.3636L75.7858 88.6183C75.6692 88.1357 75.1998 87.8455 74.7274 87.9616L73.9979 88.1448C73.5255 88.264 73.2415 88.7436 73.3551 89.2262L74.0756 92.238C74.1892 92.7115 74.6676 93.0108 75.134 92.8948L75.8636 92.7115C76.336 92.5924 76.62 92.1067 76.5064 91.6302L76.2313 90.4725Z" fill="#767676"/>
<path d="M79.4209 90.9826C79.391 90.891 79.2983 90.8391 79.2056 90.8696L78.3027 91.1659L77.8632 89.7638L78.4342 89.5745C78.5239 89.5439 78.5748 89.4492 78.5449 89.3545L78.4163 88.9421C78.3864 88.8505 78.2937 88.7986 78.201 88.8291L77.63 89.0155L77.319 88.0258L78.222 87.7295C78.3117 87.6989 78.3625 87.6042 78.3326 87.5095L78.198 87.0849C78.1681 86.9933 78.0755 86.9414 77.9828 86.9719L76.455 87.4729C76.3653 87.5034 76.3144 87.5981 76.3443 87.6928L77.7017 92.012C77.7316 92.1037 77.8243 92.1556 77.917 92.125L79.4448 91.6241C79.5345 91.5935 79.5853 91.4989 79.5554 91.4042L79.4209 90.9826Z" fill="#767676"/>
<path d="M81.2797 90.9886C81.2797 90.9519 81.2737 90.9152 81.2618 90.8847L81.0584 90.338C81.0255 90.2464 80.9358 90.2067 80.8611 90.2372L80.4335 90.4021C80.3438 90.4357 80.2989 90.5304 80.3318 90.622L80.4963 91.0649C80.5292 91.1565 80.6249 91.1932 80.7146 91.1596L80.8372 91.1138L80.8192 91.3001C80.8132 91.3398 80.8132 91.3826 80.8282 91.4223L80.873 91.5475C80.891 91.5994 80.9538 91.6269 80.9986 91.6116L81.2169 91.5261C81.2618 91.5078 81.2887 91.4467 81.2707 91.3948L81.2588 91.3612C81.2468 91.3276 81.2528 91.2879 81.2558 91.2726L81.2797 90.9886Z" fill="#767676"/>
<path d="M85.6005 86.7793C85.4719 86.5166 85.2567 86.3303 85.0025 86.2356C85.0354 86.0218 84.9995 85.808 84.8979 85.6033L84.6976 85.197C84.4285 84.6472 83.7737 84.4212 83.2355 84.6991L82.1741 85.2459C82.0874 85.2887 82.0545 85.3925 82.0994 85.4811L84.0966 89.5346C84.1385 89.6232 84.2401 89.6568 84.3268 89.611L85.4869 89.0153C86.0251 88.7404 86.2374 88.0684 85.9653 87.5185L85.6005 86.7793ZM83.107 85.6614L83.5883 85.4139C83.7169 85.3467 83.8813 85.4048 83.9501 85.5392L84.1624 85.9699C84.2282 86.1012 84.1714 86.2692 84.0428 86.3364L83.5614 86.5838L83.107 85.6614ZM85.1281 88.2883L84.5481 88.5877L83.9082 87.2894L84.4883 86.9901C84.6168 86.9229 84.7813 86.9809 84.85 87.1184L85.2387 87.9095C85.3105 88.0531 85.2567 88.2211 85.1281 88.2883Z" fill="#767676"/>
<path d="M88.7615 86.4067C88.7137 86.3243 88.609 86.2968 88.5283 86.3456L87.7151 86.8436L86.9736 85.5789L87.4909 85.2643C87.5716 85.2154 87.5985 85.1085 87.5507 85.026L87.3324 84.6533C87.2816 84.5708 87.1799 84.5433 87.0992 84.5922L86.582 84.9069L86.0588 84.0149L86.875 83.5169C86.9557 83.4681 86.9826 83.3611 86.9348 83.2787L86.7105 82.8968C86.6627 82.8143 86.558 82.7869 86.4773 82.8357L85.0991 83.6788C85.0183 83.7277 84.9914 83.8346 85.0393 83.9171L87.3204 87.8089C87.3683 87.8913 87.4729 87.9188 87.5536 87.87L88.9319 87.0268C89.0126 86.978 89.0395 86.8711 88.9917 86.7886L88.7615 86.4067Z" fill="#767676"/>
<path d="M90.8679 83.2998C90.5181 82.7897 89.8424 82.6705 89.346 83.0249L89.0889 83.2082C88.9633 83.2907 88.7959 83.2662 88.7092 83.141L88.47 82.7927C88.3833 82.6675 88.4192 82.4964 88.5418 82.4109L88.7989 82.2276C88.9215 82.139 89.0889 82.1634 89.1756 82.2917L89.2593 82.4109C89.3131 82.4903 89.4178 82.5086 89.4985 82.4537L89.8902 82.1726C89.968 82.1176 89.9859 82.0107 89.9321 81.9282L89.8663 81.8305C89.5224 81.3264 88.8407 81.2012 88.3444 81.5555L88.0873 81.7388C87.5939 82.0901 87.4743 82.7927 87.8182 83.2937L88.0424 83.6206C88.3863 84.1246 89.065 84.2346 89.5613 83.8894L89.8184 83.7061C89.941 83.6175 90.1085 83.645 90.1952 83.7703L90.7035 84.5126C90.7902 84.6379 90.7603 84.812 90.6377 84.9006L90.3805 85.0839C90.258 85.1725 90.0875 85.1419 90.0008 85.0166L89.66 84.5187C89.6062 84.4393 89.5015 84.421 89.4208 84.476L89.0291 84.757C88.9514 84.812 88.9334 84.9189 88.9873 85.0014L89.3102 85.4688C89.654 85.9728 90.3417 86.095 90.832 85.7437L91.0892 85.5604C91.5825 85.2091 91.7021 84.5065 91.3583 84.0055L90.8679 83.2998Z" fill="#767676"/>
<path d="M91.4001 80.1784L91.8545 79.7996C91.9232 79.7415 91.9382 79.6285 91.8784 79.5552L91.5944 79.1978C91.5346 79.1214 91.424 79.1153 91.3552 79.1734L89.8155 80.4563C89.7407 80.5174 89.7318 80.6274 89.7916 80.7007L90.0756 81.0581C90.1354 81.1345 90.243 81.1437 90.3148 81.0826L90.7632 80.7068L93.176 83.728C93.2358 83.8043 93.3464 83.8104 93.4151 83.7524L93.7859 83.4439C93.8606 83.3828 93.8696 83.2728 93.8098 83.1995L91.4001 80.1784Z" fill="#767676"/>
<path d="M96.9799 77.5114C96.9111 77.4442 96.8005 77.4411 96.7347 77.5114L96.4028 77.8627C96.3371 77.9329 96.3431 78.046 96.4118 78.1132L97.1832 78.8768C97.2519 78.944 97.2489 79.0601 97.1862 79.1243L96.8304 79.5C96.7646 79.5702 96.654 79.5764 96.5852 79.5092L94.5223 77.4686C94.4535 77.4014 94.4565 77.2853 94.5223 77.2181L94.8781 76.8424C94.9409 76.7782 95.0515 76.7691 95.1202 76.8394L95.6076 77.3189C95.6763 77.3861 95.787 77.3892 95.8527 77.3189L96.1846 76.9676C96.2504 76.8974 96.2444 76.7844 96.1756 76.7172L95.6345 76.1826C95.2847 75.8374 94.7345 75.8466 94.3967 76.204L93.8735 76.7569C93.5357 77.1143 93.5446 77.6763 93.8944 78.0215L96.074 80.1781C96.4178 80.5172 96.9769 80.508 97.3117 80.1567L97.8349 79.6038C98.1728 79.2464 98.1578 78.6813 97.814 78.3392L96.9799 77.5114Z" fill="#767676"/>
<path d="M97.1643 73.2108C97.0896 73.1497 96.9819 73.1649 96.9251 73.2352L96.6201 73.6109C96.5603 73.6873 96.5693 73.7942 96.6441 73.8584L97.8968 74.9183L97.3945 75.5354L96.1418 74.4754C96.067 74.4143 95.9624 74.4235 95.8996 74.4998L95.5946 74.8756C95.5348 74.9519 95.5438 75.0589 95.6185 75.12L99.039 78.0127C99.1137 78.0738 99.2184 78.0647 99.2812 77.9883L99.5861 77.6126C99.6459 77.5362 99.637 77.4293 99.5622 77.3682L97.9895 76.0364L98.4918 75.4193L100.065 76.7511C100.139 76.8122 100.244 76.8031 100.304 76.7267L100.609 76.351C100.665 76.2807 100.66 76.1677 100.585 76.1066L97.1643 73.2108Z" fill="#767676"/>
<path d="M102.149 72.6487L99.6559 70.8954C99.2552 70.6144 98.7051 70.7182 98.433 71.1214L98.0055 71.7537C97.7304 72.1631 97.8351 72.719 98.2357 73L100.729 74.7534C101.13 75.0344 101.671 74.9336 101.946 74.5243L102.374 73.892C102.646 73.4888 102.55 72.9298 102.149 72.6487ZM101.656 73.5376L101.369 73.9622C101.315 74.0416 101.202 74.063 101.121 74.008L98.7559 72.3463C98.6782 72.2914 98.6662 72.1814 98.7201 72.102L99.0071 71.6774C99.0609 71.598 99.1655 71.5674 99.2433 71.6224L101.608 73.2841C101.692 73.3421 101.713 73.4582 101.656 73.5376Z" fill="#767676"/>
<path d="M103.752 71.4084L99.9821 69.0225C99.9014 68.9706 99.7908 68.992 99.7399 69.0745L99.4888 69.49C99.4379 69.5724 99.4678 69.6824 99.5486 69.7343L103.319 72.1202C103.399 72.1721 103.504 72.1477 103.555 72.0622L103.806 71.6467C103.86 71.5642 103.836 71.4573 103.752 71.4084Z" fill="#767676"/>
<path d="M104.871 67.905L103.848 67.3399C103.765 67.294 103.657 67.3215 103.612 67.4071L103.385 67.8378C103.34 67.9233 103.376 68.0302 103.46 68.0761L104.405 68.5984C104.488 68.6442 104.515 68.7542 104.473 68.8337L104.231 69.2949C104.186 69.3805 104.082 69.4171 103.995 69.3713L101.471 67.9753C101.388 67.9294 101.361 67.8195 101.406 67.7339L101.651 67.2727C101.693 67.1932 101.797 67.1566 101.881 67.2024L102.476 67.5323C102.56 67.5781 102.667 67.5506 102.712 67.4651L102.939 67.0344C102.984 66.9488 102.948 66.8419 102.865 66.7931L102.204 66.4265C101.776 66.1913 101.25 66.3501 101.02 66.7869L100.661 67.4621C100.431 67.8989 100.586 68.4365 101.014 68.6717L103.684 70.1472C104.106 70.3794 104.641 70.2175 104.868 69.7867L105.227 69.1116C105.457 68.6778 105.293 68.1372 104.871 67.905Z" fill="#767676"/>
<path d="M106.754 65.4552L106.356 65.2719C106.269 65.2322 106.171 65.2688 106.129 65.3574L105.737 66.2402L104.425 65.6323L104.673 65.0733C104.712 64.9847 104.676 64.8839 104.589 64.8411L104.203 64.664C104.117 64.6243 104.018 64.6609 103.976 64.7495L103.728 65.3085L102.801 64.8809L103.193 63.998C103.232 63.9094 103.196 63.8086 103.106 63.7659L102.708 63.5826C102.622 63.5429 102.523 63.5795 102.481 63.6681L101.82 65.1619C101.782 65.2505 101.817 65.3513 101.904 65.3941L105.949 67.2636C106.036 67.3033 106.135 67.2666 106.177 67.175L106.837 65.6812C106.879 65.5957 106.84 65.4949 106.754 65.4552Z" fill="#767676"/>
<path d="M22.8523 26.8839L26.7989 28.9608C26.8826 29.0066 26.9843 28.973 27.0291 28.8845L27.2474 28.4508C27.2922 28.3622 27.2593 28.2614 27.1726 28.2156L25.4056 27.287L25.6448 26.8106C25.9169 26.2699 25.7046 25.5949 25.1694 25.3139L24.7808 25.1093C24.2456 24.8283 23.5848 25.0451 23.3128 25.5858L22.7746 26.6517C22.7327 26.7372 22.7656 26.8411 22.8523 26.8839ZM24.0124 25.9492C24.0812 25.8118 24.2426 25.766 24.3771 25.8362L24.7957 26.0561C24.9243 26.1233 24.9781 26.2852 24.9123 26.4226L24.6702 26.8991L23.7702 26.4257L24.0124 25.9492Z" fill="#767676"/>
<path d="M24.6577 23.4413L28.4219 25.8454C28.5027 25.8973 28.6103 25.8668 28.6581 25.7904L28.9123 25.375C28.9631 25.2925 28.9392 25.1856 28.8585 25.1336L27.1034 24.0126L28.6372 24.1103C28.7239 24.1256 28.7957 24.1531 28.8585 24.1958L29.2651 24.4555C29.3458 24.5074 29.4534 24.4769 29.5043 24.3944L29.7584 23.9789C29.8092 23.8965 29.7823 23.7957 29.7016 23.7437L29.1216 23.3741C29.0588 23.3344 28.981 23.3008 28.9063 23.2947L27.6057 23.2061C27.6775 22.7754 27.4921 22.3111 27.1004 22.0606L26.7356 21.8284C26.2244 21.5016 25.5517 21.6574 25.2317 22.1767L24.6068 23.2C24.556 23.2764 24.5769 23.3894 24.6577 23.4413ZM25.8955 22.6013C25.9702 22.476 26.1347 22.4333 26.2632 22.5157L26.6639 22.7693C26.7954 22.8548 26.8373 23.0289 26.7596 23.1511L26.4785 23.6124L25.6144 23.0625L25.8955 22.6013Z" fill="#767676"/>
<path d="M30.306 22.8673C30.3837 22.9254 30.4884 22.9101 30.5452 22.8307L31.496 21.511C31.5528 21.4316 31.5378 21.3247 31.4601 21.2667L31.1073 21.0009C31.0295 20.9428 30.9249 20.9581 30.8681 21.0376L30.306 21.8196L29.1459 20.9459L29.5017 20.451C29.5585 20.3716 29.5436 20.2647 29.4659 20.2067L29.125 19.9501C29.0473 19.892 28.9426 19.9073 28.8858 19.9867L28.53 20.4816L27.7108 19.8645L28.2729 19.0825C28.3297 19.0031 28.3148 18.8962 28.237 18.8382L27.8842 18.5724C27.8065 18.5144 27.7019 18.5296 27.6451 18.6091L26.6943 19.9287C26.6375 20.0081 26.6524 20.115 26.7302 20.1731L30.306 22.8673Z" fill="#767676"/>
<path d="M31.4667 19.9742C31.5026 20.017 31.5384 20.0476 31.5534 20.0628L32.0258 20.4996C32.0976 20.5638 32.2022 20.5577 32.268 20.4844L32.5849 20.1178C32.6477 20.0445 32.6417 19.9376 32.57 19.8704L32.1723 19.5099C32.1424 19.4824 32.1155 19.458 32.0916 19.4274L30.6355 17.7687L32.3666 18.9326C32.4384 18.9784 32.5341 18.9631 32.5879 18.899L32.9317 18.5019C32.9856 18.4408 32.9856 18.3461 32.9317 18.2789L31.5923 16.666L33.3832 17.9398C33.4191 17.9612 33.443 17.9856 33.4759 18.0131L33.8735 18.3736C33.9453 18.4377 34.0529 18.4316 34.1157 18.3583L34.4326 17.9917C34.4924 17.9245 34.4894 17.8085 34.4177 17.7443L33.9363 17.3197C33.9214 17.3044 33.8855 17.2739 33.8406 17.2403L30.7013 15.1448C30.6295 15.0989 30.5398 15.1111 30.48 15.1784L30.1362 15.5755C30.0824 15.6396 30.0824 15.7313 30.1362 15.7985L31.6939 17.7382L29.625 16.388C29.5532 16.3422 29.4635 16.3544 29.4037 16.4216L29.0629 16.8126C29.0031 16.8798 29.006 16.9745 29.0569 17.0417L31.4667 19.9742Z" fill="#767676"/>
<path d="M35.1674 17.0174C35.2331 17.0877 35.3408 17.0907 35.4095 17.0205L35.7533 16.6814C35.8221 16.6142 35.8251 16.5042 35.7563 16.434L32.6709 13.1808C32.6052 13.1105 32.4945 13.1044 32.4258 13.1716L32.082 13.5107C32.0132 13.5779 32.0162 13.6909 32.082 13.7612L35.1674 17.0174Z" fill="#767676"/>
<path d="M36.1626 15.05C36.4705 15.4227 37.0297 15.4716 37.3944 15.1569L37.9685 14.6621C38.3333 14.3475 38.3811 13.7763 38.0731 13.4036L35.6662 10.4927C35.6035 10.4193 35.4928 10.4041 35.4211 10.4652L35.0563 10.7798C34.9845 10.8439 34.9786 10.9569 35.0414 11.0303L37.3974 13.8771C37.4602 13.9504 37.4453 14.0634 37.3705 14.1275L36.9848 14.4605C36.9131 14.5246 36.7994 14.5185 36.7396 14.4452L34.3836 11.5984C34.3208 11.5251 34.2102 11.5098 34.1384 11.5709L33.7736 11.8855C33.7019 11.9497 33.6959 12.0627 33.7587 12.136L36.1626 15.05Z" fill="#767676"/>
<path d="M38.885 12.6645C38.9119 12.7134 38.9358 12.7531 38.9508 12.7715L39.3066 13.3091C39.3604 13.3885 39.465 13.4099 39.5458 13.3549L39.9374 13.0769C40.0152 13.0219 40.0361 12.915 39.9823 12.8356L39.6803 12.3866C39.6564 12.353 39.6384 12.3224 39.6205 12.2858L38.598 10.3186L40.0032 11.8704C40.06 11.9314 40.1587 11.9406 40.2244 11.8917L40.652 11.5893C40.7208 11.5404 40.7417 11.4519 40.7058 11.3724L39.7819 9.47857L41.2201 11.1525C41.25 11.183 41.2679 11.2105 41.2918 11.2472L41.5938 11.6962C41.6476 11.7757 41.7523 11.797 41.83 11.742L42.2246 11.4641C42.2964 11.4122 42.3233 11.3022 42.2665 11.2228L41.8987 10.6943C41.8868 10.676 41.8599 10.6363 41.824 10.5935L39.2677 7.79546C39.2109 7.73437 39.1182 7.72215 39.0465 7.77408L38.6189 8.07649C38.5501 8.12537 38.5292 8.217 38.5651 8.29337L39.6235 10.5568L37.9312 8.7424C37.8744 8.68131 37.7818 8.66909 37.71 8.72101L37.2884 9.01731C37.2167 9.06924 37.1928 9.16088 37.2286 9.23725L38.885 12.6645Z" fill="#767676"/>
<path d="M44.6586 9.00212C44.8709 9.44199 45.4001 9.62526 45.8307 9.41144L46.5064 9.07237C46.9369 8.8555 47.1163 8.31484 46.907 7.87497L46.0549 6.10025C46.013 6.01166 45.9114 5.97806 45.8247 6.02082L44.9785 6.44542C44.8918 6.48818 44.8589 6.59203 44.9008 6.67756L45.0892 7.0655C45.131 7.15409 45.2357 7.1938 45.3194 7.15103L45.5825 7.01969L46.1326 8.15905C46.1745 8.24763 46.1327 8.3515 46.0489 8.39426L45.5885 8.6264C45.5078 8.66611 45.4031 8.63557 45.3613 8.54699L44.0965 5.91391C44.0577 5.83144 44.0935 5.72148 44.1743 5.68177L44.6347 5.44962C44.7214 5.40685 44.8291 5.44351 44.8679 5.52598L44.9875 5.77646C45.0294 5.86504 45.131 5.89864 45.2177 5.85587L45.6483 5.639C45.735 5.59623 45.7679 5.49238 45.726 5.40685L45.5705 5.08612C45.3553 4.64014 44.8291 4.46298 44.3985 4.6768L43.7228 5.01586C43.2863 5.23579 43.1099 5.76729 43.3251 6.21327L44.6586 9.00212Z" fill="#767676"/>
<path d="M47.8365 7.46819C47.8455 7.51096 47.8515 7.5293 47.8634 7.55373L48.0817 8.12495C48.1176 8.21659 48.2132 8.25935 48.3029 8.22269L48.7484 8.04553C48.8381 8.00887 48.8799 7.91113 48.8441 7.81949L48.6168 7.22688L49.4689 6.88477L49.6961 7.47737C49.732 7.56901 49.8277 7.61177 49.9114 7.57817L50.3628 7.39794C50.4525 7.36129 50.4944 7.26354 50.4585 7.1719L50.2403 6.60068C50.2313 6.57319 50.2223 6.55486 50.2014 6.51821L48.285 3.14588C48.2461 3.07868 48.1534 3.03286 48.0697 3.06646L47.116 3.44829C47.0323 3.48189 46.9845 3.56742 47.0054 3.65601L47.8365 7.46819ZM49.0982 6.19136L48.4225 6.46017L47.8814 4.03172L49.0982 6.19136Z" fill="#767676"/>
<path d="M50.4689 3.79675C50.6393 4.38626 51.2493 4.71004 51.8263 4.54204L52.1282 4.45041C52.2717 4.40765 52.4242 4.48401 52.4661 4.63063L52.7202 5.50115C52.7621 5.64777 52.6813 5.80354 52.5348 5.84936L52.2329 5.94099C52.0894 5.98375 51.9369 5.90128 51.892 5.75161L51.7216 5.16821C51.6947 5.07352 51.602 5.0216 51.5093 5.04909L51.0519 5.18959C50.9592 5.21708 50.9084 5.31177 50.9383 5.40646L51.0968 5.95627C51.2672 6.54578 51.8801 6.88483 52.4571 6.70767L52.7591 6.61604C53.3361 6.44193 53.665 5.81576 53.4945 5.22624L53.2554 4.40154C53.082 3.80592 52.478 3.47297 51.895 3.65013L51.5931 3.74177C51.4466 3.77843 51.2971 3.70206 51.2522 3.5524L51.1327 3.1431C51.0908 2.99648 51.1745 2.8468 51.318 2.80099L51.62 2.70936C51.7635 2.66659 51.916 2.74296 51.9578 2.88957L51.9997 3.03007C52.0266 3.12476 52.1193 3.17669 52.2119 3.1492L52.6694 3.0087C52.7621 2.98121 52.8129 2.88651 52.783 2.79182L52.7501 2.67881C52.5797 2.0893 51.9728 1.75025 51.3898 1.92741L51.0878 2.01904C50.5108 2.19315 50.1789 2.81932 50.3523 3.40883L50.4689 3.79675Z" fill="#767676"/>
<path d="M54.6702 5.15933C54.7688 5.64503 55.2293 5.95356 55.7017 5.85276L56.4372 5.69696C56.9066 5.59921 57.2146 5.12573 57.1159 4.64309L56.506 1.61589C56.4073 1.1302 55.9409 0.815559 55.4715 0.91331L54.736 1.0691C54.2606 1.16991 53.9586 1.64644 54.0572 2.13214L54.6702 5.15933ZM55.017 1.82972L55.5133 1.72586C55.606 1.70753 55.7017 1.75641 55.7196 1.85416L56.2997 4.72557C56.3176 4.82027 56.2548 4.92107 56.1621 4.93939L55.6658 5.04326C55.5731 5.06159 55.4745 4.99744 55.4565 4.90274L54.8795 2.03133C54.8585 1.93663 54.9243 1.8511 55.017 1.82972Z" fill="#767676"/>
<path d="M58.5956 5.3179L60.1892 5.11323C60.2849 5.10101 60.3507 5.01549 60.3387 4.91774L60.2849 4.47481C60.2729 4.37706 60.1892 4.31292 60.0935 4.32514L59.1458 4.44732L58.6674 0.561808C58.6554 0.46406 58.5717 0.399915 58.4761 0.412133L58.0007 0.473221C57.905 0.485439 57.8422 0.570974 57.8542 0.668723L58.4103 5.17127C58.4163 5.26597 58.503 5.33012 58.5956 5.3179Z" fill="#767676"/>
<path d="M61.5648 4.99733L62.0431 4.96374C62.1388 4.95763 62.2075 4.87515 62.2016 4.7774L61.9086 0.259554C61.9026 0.161804 61.8219 0.0823773 61.7262 0.0915413L61.2479 0.125147C61.1522 0.131257 61.0834 0.219844 61.0894 0.317593L61.3824 4.83544C61.3884 4.93319 61.4691 5.00344 61.5648 4.99733Z" fill="#767676"/>
<path d="M63.5589 4.8843H64.0014C64.0971 4.8843 64.1718 4.80793 64.1718 4.71018L64.1748 1.83582L65.0658 4.76212C65.0867 4.83848 65.1555 4.88736 65.2302 4.88736H65.7355C65.8312 4.88736 65.906 4.81099 65.906 4.71324L65.9119 0.177163C65.9119 0.0794154 65.8372 0.00305758 65.7415 0.00305758H65.2841C65.1884 0.00305758 65.1136 0.0794154 65.1136 0.177163L65.1107 2.62696L64.3153 0.119124C64.2884 0.0488687 64.2257 0 64.1509 0H63.5619C63.4662 0 63.3915 0.0763672 63.3915 0.174114L63.3855 4.71018C63.3885 4.80793 63.4632 4.8843 63.5589 4.8843Z" fill="#767676"/>
<path d="M67.232 4.96386L68.8315 5.09827C68.9272 5.10743 69.008 5.03717 69.0169 4.93942L69.0528 4.49344C69.0618 4.39569 68.993 4.31321 68.8973 4.30405L67.9495 4.22462L68.0661 2.75532L68.6641 2.80419C68.7598 2.81336 68.8405 2.7431 68.8495 2.64535L68.8854 2.21464C68.8943 2.11689 68.8256 2.03441 68.7299 2.02525L68.1289 1.97637L68.2126 0.940828L69.1604 1.02025C69.2561 1.02942 69.3368 0.959162 69.3458 0.861412L69.3817 0.41542C69.3906 0.31767 69.3219 0.235195 69.2262 0.226031L67.6266 0.0916236C67.531 0.0824595 67.4502 0.152723 67.4413 0.250474L67.0795 4.77447C67.0675 4.87222 67.1363 4.9547 67.232 4.96386Z" fill="#767676"/>
<path d="M70.2541 5.28128L70.3826 5.29961L70.278 5.45234C70.2541 5.48289 70.2332 5.52259 70.2272 5.56536L70.2092 5.6967C70.2003 5.75169 70.2421 5.80667 70.29 5.81278L70.5201 5.84638C70.568 5.85249 70.6218 5.81278 70.6278 5.7578L70.6337 5.72419C70.6397 5.69059 70.6636 5.657 70.6726 5.64478L70.8281 5.41263C70.846 5.37903 70.858 5.34542 70.8639 5.31182L70.9446 4.73145C70.9566 4.6337 70.8998 4.55429 70.8191 4.54512L70.3647 4.47792C70.269 4.46265 70.1853 4.52374 70.1734 4.61843L70.1076 5.08884C70.0956 5.18659 70.1584 5.26601 70.2541 5.28128Z" fill="#767676"/>
<path d="M72.1566 5.58067L73.3196 5.83115C73.9086 5.95944 74.4916 5.56845 74.6141 4.96973L75.1493 2.38244C75.2749 1.77456 74.8952 1.17891 74.3062 1.05061L73.1432 0.800128C73.0505 0.778746 72.9578 0.845946 72.9399 0.94064L72.025 5.37295C72.0041 5.4707 72.0609 5.55928 72.1566 5.58067ZM73.6185 1.70736L74.1477 1.82038C74.2942 1.85093 74.3899 2.00061 74.36 2.15029L73.8069 4.82616C73.777 4.97584 73.6305 5.0736 73.484 5.04305L72.9548 4.93002L73.6185 1.70736Z" fill="#767676"/>
<path d="M75.6191 6.40853L76.0796 6.53988C76.1722 6.56737 76.2649 6.51238 76.2888 6.42074L77.4937 2.05871C77.5206 1.96402 77.4698 1.86322 77.3771 1.83573L76.9167 1.70437C76.824 1.67688 76.7283 1.73798 76.7044 1.83267L75.4996 6.1947C75.4726 6.28634 75.5264 6.38104 75.6191 6.40853Z" fill="#767676"/>
<path d="M77.5532 6.99808L79.069 7.53871C79.1587 7.57231 79.2544 7.52344 79.2873 7.43181L79.4308 7.01029C79.4637 6.91866 79.4159 6.82092 79.3262 6.78732L78.4292 6.4666L78.9046 5.07684L79.4727 5.27843C79.5624 5.31203 79.658 5.26316 79.6909 5.17152L79.8314 4.76223C79.8643 4.67059 79.8165 4.57285 79.7268 4.53925L79.1587 4.33766L79.4966 3.35718L80.3935 3.67791C80.4832 3.7115 80.5789 3.66263 80.6118 3.571L80.7553 3.14948C80.7882 3.05785 80.7404 2.9601 80.6507 2.92651L79.1348 2.38587C79.0451 2.35227 78.9495 2.40115 78.9166 2.49278L77.4486 6.7751C77.4187 6.86979 77.4635 6.96754 77.5532 6.99808Z" fill="#767676"/>
<path d="M81.177 8.41885L81.464 8.54717C82.0142 8.79462 82.6629 8.538 82.9051 7.97588L83.243 7.19075C83.4881 6.62252 83.24 5.96875 82.6839 5.71824L82.3968 5.58992C82.2623 5.52271 82.1965 5.36385 82.2563 5.22027L82.4237 4.83229C82.4835 4.69176 82.645 4.63371 82.7825 4.69481L83.0696 4.82312C83.2071 4.88422 83.2729 5.04308 83.2131 5.18361L83.1563 5.31803C83.1174 5.40663 83.1562 5.50744 83.243 5.54716L83.6795 5.74573C83.7662 5.78544 83.8648 5.74573 83.9037 5.65713L83.9515 5.54716C84.1937 4.98504 83.9485 4.32515 83.3924 4.07464L83.1054 3.94633C82.5553 3.69888 81.9065 3.9555 81.6643 4.51762L81.5059 4.88117C81.2637 5.44329 81.5208 6.094 82.068 6.34756L82.355 6.47587C82.4925 6.53697 82.5583 6.69584 82.4985 6.83637L82.1397 7.66733C82.0799 7.80786 81.9185 7.87201 81.778 7.81091L81.4909 7.6826C81.3534 7.6215 81.2906 7.45653 81.3504 7.31295L81.5896 6.75693C81.6285 6.66834 81.5896 6.56752 81.5029 6.52781L81.0664 6.32924C80.9797 6.28952 80.881 6.32924 80.8421 6.41783L80.6149 6.94024C80.3757 7.50847 80.6269 8.1714 81.177 8.41885Z" fill="#767676"/>
<path d="M83.5819 9.57932L84.9961 10.3582C85.0798 10.4041 85.1814 10.3735 85.2263 10.288L85.4326 9.89394C85.4774 9.80841 85.4475 9.70456 85.3638 9.65874L84.5267 9.19749L85.2113 7.90234L85.7405 8.19253C85.8242 8.23835 85.9259 8.2078 85.9707 8.12227L86.171 7.74045C86.2159 7.65492 86.186 7.55106 86.1023 7.50525L85.5731 7.21505L86.0544 6.29867L86.8916 6.75992C86.9753 6.80574 87.0769 6.77519 87.1248 6.68966L87.3311 6.29561C87.3759 6.21008 87.346 6.10623 87.2623 6.06041L85.8481 5.28149C85.7644 5.23567 85.6628 5.26621 85.6179 5.35174L83.5131 9.34412C83.4653 9.42965 83.4952 9.5335 83.5819 9.57932Z" fill="#767676"/>
<path d="M86.2418 11.1066L87.5962 11.9863C87.6769 12.0383 87.7816 12.0138 87.8324 11.9313L88.0656 11.5556C88.1164 11.4732 88.0925 11.3663 88.0148 11.3143L87.2075 10.792L89.2615 7.48389C89.3124 7.40142 89.2885 7.29451 89.2077 7.24258L88.8041 6.97989C88.7234 6.92796 88.6187 6.9524 88.5679 7.03487L86.188 10.8653C86.1372 10.9478 86.1611 11.0547 86.2418 11.1066Z" fill="#767676"/>
<path d="M88.9195 12.1422L88.6473 12.527C88.5905 12.6065 88.6115 12.7073 88.6892 12.7653L88.7939 12.8417L88.6324 12.9272C88.5965 12.9424 88.5606 12.9699 88.5367 13.0035L88.462 13.1105C88.4291 13.1563 88.441 13.2235 88.4799 13.254L88.6683 13.3915C88.7072 13.4189 88.7729 13.4098 88.8058 13.364L88.8268 13.3365C88.8477 13.309 88.8836 13.2907 88.8985 13.2846L89.1407 13.1532C89.1706 13.1318 89.1975 13.1074 89.2185 13.0799L89.5534 12.6034C89.6102 12.524 89.5952 12.4262 89.5264 12.3774L89.1557 12.1055C89.0749 12.0505 88.9733 12.0628 88.9195 12.1422Z" fill="#767676"/>
<path d="M90.6252 14.2622C90.6999 14.3233 90.8046 14.3111 90.8644 14.2378L92.156 12.6127L92.6284 13.0037C92.7032 13.0648 92.8078 13.0526 92.8676 12.9792L93.1397 12.6371C93.1995 12.5608 93.1905 12.4538 93.1158 12.3927L92.6434 12.0017L93.2802 11.2014L94.0217 11.8184C94.0964 11.8795 94.2011 11.8704 94.2609 11.794L94.536 11.4458C94.5957 11.3694 94.5838 11.2625 94.512 11.2014L93.2653 10.1658C93.1905 10.1047 93.0859 10.1139 93.0261 10.1903L90.2246 13.7124C90.1648 13.7887 90.1767 13.8957 90.2485 13.9567L90.6252 14.2622Z" fill="#767676"/>
<path d="M93.0096 16.3696L93.5537 16.898C93.9006 17.2341 94.4596 17.2218 94.7915 16.8675L97.3627 14.1061C97.4285 14.0359 97.4315 13.9229 97.3597 13.8557L97.0129 13.5196C96.9442 13.4524 96.8336 13.4616 96.7678 13.5319L94.2533 16.2321C94.1876 16.3024 94.0769 16.3024 94.0082 16.2321L93.6404 15.8748C93.5717 15.8076 93.5627 15.6945 93.6285 15.6243L96.1429 12.924C96.2087 12.8537 96.2117 12.7407 96.1399 12.6735L95.7931 12.3375C95.7243 12.2703 95.6137 12.2795 95.5479 12.3497L92.9767 15.1111C92.6508 15.4624 92.6628 16.0336 93.0096 16.3696Z" fill="#767676"/>
<path d="M95.0969 18.499L96.1672 19.7207C96.23 19.7941 96.3376 19.8002 96.4094 19.733L96.7353 19.4336C96.807 19.3695 96.813 19.2595 96.7472 19.1862L96.1134 18.4623L97.1867 17.4788L97.5873 17.9369C97.6501 18.0102 97.7578 18.0163 97.8295 17.9491L98.1434 17.659C98.2152 17.5948 98.2212 17.4849 98.1554 17.4116L97.7548 16.9534L98.5112 16.26L99.145 16.9809C99.2078 17.0542 99.3154 17.0603 99.3872 16.9931L99.713 16.6938C99.7848 16.6296 99.7908 16.5197 99.725 16.4463L98.6547 15.2245C98.5919 15.1512 98.4843 15.1451 98.4125 15.2123L95.1059 18.2393C95.0371 18.3187 95.0341 18.4256 95.0969 18.499Z" fill="#767676"/>
<path d="M97.0814 20.8508L98.0651 22.1459C98.1249 22.2223 98.2295 22.2375 98.3043 22.1765L98.6511 21.9016C98.7259 21.8405 98.7408 21.7336 98.681 21.6572L98.095 20.8845L101.124 18.4867C101.198 18.4257 101.213 18.3188 101.154 18.2424L100.861 17.8575C100.801 17.7812 100.696 17.7659 100.621 17.827L97.1113 20.6034C97.0366 20.6645 97.0246 20.7714 97.0814 20.8508Z" fill="#767676"/>
<path d="M100.383 25.7202L100.76 26.3831C100.999 26.8046 101.537 26.9543 101.955 26.7069L104.572 25.1521C104.99 24.9016 105.134 24.3487 104.895 23.9272L104.518 23.2643C104.273 22.8367 103.734 22.6962 103.316 22.9436L100.7 24.4984C100.278 24.7489 100.138 25.2926 100.383 25.7202ZM101.187 25.1765L103.666 23.7012C103.749 23.6523 103.848 23.6889 103.896 23.7745L104.15 24.2204C104.198 24.306 104.18 24.4129 104.096 24.4617L101.615 25.9371C101.531 25.986 101.42 25.9554 101.372 25.873L101.118 25.427C101.076 25.3415 101.106 25.2254 101.187 25.1765Z" fill="#767676"/>
<path d="M101.812 28.3869L102.024 28.8237C102.066 28.9123 102.168 28.9459 102.251 28.9031L106.228 26.8963C106.315 26.8535 106.354 26.7466 106.312 26.658L106.099 26.2212C106.058 26.1326 105.95 26.1021 105.863 26.1448L101.887 28.1517C101.803 28.1975 101.767 28.3014 101.812 28.3869Z" fill="#767676"/>
<path d="M107.079 28.3502C107.044 28.2586 106.945 28.2188 106.855 28.2555L102.762 30.015C102.676 30.0516 102.634 30.1524 102.673 30.2441L103.294 31.7561C103.33 31.8447 103.429 31.8875 103.519 31.8478L103.922 31.6737C104.012 31.637 104.051 31.5362 104.015 31.4446L103.644 30.5434L107.178 29.0253C107.265 28.9886 107.307 28.8878 107.271 28.7962L107.079 28.3502Z" fill="#767676"/>
</svg>
