<svg width="129" height="90" viewBox="0 0 129 90" fill="none" xmlns="http://www.w3.org/2000/svg">
<path d="M56.2657 79.3145C56.295 80.8859 54.4677 82.5432 52.5233 82.633C52.7833 83.8489 53.1018 85.0349 52.5819 86.277C51.8275 88.2336 49.7988 89.2999 47.7958 89.0343C44.577 88.589 43.7054 84.0547 46.8107 82.6929C47.9129 82.2177 49.5645 83.3139 48.3487 84.4101C47.6822 85.0311 46.58 85.2107 47.0707 86.5127C47.36 87.2235 48.1436 87.3732 48.7808 87.2534C49.883 87.0477 50.4909 86.0974 50.5495 85.0311C50.696 84.1108 50.3481 83.1643 50.1137 82.214C48.6636 81.5032 47.5614 79.872 47.9679 78.2146C48.2865 76.763 50.0551 77.3541 49.3594 78.2745C49.0408 78.8955 49.5059 79.7859 50.0259 80.2611C50.1723 79.5802 50.403 78.9292 50.7802 78.3044C52.234 76.026 56.2071 75.9063 56.2657 79.3145ZM54.0905 78.2483C52.8125 78.0126 52.2926 79.7298 52.2633 80.6502C52.2633 80.71 52.2633 80.7699 52.2633 80.8297C52.699 80.7699 53.1348 80.624 53.4827 80.3845C54.3798 79.7597 55.05 78.5738 54.0905 78.2483Z" fill="#767676"/>
<path d="M60.0673 79.0487C59.778 79.4041 59.2251 80.115 58.6172 81.0054C58.8186 81.0054 58.9944 81.0354 59.0823 81.0354C59.5473 81.0653 59.053 82.3111 58.5037 82.3111C58.3023 82.3111 58.0094 82.2812 57.7201 82.2812C56.3579 84.2679 54.9956 86.4004 55.197 86.58C55.5742 86.9953 57.4015 84.8927 58.1558 84.0022C58.6795 83.4111 59.3459 84.092 58.793 84.7131C57.4894 86.1049 55.5449 88.8323 53.9776 88.5367C52.8168 88.3572 52.3517 87.0252 53.3112 85.6933C53.7176 85.1022 54.5892 83.6767 55.4863 82.2251C55.3398 82.2251 55.197 82.2251 55.0505 82.2251C54.5269 82.2251 55.0798 80.9493 55.6035 80.9194C55.75 80.9194 56.01 80.9194 56.2993 80.9194C57.2257 79.4378 58.0386 78.162 58.3023 77.9263C58.7674 77.4811 59.3166 77.1257 59.7817 77.2454C60.2394 77.3876 60.9352 78.0423 60.0673 79.0487Z" fill="#767676"/>
<path d="M66.244 84.7394C64.966 86.1312 63.0545 88.8287 61.4872 88.563C60.9086 88.4433 60.6742 87.912 60.7328 87.2573C60.2385 87.8185 59.572 88.3236 58.847 88.3236C56.4411 88.3236 57.1369 85.2108 58.5577 83.5235C59.9785 81.8324 61.7765 80.6501 62.908 81.1215C63.2852 81.2712 63.5159 81.5668 63.633 81.8922C63.6916 81.8025 63.7209 81.7426 63.7795 81.6865C64.2446 81.2413 64.8232 80.8858 65.2589 81.0355C65.7533 81.1552 66.4197 81.8361 65.5775 82.8425C64.5925 83.9687 62.7359 86.221 63.0252 86.5165C63.2852 86.7822 64.911 84.8853 65.6654 83.9986C66.1854 83.4037 66.7933 84.1445 66.244 84.7394ZM61.3993 84.7394C62.3001 83.6133 62.8494 82.6667 62.648 82.4871C62.4759 82.3075 61.5751 83.1381 60.59 84.354C59.6343 85.54 59.1399 86.6961 59.2571 86.8121C59.5134 87.0777 60.4985 85.8655 61.3993 84.7394Z" fill="#767676"/>
<path d="M71.3501 79.0487C71.0608 79.4041 70.5078 80.115 69.9 81.0054C70.1014 81.0054 70.2771 81.0354 70.365 81.0354C70.8301 81.0653 70.3357 82.3111 69.7864 82.3111C69.585 82.3111 69.2921 82.2812 69.0028 82.2812C67.6406 84.2679 66.2784 86.4004 66.4798 86.58C66.8569 86.9953 68.6842 84.8927 69.4386 84.0022C69.9622 83.4111 70.6287 84.092 70.0757 84.7131C68.7721 86.1049 66.8276 88.8323 65.2603 88.5367C64.0995 88.3572 63.6345 87.0252 64.5939 85.6933C65.0003 85.1022 65.8719 83.6767 66.769 82.2251C66.6226 82.2251 66.4798 82.2251 66.3333 82.2251C65.8096 82.2251 66.3626 80.9493 66.8862 80.9194C67.0327 80.9194 67.2927 80.9194 67.582 80.9194C68.5085 79.4378 69.3214 78.162 69.585 77.9263C70.0501 77.4811 70.5994 77.1257 71.0645 77.2454C71.5222 77.3876 72.2179 78.0423 71.3501 79.0487Z" fill="#767676"/>
<path d="M73.4939 84.7395C72.1866 86.1312 70.3044 88.8287 68.7078 88.5631C67.5762 88.3573 67.4591 87.0217 68.3892 85.6898C69.3742 84.3279 70.4765 82.2216 71.0001 81.6903C71.4652 81.2451 72.0438 80.8897 72.4795 81.0393C72.9739 81.1591 73.6697 81.84 72.7981 82.8464C71.8131 83.9725 69.9565 86.2248 70.2458 86.5203C70.5058 86.786 72.161 84.8891 72.9153 84.0025C73.406 83.4038 74.0432 84.1446 73.4939 84.7395ZM73.5525 80.235C72.161 80.235 73.5232 77.0923 75.1198 77.4477C76.5955 77.7732 74.6547 80.5904 73.5525 80.235Z" fill="#767676"/>
<path d="M80.4566 84.739C80.0208 85.1843 79.5595 85.7754 79.0651 86.3403C77.9629 87.5562 77.615 88.0014 76.542 87.7919C76.3663 87.762 76.2528 87.7021 76.1356 87.6124C75.4398 88.1174 74.7441 88.3831 74.1618 88.3831C72.188 88.3831 71.5509 86.3366 72.741 84.2938C73.9311 82.2211 75.8719 80.8855 77.2671 80.8855C78.7465 80.8855 79.878 82.1314 78.7172 84.4697C78.34 85.2104 77.9043 85.8614 77.4392 86.4264C77.6406 86.3366 77.9885 86.0709 78.34 85.6856C78.8893 85.1207 79.4716 84.4397 79.8488 83.9945C80.3687 83.4034 81.0059 84.1442 80.4566 84.739ZM77.1792 82.6327C76.337 82.6327 73.4954 86.7219 74.3083 86.7219C74.9162 86.7219 78.0214 82.6327 77.1792 82.6327Z" fill="#767676"/>
<path d="M87.2408 84.7393C85.9371 86.131 84.0513 88.8284 82.4547 88.5628C80.8581 88.2673 81.2646 86.6959 82.224 85.3641C83.1504 84.0322 84.3405 83.0221 84.1391 82.7564C83.9634 82.4908 82.224 84.2978 81.6747 84.8889C81.0375 85.8654 80.3967 86.8157 79.9939 87.3768C79.386 88.2373 79.1224 88.5628 78.4266 88.5628C77.3537 88.5628 77.643 87.1112 78.9502 85.3641C79.906 84.0322 80.7482 82.6367 80.8947 82.3412C81.3305 81.4507 81.4733 81.0093 82.0848 81.0093C82.5499 81.0093 83.1284 81.3647 83.2163 81.9857C83.9121 81.4245 84.6372 81.0093 85.3622 81.0093C86.058 81.0093 87.043 81.8398 86.1166 83.2016C85.1901 84.5634 83.7107 86.2245 84 86.5201C84.26 86.7857 85.8859 84.8889 86.6402 84.0023C87.1529 83.4037 87.7937 84.1444 87.2408 84.7393Z" fill="#767676"/>
<path d="M12.8141 42.085L13.8101 43.9781C15.1797 46.5821 14.2203 49.8558 11.7009 51.2401L9.4708 52.4672L14.0042 61.0723C14.2239 61.4876 14.0738 61.9852 13.671 62.2097L11.646 63.3246C11.2395 63.5491 10.7524 63.3957 10.5327 62.9841L0.403939 43.7649C0.184226 43.3496 0.334354 42.852 0.737162 42.6275L5.71369 39.8889C8.23673 38.5008 11.4446 39.4848 12.8141 42.085ZM9.26207 43.8472C8.91785 43.1962 8.14884 42.9343 7.51167 43.286L5.28159 44.5131L7.58858 48.8905L9.81868 47.6633C10.4559 47.3117 10.6682 46.511 10.3387 45.89L9.26207 43.8472Z" fill="#767676"/>
<path d="M19.4707 37.8126L21.1625 42.5079L23.876 41.4865C24.3081 41.3256 24.7731 41.5426 24.9306 41.9841L25.6337 43.937C25.7911 44.3785 25.5788 44.8537 25.1467 45.0145L22.4332 46.0359L24.8281 52.6841L29.1161 51.0716C29.5483 50.9108 30.0133 51.1278 30.1708 51.5692L30.8958 53.5858C31.0533 54.0273 30.8409 54.5024 30.4088 54.6633L23.1583 57.3907C22.7262 57.5515 22.2611 57.3345 22.1036 56.8931L14.7213 36.4096C14.5638 35.9681 14.7762 35.493 15.2083 35.3321L22.4552 32.6047C22.8873 32.4438 23.3523 32.6608 23.5098 33.1023L24.2349 35.1189C24.3923 35.5603 24.1799 36.0355 23.7478 36.1963L19.4707 37.8126Z" fill="#767676"/>
<path d="M37.554 29.335L38.0777 31.4863C38.1875 31.9427 37.8909 32.3991 37.4771 32.5039L34.7344 33.1998L39.1579 51.4198C39.2678 51.8762 39.0041 52.3252 38.5574 52.4374L36.3236 53.0024C35.9098 53.1071 35.4374 52.8452 35.3276 52.3888L30.904 34.1688L28.1906 34.8572C27.7438 34.9694 27.3044 34.7 27.1945 34.2436L26.6709 32.0924C26.561 31.6359 26.8247 31.187 27.2714 31.0747L36.5543 28.7215C36.9754 28.6167 37.4442 28.8786 37.554 29.335Z" fill="#767676"/>
<path d="M50.9917 39.0402L54.6829 44.2106C54.8916 44.5211 55.0088 44.9102 55.06 45.2768L55.5141 48.6028C55.5764 49.0667 55.3017 49.482 54.8476 49.5456L52.57 49.8711C52.1159 49.9347 51.6728 49.6242 51.6105 49.1603L51.2919 46.8332C51.2407 46.4666 51.1272 46.1111 50.9111 45.7333L46.5278 39.6425L47.901 49.7215C47.9633 50.1854 47.6557 50.6044 47.2016 50.668L44.9239 50.9935C44.4991 51.0533 44.0597 50.7428 43.9974 50.2789L41.0459 28.6582C40.9837 28.1942 41.3242 27.7715 41.7454 27.7116L47.3774 26.911C50.241 26.5032 52.8812 28.5684 53.2803 31.494L53.566 33.5891C53.8736 35.8489 52.7713 37.9739 50.9917 39.0402ZM47.8974 30.7346L45.3597 31.0975L46.0371 36.0546L48.5748 35.6917C49.2596 35.5945 49.7613 34.9135 49.6587 34.1466L49.3438 31.8532C49.2449 31.1199 48.5821 30.6373 47.8974 30.7346Z" fill="#767676"/>
<path d="M68.5116 29.7652L69.006 44.6369C69.0865 47.0202 67.2446 48.9993 64.9449 49.0779L61.3307 49.2013C58.9981 49.2836 57.0609 47.4354 56.984 45.0522L56.4897 30.1805C56.4091 27.7973 58.2181 25.7845 60.5507 25.7059L64.165 25.5825C66.461 25.5039 68.4311 27.3858 68.5116 29.7652ZM64.5788 30.2404C64.5641 29.769 64.1576 29.4472 63.6962 29.4659L61.2648 29.552C60.8034 29.5669 60.4225 29.9186 60.4372 30.3863L60.9059 44.4836C60.9205 44.955 61.3307 45.3441 61.7884 45.3253L64.2199 45.2393C64.6813 45.2243 65.0621 44.8053 65.0438 44.3376L64.5788 30.2404Z" fill="#767676"/>
<path d="M76.5019 26.6407L75.4326 45.4481L80.0246 45.7212C80.4824 45.7474 80.8229 46.1402 80.7973 46.6079L80.6764 48.7517C80.6508 49.2193 80.2663 49.5672 79.8086 49.5411L72.0966 49.0846C71.6389 49.0584 71.2984 48.6656 71.324 48.1979L72.5617 26.4087C72.5873 25.9411 72.9718 25.5931 73.4296 25.6193L75.7256 25.754C76.187 25.7839 76.5275 26.173 76.5019 26.6407Z" fill="#767676"/>
<path d="M88.6489 30.854L87.9495 35.8074L90.8131 36.2302C91.2671 36.2975 91.5747 36.7165 91.5088 37.1805L91.2195 39.2419C91.1536 39.7058 90.7435 40.0201 90.2894 39.9527L87.4258 39.53L86.4371 46.5448L90.9595 47.2107C91.4136 47.2781 91.7212 47.6971 91.6553 48.161L91.355 50.2898C91.2891 50.7537 90.879 51.068 90.4249 51.0006L82.7789 49.8745C82.3248 49.8072 82.0172 49.3881 82.0831 48.9242L85.1298 27.3185C85.1957 26.8546 85.6058 26.5404 86.0599 26.6077L93.7059 27.7338C94.16 27.8012 94.4676 28.2202 94.4017 28.6841L94.1014 30.8129C94.0355 31.2768 93.6254 31.591 93.1713 31.5237L88.6489 30.854Z" fill="#767676"/>
<path d="M107.254 30.8539L109.484 31.4338C109.93 31.5498 110.183 32.0324 110.07 32.4889L105.631 50.2563C105.064 52.5348 102.742 53.9378 100.516 53.3579L97.0112 52.445C94.7811 51.8651 93.4043 49.4931 93.9755 47.2184L98.4137 29.4509C98.5272 28.9945 98.974 28.6952 99.4207 28.8112L101.651 29.3911C102.098 29.5071 102.35 29.9897 102.237 30.4461L97.8937 47.8245C97.7802 48.2809 98.0732 48.7374 98.5199 48.8533L100.878 49.4669C101.325 49.5829 101.797 49.3247 101.911 48.8683L106.254 31.4899C106.36 31.0372 106.807 30.7379 107.254 30.8539Z" fill="#767676"/>
<path d="M123.122 57.9523L121.932 60.8293C121.749 61.2596 121.243 61.4392 120.851 61.2633L118.742 60.3243C118.321 60.1372 118.134 59.6508 118.317 59.2206L119.339 56.8186C119.42 56.6353 119.482 56.4782 119.533 56.2836L122.576 46.0287L117.347 54.6898C117.131 55.034 116.71 55.1762 116.347 55.0153L114.055 53.9977C113.692 53.8368 113.48 53.414 113.575 53.0175L116.215 43.204L110.942 52.4675C110.832 52.6396 110.767 52.793 110.69 52.9763L109.668 55.3782C109.485 55.8085 109.009 55.9993 108.588 55.8122L106.478 54.8731C106.057 54.6861 105.871 54.1997 106.054 53.7695L107.302 50.9186C107.343 50.825 107.434 50.6118 107.57 50.3761L117.102 34.7299C117.318 34.3857 117.739 34.2435 118.131 34.4193L120.39 35.4257C120.782 35.6016 120.965 36.0094 120.87 36.406L117.9 48.0864L124.275 37.9175C124.491 37.5733 124.912 37.4311 125.275 37.592L127.567 38.6096C127.959 38.7855 128.142 39.1933 128.047 39.5898L123.338 57.3798C123.254 57.6417 123.162 57.8587 123.122 57.9523Z" fill="#767676"/>
<path d="M66.7884 56.2126C66.7738 56.2126 66.7554 56.2126 66.7408 56.2126C66.7335 56.2126 66.7262 56.2126 66.7152 56.2126C66.7079 56.2126 66.7005 56.2126 66.6895 56.2126C66.6749 56.2126 66.6566 56.2126 66.6419 56.2126C43.4146 56.2126 22.9043 62.8646 10.5271 73.0333L16.3788 76.0151L17.0855 82.9402C19.1655 81.0434 21.6995 79.2176 24.673 77.5116C35.7209 71.1627 50.6248 67.6646 66.6383 67.6646C66.6529 67.6646 66.6712 67.6646 66.6859 67.6646C66.6932 67.6646 66.7005 67.6646 66.7115 67.6646C66.7188 67.6646 66.7262 67.6646 66.7371 67.6646C66.7518 67.6646 66.7701 67.6646 66.7848 67.6646C82.8019 67.6646 97.7058 71.1627 108.75 77.5116C111.723 79.2214 114.258 81.0434 116.337 82.9402L117.044 76.0151L122.896 73.0333C110.526 62.8646 90.0158 56.2126 66.7884 56.2126Z" fill="#767676"/>
<path d="M41.76 85.5178C42.9867 85.5178 42.9867 83.5762 41.76 83.5762C40.5333 83.5762 40.5333 85.5178 41.76 85.5178Z" fill="#767676"/>
<path d="M90.2837 85.5178C91.5104 85.5178 91.5104 83.5762 90.2837 83.5762C89.057 83.5762 89.057 85.5178 90.2837 85.5178Z" fill="#767676"/>
<path d="M23.5209 72.5541C23.8614 73.134 23.6783 73.8822 23.1107 74.2301C22.5505 74.5742 21.8107 74.3909 21.4702 73.8111C21.1333 73.2387 21.32 72.4793 21.8803 72.1351C22.4479 71.7872 23.184 71.9818 23.5209 72.5541Z" fill="white"/>
<path d="M29.6407 70.1109L30.0728 71.05C30.3951 71.7497 30.1058 72.5877 29.421 72.9207L27.9416 73.6316C27.8317 73.684 27.7072 73.6391 27.6559 73.5268L25.272 68.3562C25.2208 68.244 25.2647 68.1168 25.3746 68.0644L26.7295 67.4134C27.4143 67.0842 28.2309 67.3909 28.5531 68.0906L28.7911 68.6069C28.912 68.8688 28.9523 69.1419 28.9047 69.4076C29.2233 69.531 29.4869 69.7742 29.6407 70.1109ZM27.081 69.7967L27.6962 69.5011C27.861 69.4225 27.9342 69.213 27.8573 69.0446L27.6047 68.4947C27.5241 68.3188 27.3191 68.244 27.1543 68.3226L26.5391 68.6181L27.081 69.7967ZM28.6849 70.5113C28.6044 70.3354 28.3993 70.2606 28.2345 70.3392L27.4948 70.6946L28.2565 72.3483L28.9962 71.9929C29.161 71.9143 29.2342 71.7048 29.15 71.5214L28.6849 70.5113Z" fill="white"/>
<path d="M30.5369 66.8003L31.0202 68.0161L31.7233 67.7243C31.8368 67.6794 31.9577 67.7318 32.0053 67.8441L32.2067 68.3491C32.2506 68.4651 32.1993 68.5886 32.0895 68.6372L31.3864 68.929L32.0675 70.65L33.1771 70.1898C33.2869 70.1449 33.4114 70.1973 33.4554 70.3095L33.6641 70.8295C33.7081 70.9455 33.6568 71.069 33.5469 71.1176L31.6721 71.892C31.5585 71.9369 31.4377 71.8845 31.3901 71.7723L29.2882 66.4748C29.2442 66.3625 29.2955 66.2353 29.4053 66.1867L31.2802 65.4123C31.3901 65.3674 31.5146 65.4197 31.5585 65.532L31.7636 66.052C31.8075 66.1643 31.7563 66.2914 31.6464 66.3401L30.5369 66.8003Z" fill="white"/>
<path d="M34.9864 65.6924L34.9278 65.5166C34.8655 65.3333 34.6714 65.2435 34.492 65.3071L34.1185 65.4418C33.9391 65.5054 33.8402 65.6999 33.9024 65.8832L34.0745 66.3883C34.1368 66.5716 34.3309 66.6614 34.514 66.6053L34.8875 66.4706C35.6125 66.2125 36.3889 66.5978 36.6415 67.3386L36.9894 68.36C37.2384 69.0895 36.8576 69.8976 36.1435 70.152L35.77 70.2867C35.0559 70.5411 34.265 70.152 34.0159 69.4187L33.7852 68.7378C33.745 68.6218 33.8036 68.4984 33.9171 68.4572L34.4847 68.2552C34.5982 68.2141 34.719 68.2739 34.7593 68.3899L35.0047 69.1119C35.0669 69.2953 35.2647 69.3925 35.4441 69.3289L35.8176 69.1943C35.9971 69.1307 36.0922 68.9286 36.03 68.7453L35.6601 67.6641C35.5979 67.4808 35.4038 67.391 35.2244 67.4546L34.8509 67.5892C34.1331 67.8362 33.3495 67.4621 33.1005 66.7325L32.9393 66.2574C32.6903 65.5278 33.0712 64.7197 33.7852 64.4653L34.1588 64.3306C34.8838 64.0725 35.6638 64.4653 35.9128 65.1986L35.9604 65.3408C36.0007 65.4567 35.9421 65.5802 35.8286 65.6213L35.261 65.8234C35.1475 65.8683 35.0266 65.8084 34.9864 65.6924Z" fill="white"/>
<path d="M39.2492 62.9392L39.4103 63.4967C39.4433 63.6164 39.3737 63.7361 39.2638 63.7698L38.5534 63.983L39.9193 68.6968C39.9523 68.8165 39.89 68.9362 39.7729 68.9698L39.1943 69.1457C39.0881 69.1793 38.9599 69.1158 38.927 68.996L37.5611 64.2823L36.8617 64.4955C36.7445 64.5292 36.6273 64.4656 36.5943 64.3459L36.4332 63.7885C36.4003 63.6688 36.4625 63.549 36.5797 63.5154L38.9819 62.7896C39.0917 62.7597 39.2163 62.8195 39.2492 62.9392Z" fill="white"/>
<path d="M46.0697 66.3137L46.4066 66.2388C46.5055 66.2164 46.63 66.2875 46.6556 66.4072L46.7765 66.9647C46.8021 67.0844 46.7215 67.2004 46.6043 67.2303L44.9418 67.6082C44.2864 67.7579 43.6382 67.3351 43.4954 66.6729L42.7154 63.0773C42.5689 62.4076 42.9827 61.7454 43.6382 61.5994L44.3449 61.4386C45.0004 61.2889 45.6486 61.7117 45.7914 62.3814L46.4322 65.3446C46.5128 65.7188 46.359 66.0967 46.0697 66.3137ZM44.7807 62.6059C44.7551 62.4862 44.6306 62.4038 44.5134 62.4338L43.8909 62.576C43.7737 62.6021 43.6931 62.7294 43.7224 62.8491L44.5024 66.4484C44.528 66.5606 44.6489 66.6392 44.766 66.613L45.6046 66.4222L44.7807 62.6059Z" fill="white"/>
<path d="M49.0472 60.5147L49.6405 60.4099C49.7576 60.3875 49.8712 60.4773 49.8895 60.597L50.6987 65.3262C50.8013 65.9323 50.3948 66.5235 49.8016 66.6282L48.8678 66.7929C48.2745 66.8976 47.696 66.4823 47.5934 65.8762L46.7841 61.147C46.7622 61.0273 46.8391 60.9038 46.9563 60.8851L47.5495 60.7803C47.6667 60.7579 47.7802 60.8477 47.7985 60.9674L48.5895 65.5918C48.6114 65.7116 48.7286 65.7901 48.8458 65.7677L49.472 65.6555C49.5892 65.633 49.6771 65.5208 49.6551 65.401L48.8641 60.7766C48.8531 60.6569 48.93 60.5334 49.0472 60.5147Z" fill="white"/>
<path d="M54.7541 64.8922L54.853 65.6592C54.8676 65.7827 54.787 65.8911 54.6662 65.9061L54.0583 65.9884C53.9485 66.0034 53.8423 65.9211 53.824 65.7976L53.7214 65.0045L52.5789 65.1579L52.6815 65.951C52.6961 66.0745 52.6155 66.183 52.4947 66.1979L51.8978 66.2802C51.777 66.2952 51.6708 66.2129 51.6561 66.0894L51.5573 65.3225C51.5536 65.2888 51.5499 65.2626 51.5499 65.2065L51.6634 60.2942C51.6671 60.1782 51.7513 60.0884 51.8612 60.0735L53.1429 59.9014C53.2527 59.8864 53.3516 59.9724 53.3809 60.066L54.7285 64.7837C54.7431 64.8324 54.7468 64.8586 54.7541 64.8922ZM53.4761 64.0355L52.6265 61.0163L52.5716 64.1552L53.4761 64.0355Z" fill="white"/>
<path d="M56.1432 59.7811L56.6046 64.6934L57.8058 64.5736C57.9266 64.5624 58.0291 64.6485 58.0401 64.7719L58.0914 65.3331C58.1024 65.4566 58.0181 65.5614 57.8973 65.5726L55.8833 65.7709C55.7624 65.7821 55.6599 65.696 55.6489 65.5726L55.1142 59.8821C55.1033 59.7586 55.1875 59.6539 55.3083 59.6426L55.9089 59.5828C56.0297 59.5715 56.1323 59.6576 56.1432 59.7811Z" fill="white"/>
<path d="M59.7102 65.4379L59.1097 65.4828C58.9888 65.4903 58.8899 65.4005 58.8789 65.2771L58.4871 59.5829C58.4798 59.4594 58.5677 59.3472 58.6849 59.3397L59.2854 59.2948C59.4063 59.2874 59.5088 59.3846 59.5161 59.5081L59.9079 65.2023C59.9189 65.3257 59.8311 65.4305 59.7102 65.4379Z" fill="white"/>
<path d="M63.3835 59.3052L63.4091 59.8851C63.4128 60.0085 63.3139 60.1096 63.2041 60.1133L62.4643 60.147L62.6731 65.0594C62.6767 65.1829 62.5889 65.2839 62.468 65.2876L61.8675 65.3138C61.7539 65.3176 61.6477 65.2278 61.6441 65.1043L61.4354 60.1919L60.703 60.2255C60.5821 60.2293 60.4833 60.1395 60.4796 60.016L60.454 59.4361C60.4503 59.3126 60.5382 59.2116 60.659 59.2079L63.1638 59.0956C63.27 59.0882 63.3762 59.1817 63.3835 59.3052Z" fill="white"/>
<path d="M66.6622 59.0409L67.2664 59.0334C67.3873 59.0334 67.4825 59.127 67.4825 59.2504L67.4898 60.1221C67.4898 60.2193 67.4752 60.3166 67.4312 60.4027L66.3583 62.7071L66.3803 64.9742C66.3803 65.0976 66.2887 65.1949 66.1679 65.1949L65.5637 65.2024C65.4428 65.2024 65.3476 65.1088 65.3476 64.9854L65.3256 62.7183L64.2014 60.4326C64.1648 60.3465 64.1392 60.2493 64.1392 60.152L64.1318 59.2804C64.1318 59.1569 64.2234 59.0596 64.3442 59.0596L64.9485 59.0522C65.0693 59.0522 65.1645 59.1457 65.1645 59.2691L65.1718 59.9388C65.1718 60.0099 65.1901 60.0809 65.2268 60.1408L65.831 61.3828L66.4132 60.1296C66.4389 60.0697 66.4535 59.9986 66.4535 59.9276L66.4462 59.2579C66.4498 59.1419 66.5414 59.0447 66.6622 59.0409Z" fill="white"/>
<path d="M72.9574 62.2996C72.9281 62.9769 72.3679 63.497 71.7051 63.4633C71.0496 63.4334 70.5332 62.8609 70.5662 62.1836C70.5955 61.5138 71.1631 60.9862 71.8186 61.0198C72.4814 61.0535 72.9867 61.6335 72.9574 62.2996Z" fill="white"/>
<path d="M79.3644 63.5114L79.2582 64.544C79.1813 65.3147 78.5075 65.8796 77.7531 65.7973L76.1272 65.6252C76.0064 65.614 75.9222 65.5055 75.9368 65.382L76.5191 59.6992C76.53 59.5757 76.6363 59.4897 76.7571 59.5046L78.2475 59.6618C79.0018 59.7403 79.5438 60.4362 79.4669 61.2069L79.4083 61.7755C79.379 62.0636 79.2765 62.318 79.097 62.52C79.3021 62.8006 79.4046 63.1448 79.3644 63.5114ZM78.3427 63.3506C78.361 63.1598 78.2255 62.9839 78.0461 62.9652L77.2331 62.8792L77.0464 64.6974L77.8593 64.7834C78.0388 64.8021 78.2109 64.66 78.2292 64.4617L78.3427 63.3506ZM77.332 61.8915L78.0095 61.9626C78.1889 61.9813 78.361 61.8391 78.3793 61.6558L78.4416 61.0535C78.4599 60.8627 78.3244 60.6868 78.1449 60.6681L77.4675 60.5971L77.332 61.8915Z" fill="white"/>
<path d="M81.7433 61.1133L81.5602 62.4116L82.3108 62.5201C82.4317 62.5388 82.5122 62.6473 82.4939 62.767L82.417 63.3058C82.3987 63.4293 82.2925 63.5116 82.1754 63.4929L81.4247 63.3844L81.1683 65.2214L82.3511 65.3936C82.472 65.4123 82.5525 65.5208 82.5342 65.6405L82.4573 66.198C82.439 66.3215 82.3328 66.4038 82.212 66.3851L80.2089 66.0932C80.0881 66.0745 80.0112 65.966 80.0258 65.8463L80.8168 60.1891C80.8351 60.0657 80.9413 59.9871 81.0621 60.0021L83.0652 60.2939C83.186 60.3126 83.2629 60.4211 83.2483 60.5408L83.1714 61.0983C83.1531 61.2218 83.0469 61.3004 82.926 61.2854L81.7433 61.1133Z" fill="white"/>
<path d="M86.115 62.4079L86.1479 62.2245C86.1809 62.0337 86.0564 61.8579 85.8696 61.8242L85.4815 61.7532C85.2947 61.7195 85.1153 61.8355 85.0823 62.0263L84.9871 62.5538C84.9541 62.7446 85.0787 62.9204 85.2654 62.9616L85.6536 63.0326C86.4079 63.1748 86.8986 63.9006 86.7595 64.6675L86.569 65.73C86.4335 66.4932 85.7122 67.002 84.9688 66.8636L84.5806 66.7925C83.8373 66.6541 83.3356 65.9171 83.4711 65.1576L83.5993 64.4468C83.6212 64.3271 83.7311 64.2485 83.8483 64.271L84.4415 64.3832C84.5587 64.4057 84.6356 64.5179 84.6136 64.6376L84.4781 65.3896C84.4451 65.5804 84.5696 65.7637 84.7564 65.7974L85.1446 65.8685C85.3313 65.9021 85.5108 65.7749 85.5437 65.5841L85.7451 64.458C85.7781 64.2672 85.6536 64.0914 85.4668 64.0577L85.0786 63.9866C84.3353 63.8407 83.8336 63.1187 83.9691 62.3592L84.057 61.8654C84.1925 61.1059 84.9139 60.5934 85.6572 60.7318L86.0454 60.8029C86.7997 60.9413 87.2904 61.6783 87.1513 62.4378L87.1256 62.5837C87.1037 62.7034 86.9938 62.782 86.8766 62.7595L86.2834 62.6473C86.1699 62.6436 86.093 62.5313 86.115 62.4079Z" fill="white"/>
<path d="M91.1195 62.127L90.995 62.692C90.9694 62.8117 90.8485 62.8828 90.7387 62.8566L90.0173 62.692L88.9627 67.4883C88.937 67.608 88.8235 67.6828 88.7064 67.6529L88.1168 67.5182C88.0069 67.492 87.9264 67.376 87.9557 67.2563L89.0103 62.46L88.2962 62.2954C88.179 62.2692 88.1058 62.1532 88.1351 62.0335L88.2596 61.4686C88.2852 61.3489 88.3987 61.274 88.5159 61.304L90.9584 61.8652C91.0646 61.8913 91.1451 62.0073 91.1195 62.127Z" fill="white"/>
<path d="M96.9705 65.0267L96.813 65.5655C96.5969 66.3063 95.8243 66.7328 95.1065 66.5121L94.473 66.3175L93.7553 68.7682C93.7223 68.8879 93.6015 68.9515 93.488 68.9178L92.9094 68.742C92.7922 68.7083 92.73 68.5848 92.7666 68.4688L94.3668 62.9913C94.3998 62.8754 94.5206 62.808 94.6342 62.8417L96.0513 63.2757C96.769 63.4964 97.1865 64.2859 96.9705 65.0267ZM95.9927 64.6825C96.0476 64.4954 95.9524 64.3046 95.7693 64.2485L95.1358 64.0539L94.7733 65.2998L95.4068 65.4944C95.5899 65.5505 95.773 65.442 95.8243 65.2624L95.9927 64.6825Z" fill="white"/>
<path d="M99.4184 67.87L99.6674 69.5274C99.6784 69.6246 99.6601 69.7294 99.6308 69.8229L99.3452 70.6535C99.3049 70.7694 99.1914 70.8331 99.0779 70.7919L98.5102 70.5861C98.3967 70.545 98.3308 70.4178 98.3711 70.3018L98.5725 69.7219C98.6055 69.6321 98.6201 69.5349 98.6128 69.4189L98.3125 67.4622L97.4446 69.9763C97.4044 70.0923 97.2835 70.1522 97.17 70.111L96.6024 69.9052C96.4962 69.8678 96.4303 69.7406 96.4706 69.6246L98.3345 64.2336C98.3748 64.1176 98.5029 64.0615 98.6091 64.0989L100.015 64.604C100.729 64.8621 101.099 65.6665 100.847 66.396L100.667 66.9198C100.466 67.4809 99.9604 67.8401 99.4184 67.87ZM99.6784 65.558L99.0449 65.3298L98.6165 66.5644L99.25 66.7926C99.4221 66.8524 99.6198 66.7589 99.6857 66.5681L99.8835 65.9957C99.9494 65.8124 99.8505 65.6178 99.6784 65.558Z" fill="white"/>
<path d="M100.805 71.4956L100.245 71.2674C100.132 71.2225 100.08 71.0953 100.124 70.9831L102.197 65.6815C102.241 65.5656 102.369 65.5057 102.479 65.5506L103.039 65.7788C103.153 65.8237 103.2 65.9584 103.156 66.0744L101.084 71.3759C101.04 71.4882 100.919 71.5443 100.805 71.4956Z" fill="white"/>
<path d="M105.096 70.2871L105.646 70.5415C105.756 70.5938 105.8 70.7285 105.748 70.8408L105.148 72.2026C104.899 72.7638 104.247 73.022 103.69 72.7675L102.826 72.371C102.277 72.1166 102.028 71.4431 102.273 70.8819L103.844 67.3239C104.097 66.7552 104.745 66.5046 105.302 66.759L106.166 67.1556C106.722 67.4137 106.968 68.0759 106.719 68.6446L106.331 69.5276C106.283 69.6398 106.151 69.6959 106.041 69.6473L105.492 69.3929C105.382 69.3405 105.338 69.2058 105.389 69.0936L105.741 68.3004C105.789 68.1882 105.734 68.0572 105.635 68.0086L105.045 67.7392C104.935 67.6868 104.804 67.7317 104.752 67.844L103.269 71.2112C103.222 71.3234 103.276 71.4543 103.386 71.5067L103.976 71.7761C104.078 71.8247 104.21 71.7798 104.262 71.6676L104.818 70.4105C104.858 70.2945 104.987 70.2384 105.096 70.2871Z" fill="white"/>
<path d="M108.729 69.5464L108.136 70.7099L108.806 71.0691C108.912 71.1252 108.952 71.2562 108.897 71.3647L108.648 71.8473C108.593 71.9558 108.465 71.997 108.359 71.9408L107.689 71.5817L106.847 73.2279L107.909 73.7928C108.015 73.8489 108.055 73.9799 108 74.0884L107.744 74.586C107.689 74.6945 107.561 74.7356 107.455 74.6795L105.66 73.7217C105.554 73.6656 105.514 73.5347 105.569 73.4262L108.161 68.3566C108.216 68.2481 108.344 68.207 108.451 68.2631L110.245 69.2209C110.351 69.277 110.391 69.4079 110.336 69.5164L110.08 70.014C110.025 70.1225 109.897 70.1637 109.791 70.1076L108.729 69.5464Z" fill="white"/>
<path d="M111.922 73.7852C111.582 74.3652 110.849 74.556 110.282 74.208C109.722 73.8638 109.528 73.1117 109.868 72.5317C110.205 71.9592 110.948 71.7684 111.509 72.1089C112.08 72.4569 112.259 73.2127 111.922 73.7852Z" fill="white"/>
<path d="M69.3553 12.8174C69.3553 16.2443 66.6346 19.0241 63.2803 19.0241C59.926 19.0241 57.2052 16.2443 57.2052 12.8174C57.2052 9.39039 63.2803 0.0859375 63.2803 0.0859375C63.2803 0.0859375 69.3553 9.39039 69.3553 12.8174Z" fill="#767676"/>
<path d="M50.4788 21.3064C48.1351 21.3064 46.2273 19.3572 46.2273 16.9628C46.2273 14.7741 49.6182 9.51762 50.0064 8.92649L50.4824 8.20068L50.9585 8.92649C51.3466 9.51762 54.7375 14.7741 54.7375 16.9628C54.7302 19.3572 52.8224 21.3064 50.4788 21.3064ZM50.4788 10.3183C49.3106 12.2001 47.3661 15.6122 47.3661 16.9628C47.3661 18.7137 48.7613 20.1429 50.4788 20.1429C52.1925 20.1429 53.5914 18.7174 53.5914 16.9628C53.5914 15.6122 51.6469 12.1964 50.4788 10.3183Z" fill="#767676"/>
<path d="M77.4439 20.5542C75.1003 20.5542 73.1925 18.605 73.1925 16.2106C73.1925 14.0219 76.5834 8.76542 76.9715 8.1743L77.4476 7.44849L77.9236 8.1743C78.3118 8.76542 81.7027 14.0219 81.7027 16.2106C81.6954 18.605 79.7875 20.5542 77.4439 20.5542ZM77.4439 9.56605C76.2758 11.4479 74.3313 14.86 74.3313 16.2106C74.3313 17.9652 75.7265 19.3907 77.4439 19.3907C79.1577 19.3907 80.5565 17.9652 80.5565 16.2106C80.5565 14.86 78.6121 11.4479 77.4439 9.56605Z" fill="#767676"/>
</svg>
